<svg width="40" height="41" viewBox="0 0 40 41" fill="none" xmlns="http://www.w3.org/2000/svg">
<g clip-path="url(#clip0_1428_164)">
<path fill-rule="evenodd" clip-rule="evenodd" d="M4.85645 5.22735H35.0005V35.3711H4.85645V5.22735Z" fill="#6D787D"/>
<path fill-rule="evenodd" clip-rule="evenodd" d="M27.2547 11.3458L29.7778 13.0747L32.2473 11.4244L32.2545 8.03415L27.2547 11.3458ZM12.6643 29.313L10.1497 27.5984L7.60742 29.316L7.63271 32.6387L12.6643 29.313ZM22.2133 14.6481L24.6776 16.3057L12.9688 24.228L20.2038 29.1113L23.6016 26.8083L20.9622 25.0602L27.0539 20.9771L32.1506 24.3587L19.8366 32.5674L7.68624 24.4159L22.2133 14.6481ZM17.6006 25.8867L15.1366 24.2291L26.8454 16.3067L19.6104 11.4236L16.2125 13.7263L18.8518 15.4749L12.7603 19.5577L7.66334 16.1761L19.9335 7.96741L32.1158 16.1548L17.6006 25.8867Z" fill="#EEEEEE"/>
</g>
<defs>
<clipPath id="clip0_1428_164">
<rect width="39.6114" height="39.6114" fill="white" transform="translate(0.12207 0.496094)"/>
</clipPath>
</defs>
</svg>
