<svg width="37" height="31" viewBox="0 0 37 31" fill="none" xmlns="http://www.w3.org/2000/svg">
<path d="M11.8744 29.2944C11.7989 29.316 11.4645 29.3483 11.3028 29.3483C10.688 29.3483 10.3536 29.1649 10.3536 28.7335C10.3536 28.3021 10.688 28.1295 11.3028 28.1295C11.5077 28.1295 11.745 28.1511 11.8744 28.1618V29.2944ZM11.0655 25.282C10.537 25.2712 10.0732 25.3359 9.62013 25.4438C9.53387 25.7458 9.54465 26.188 9.62013 26.5008C10.181 26.3713 10.4938 26.3606 10.8498 26.3606C11.54 26.3606 11.8744 26.641 11.8744 27.2127V27.2666C11.6695 27.245 11.4214 27.2234 11.2488 27.2234C10.1055 27.2234 9.12402 27.6333 9.12402 28.7335C9.12402 29.9739 10.0084 30.3945 11.292 30.3945C11.896 30.3945 12.5539 30.2867 13.1579 30.1033V27.3097C13.1579 25.9723 12.4353 25.3143 11.0655 25.282Z" fill="#6D787D"/>
<path d="M8.59741 25.346C7.96108 25.346 7.59431 25.594 7.24921 26.0363C7.21686 25.8098 7.17368 25.6264 7.0982 25.3999C6.96876 25.3567 6.74222 25.346 6.54808 25.346C6.36472 25.346 6.12745 25.3675 6.00879 25.3999V30.2859C6.17058 30.3291 6.44025 30.3398 6.67752 30.3398C6.90401 30.3398 7.20603 30.3183 7.34626 30.2859V27.9022C7.34626 26.9531 7.84242 26.4461 8.51115 26.4461C8.62976 26.4461 8.83474 26.4461 8.9534 26.4677C9.02888 26.1549 9.03966 25.7019 8.97496 25.3891C8.89943 25.3675 8.70529 25.346 8.59741 25.346Z" fill="#6D787D"/>
<path d="M2.5114 29.3052C2.37118 29.3052 2.15547 29.3052 2.00446 29.2513V26.5655C2.18782 26.4684 2.44671 26.4145 2.78102 26.4145C3.44976 26.4145 3.80574 26.8783 3.80574 27.752C3.80574 28.6688 3.38506 29.3052 2.5114 29.3052ZM3.00756 25.3035C2.61923 25.3035 2.24173 25.3898 2.00446 25.5085V23.114C1.62696 23.2542 1.22785 23.4483 0.893481 23.718C0.720958 23.8582 0.666992 23.9985 0.666992 24.2034V30.1141C1.02292 30.2651 1.74557 30.3945 2.43587 30.3945C4.18324 30.3945 5.18629 29.3267 5.18629 27.7843C5.18629 26.2527 4.47443 25.3035 3.00756 25.3035Z" fill="#6D787D"/>
<path d="M17.051 29.2296C16.8245 29.2944 16.6627 29.3052 16.4793 29.3052C15.5949 29.3052 15.2497 28.7227 15.2497 27.8814C15.2497 26.943 15.5949 26.3713 16.4685 26.3713C16.7274 26.3713 16.8892 26.4037 17.051 26.4469V29.2296ZM17.051 24.2034V25.379C16.8137 25.3143 16.5656 25.3035 16.3499 25.3035C14.8722 25.3035 13.8691 26.2959 13.8691 27.8814C13.8691 29.4993 14.8507 30.3945 16.3823 30.3945C17.0834 30.3945 17.7737 30.2974 18.3884 30.0925V23.114C18.0109 23.2542 17.6119 23.4483 17.2775 23.718C17.1049 23.8582 17.051 23.9985 17.051 24.2034Z" fill="#6D787D"/>
<path d="M26.6184 27.3853L26.0792 27.1587C25.7664 27.0293 25.583 26.9214 25.583 26.7165C25.583 26.4037 25.8634 26.339 26.2302 26.339C26.5969 26.339 26.9744 26.3822 27.4922 26.5439C27.5568 26.188 27.5568 25.8537 27.4922 25.5408C27.1686 25.3682 26.5645 25.282 26.036 25.282C25.0006 25.282 24.2132 25.8429 24.2132 26.6841C24.2132 27.4392 24.5368 27.8167 25.4428 28.1834L25.8634 28.356C26.2626 28.5178 26.3812 28.6148 26.3812 28.8737C26.3812 29.262 25.9929 29.3267 25.6693 29.3267C25.13 29.3267 24.7201 29.2189 24.2024 29.0355C24.1161 29.3483 24.1161 29.7581 24.2024 30.0817C24.6446 30.319 25.2486 30.3945 25.885 30.3945C26.9097 30.3945 27.7294 29.8552 27.7294 28.8845C27.7294 28.0863 27.3843 27.7089 26.6184 27.3853Z" fill="#6D787D"/>
<path d="M30.7816 29.2944C30.1129 29.2944 29.6706 28.7658 29.6706 27.8383C29.6706 26.9538 30.0266 26.3822 30.7924 26.3822C31.116 26.3822 31.3425 26.4361 31.6445 26.5547C31.7308 26.2527 31.8925 25.9076 32.1191 25.6163C31.6984 25.4006 31.2886 25.282 30.6198 25.282C29.1421 25.282 28.29 26.3282 28.29 27.8383C28.29 29.4022 29.1637 30.3945 30.6737 30.3945C31.2239 30.3945 31.7308 30.2974 32.1407 30.0709C31.9572 29.8337 31.7523 29.5101 31.6337 29.1326C31.2562 29.2836 31.0944 29.2944 30.7816 29.2944Z" fill="#6D787D"/>
<path d="M34.5242 29.316C33.78 29.316 33.5534 28.7119 33.5534 27.849C33.5534 27.0077 33.78 26.3606 34.5242 26.3606C35.2899 26.3606 35.5057 26.9862 35.5057 27.849C35.5057 28.755 35.2575 29.316 34.5242 29.316ZM34.5242 25.282C33.0249 25.282 32.1836 26.3066 32.1836 27.849C32.1836 29.413 33.068 30.3945 34.5242 30.3945C36.0342 30.3945 36.8755 29.3914 36.8755 27.849C36.8755 26.2959 36.0342 25.282 34.5242 25.282Z" fill="#6D787D"/>
<path d="M20.4604 27.2558C20.5575 26.6626 20.9134 26.3066 21.4527 26.3066C22.0567 26.3066 22.294 26.7165 22.3156 27.2558H20.4604ZM21.4743 25.282C20.029 25.282 19.1445 26.2527 19.1445 27.8706C19.1445 29.4885 20.0829 30.3945 21.69 30.3945C22.2401 30.3945 22.8333 30.2974 23.2109 30.1141C23.2863 29.8013 23.2863 29.3914 23.2109 29.0787C22.7147 29.2189 22.294 29.3052 21.8302 29.3052C21.086 29.3052 20.5683 29.0247 20.4604 28.2373H23.502C23.5452 28.1187 23.5559 27.7196 23.5559 27.5579C23.5559 26.1017 22.7363 25.282 21.4743 25.282Z" fill="#6D787D"/>
<path d="M18.2037 4.47066C16.9878 4.47066 15.6585 4.58232 14.3454 4.80565C15.6747 3.09893 17.7822 1.99831 20.1329 1.99831C21.8675 1.99831 23.6022 2.65233 24.7694 3.62531C24.9802 3.80073 25.1423 3.8167 25.3044 3.65719C25.4665 3.49768 25.4503 3.33817 25.272 3.13081C23.7481 1.36032 21.5109 0.164011 18.8684 0.211859C15.4153 0.275674 12.481 2.46088 11.3624 5.49149C10.3411 5.81051 9.40082 6.1933 8.57402 6.65587C8.34707 6.7835 8.26599 6.94301 8.34707 7.1344C8.4281 7.30983 8.59025 7.37364 8.81721 7.30983C9.53052 7.10247 10.26 6.92704 11.022 6.76753C10.9409 7.16628 10.8923 7.581 10.8923 8.01169C10.8275 10.803 12.3189 13.4508 14.6209 14.9023C14.8479 15.0458 15.0425 15.0458 15.1722 14.8704C15.3019 14.6949 15.2856 14.5354 15.0911 14.36C13.632 13.052 12.8215 11.1061 12.8215 9.17606C12.8215 8.20308 13.016 7.26203 13.3889 6.41663C14.1508 6.35281 14.9776 6.30496 15.8854 6.30496C21.7865 6.30496 26.7635 8.25093 26.7635 10.803C26.7635 12.095 25.1261 13.387 23.1806 14.2483C22.7106 14.4557 22.6619 14.5992 22.7267 14.8066C22.7916 14.998 23.0024 15.0618 23.2455 14.982C26.65 13.8655 29.2276 12.0312 29.2276 9.81411C29.2276 6.79947 24.3641 4.47066 18.2037 4.47066Z" fill="#6D787D"/>
<path d="M21.0213 19.8014V13.3428C21.0213 13.0953 20.7823 13.005 20.5853 13.1173L18.9434 14.0622V20.1129L20.7071 20.1152C20.8806 20.1154 21.0213 19.9749 21.0213 19.8014Z" fill="#6D787D"/>
<path d="M16.9443 15.4466V19.9129C16.9443 20.0246 17.035 20.1152 17.1467 20.1152H18.3891V14.3805L17.1488 15.0946C17.0224 15.1667 16.9443 15.2802 16.9443 15.4466Z" fill="#6D787D"/>
</svg>
