<svg width="46" height="45" viewBox="0 0 46 45" fill="none" xmlns="http://www.w3.org/2000/svg">
<g clip-path="url(#clip0_1408_1605)">
<path d="M15.8744 36.2944C15.7989 36.316 15.4645 36.3483 15.3028 36.3483C14.688 36.3483 14.3536 36.1649 14.3536 35.7335C14.3536 35.3021 14.688 35.1295 15.3028 35.1295C15.5077 35.1295 15.745 35.1511 15.8744 35.1618V36.2944ZM15.0655 32.282C14.537 32.2712 14.0732 32.3359 13.6201 32.4438C13.5339 32.7458 13.5447 33.188 13.6201 33.5008C14.181 33.3713 14.4938 33.3606 14.8498 33.3606C15.54 33.3606 15.8744 33.641 15.8744 34.2127V34.2666C15.6695 34.245 15.4214 34.2234 15.2488 34.2234C14.1055 34.2234 13.124 34.6333 13.124 35.7335C13.124 36.9739 14.0084 37.3945 15.292 37.3945C15.896 37.3945 16.5539 37.2867 17.1579 37.1033V34.3097C17.1579 32.9723 16.4353 32.3143 15.0655 32.282Z" fill="#CE1C30"/>
<path d="M12.5974 32.346C11.9611 32.346 11.5943 32.594 11.2492 33.0363C11.2169 32.8098 11.1737 32.6264 11.0982 32.3999C10.9688 32.3567 10.7422 32.346 10.5481 32.346C10.3647 32.346 10.1275 32.3675 10.0088 32.3999V37.2859C10.1706 37.3291 10.4403 37.3398 10.6775 37.3398C10.904 37.3398 11.206 37.3183 11.3463 37.2859V34.9022C11.3463 33.9531 11.8424 33.4461 12.5112 33.4461C12.6298 33.4461 12.8347 33.4461 12.9534 33.4677C13.0289 33.1549 13.0397 32.7019 12.975 32.3891C12.8994 32.3675 12.7053 32.346 12.5974 32.346Z" fill="#CE1C30"/>
<path d="M6.5114 36.3052C6.37118 36.3052 6.15547 36.3052 6.00446 36.2513V33.5655C6.18782 33.4684 6.44671 33.4145 6.78102 33.4145C7.44976 33.4145 7.80574 33.8783 7.80574 34.752C7.80574 35.6688 7.38506 36.3052 6.5114 36.3052ZM7.00756 32.3035C6.61923 32.3035 6.24173 32.3898 6.00446 32.5085V30.114C5.62696 30.2542 5.22785 30.4483 4.89348 30.718C4.72096 30.8582 4.66699 30.9985 4.66699 31.2034V37.1141C5.02292 37.2651 5.74557 37.3945 6.43587 37.3945C8.18324 37.3945 9.18629 36.3267 9.18629 34.7843C9.18629 33.2527 8.47443 32.3035 7.00756 32.3035Z" fill="#CE1C30"/>
<path d="M21.051 36.2296C20.8245 36.2944 20.6627 36.3052 20.4793 36.3052C19.5949 36.3052 19.2497 35.7227 19.2497 34.8814C19.2497 33.943 19.5949 33.3713 20.4685 33.3713C20.7274 33.3713 20.8892 33.4037 21.051 33.4469V36.2296ZM21.051 31.2034V32.379C20.8137 32.3143 20.5656 32.3035 20.3499 32.3035C18.8722 32.3035 17.8691 33.2959 17.8691 34.8814C17.8691 36.4993 18.8507 37.3945 20.3823 37.3945C21.0834 37.3945 21.7737 37.2974 22.3884 37.0925V30.114C22.0109 30.2542 21.6119 30.4483 21.2775 30.718C21.1049 30.8582 21.051 30.9985 21.051 31.2034Z" fill="#CE1C30"/>
<path d="M30.6184 34.3853L30.0792 34.1587C29.7664 34.0293 29.583 33.9214 29.583 33.7165C29.583 33.4037 29.8634 33.339 30.2302 33.339C30.5969 33.339 30.9744 33.3822 31.4922 33.5439C31.5568 33.188 31.5568 32.8537 31.4922 32.5408C31.1686 32.3682 30.5645 32.282 30.036 32.282C29.0006 32.282 28.2132 32.8429 28.2132 33.6841C28.2132 34.4392 28.5368 34.8167 29.4428 35.1834L29.8634 35.356C30.2626 35.5178 30.3812 35.6148 30.3812 35.8737C30.3812 36.262 29.9929 36.3267 29.6693 36.3267C29.13 36.3267 28.7201 36.2189 28.2024 36.0355C28.1161 36.3483 28.1161 36.7581 28.2024 37.0817C28.6446 37.319 29.2486 37.3945 29.885 37.3945C30.9097 37.3945 31.7294 36.8552 31.7294 35.8845C31.7294 35.0863 31.3843 34.7089 30.6184 34.3853Z" fill="#CE1C30"/>
<path d="M34.7816 36.2944C34.1129 36.2944 33.6706 35.7658 33.6706 34.8383C33.6706 33.9538 34.0266 33.3822 34.7924 33.3822C35.116 33.3822 35.3425 33.4361 35.6445 33.5547C35.7308 33.2527 35.8925 32.9076 36.1191 32.6163C35.6984 32.4006 35.2886 32.282 34.6198 32.282C33.1421 32.282 32.29 33.3282 32.29 34.8383C32.29 36.4022 33.1637 37.3945 34.6737 37.3945C35.2239 37.3945 35.7308 37.2974 36.1407 37.0709C35.9572 36.8337 35.7523 36.5101 35.6337 36.1326C35.2562 36.2836 35.0944 36.2944 34.7816 36.2944Z" fill="#CE1C30"/>
<path d="M38.5242 36.316C37.78 36.316 37.5534 35.7119 37.5534 34.849C37.5534 34.0077 37.78 33.3606 38.5242 33.3606C39.2899 33.3606 39.5057 33.9862 39.5057 34.849C39.5057 35.755 39.2575 36.316 38.5242 36.316ZM38.5242 32.282C37.0249 32.282 36.1836 33.3066 36.1836 34.849C36.1836 36.413 37.068 37.3945 38.5242 37.3945C40.0342 37.3945 40.8755 36.3914 40.8755 34.849C40.8755 33.2959 40.0342 32.282 38.5242 32.282Z" fill="#CE1C30"/>
<path d="M24.4604 34.2558C24.5575 33.6626 24.9134 33.3066 25.4527 33.3066C26.0567 33.3066 26.294 33.7165 26.3156 34.2558H24.4604ZM25.4743 32.282C24.029 32.282 23.1445 33.2527 23.1445 34.8706C23.1445 36.4885 24.0829 37.3945 25.69 37.3945C26.2401 37.3945 26.8333 37.2974 27.2109 37.1141C27.2863 36.8013 27.2863 36.3914 27.2109 36.0787C26.7147 36.2189 26.294 36.3052 25.8302 36.3052C25.086 36.3052 24.5683 36.0247 24.4604 35.2373H27.502C27.5452 35.1187 27.5559 34.7196 27.5559 34.5579C27.5559 33.1017 26.7363 32.282 25.4743 32.282Z" fill="#CE1C30"/>
<path d="M22.2037 11.4707C20.9878 11.4707 19.6585 11.5823 18.3454 11.8057C19.6747 10.0989 21.7822 8.99831 24.1329 8.99831C25.8675 8.99831 27.6022 9.65233 28.7694 10.6253C28.9802 10.8007 29.1423 10.8167 29.3044 10.6572C29.4665 10.4977 29.4503 10.3382 29.272 10.1308C27.7481 8.36032 25.5109 7.16401 22.8684 7.21186C19.4153 7.27567 16.481 9.46088 15.3624 12.4915C14.3411 12.8105 13.4008 13.1933 12.574 13.6559C12.3471 13.7835 12.266 13.943 12.3471 14.1344C12.4281 14.3098 12.5903 14.3736 12.8172 14.3098C13.5305 14.1025 14.26 13.927 15.022 13.7675C14.9409 14.1663 14.8923 14.581 14.8923 15.0117C14.8275 17.803 16.3189 20.4508 18.6209 21.9023C18.8479 22.0458 19.0425 22.0458 19.1722 21.8704C19.3019 21.6949 19.2856 21.5354 19.0911 21.36C17.632 20.052 16.8215 18.1061 16.8215 16.1761C16.8215 15.2031 17.016 14.262 17.3889 13.4166C18.1508 13.3528 18.9776 13.305 19.8854 13.305C25.7865 13.305 30.7635 15.2509 30.7635 17.803C30.7635 19.095 29.1261 20.387 27.1806 21.2483C26.7106 21.4557 26.6619 21.5992 26.7267 21.8066C26.7916 21.998 27.0024 22.0618 27.2455 21.982C30.65 20.8655 33.2276 19.0312 33.2276 16.8141C33.2276 13.7995 28.3641 11.4707 22.2037 11.4707Z" fill="#CE1C30"/>
<path d="M25.0213 26.8014V20.3428C25.0213 20.0953 24.7823 20.005 24.5853 20.1173L22.9434 21.0622V27.1129L24.7071 27.1152C24.8806 27.1154 25.0213 26.9749 25.0213 26.8014Z" fill="#CE1C30"/>
<path d="M20.9443 22.4466V26.9129C20.9443 27.0246 21.035 27.1152 21.1467 27.1152H22.3891V21.3805L21.1488 22.0946C21.0224 22.1667 20.9443 22.2802 20.9443 22.4466Z" fill="#CE1C30"/>
</g>
<defs>
<clipPath id="clip0_1408_1605">
<rect width="44.5629" height="44.5629" fill="white" transform="translate(0.490234 0.0195312)"/>
</clipPath>
</defs>
</svg>
