<svg width="134" height="53" viewBox="0 0 134 53" fill="none" xmlns="http://www.w3.org/2000/svg">
<g clip-path="url(#clip0_1408_1572)">
<path fill-rule="evenodd" clip-rule="evenodd" d="M123.673 22.411H120.463L120.197 23.5877H123.673C126.852 23.5877 127.926 24.4528 127.926 27.016V28.2568C127.137 27.4499 125.743 27.0407 123.772 27.0407C120.629 27.0407 119.101 28.4029 119.101 31.2041V31.408C119.101 34.0344 120.606 35.3665 123.573 35.3665H124.372C127.515 35.3665 129.11 34.0344 129.11 31.408V27.016C129.11 23.7451 127.534 22.411 123.673 22.411ZM127.926 31.5778C127.926 33.4574 126.92 34.1898 124.339 34.1898H123.839C121.348 34.1898 120.285 33.3575 120.285 31.408V31.2041C120.285 29.0865 121.298 28.1836 123.673 28.1836H123.872C126.713 28.1836 127.926 29.0561 127.926 31.1018V31.5778ZM41.2467 24.7195L41.8781 21.5764H36.4428V17.2826L32.6274 17.8716V30.6967C32.6274 35.1305 34.3289 36.4499 38.9679 36.4499H40.999L41.6308 33.3344H39.2424C37.1291 33.3344 36.4425 32.8019 36.4425 30.444V24.7195H41.2467ZM15.0323 15.7948V29.5745C15.0323 34.6822 17.3378 36.8149 22.3612 36.8149C27.5766 36.8149 29.8824 34.7384 29.8824 29.6023V28.2836C29.8824 23.4566 27.741 21.099 23.0749 21.099C21.5924 21.099 19.9728 21.4075 18.8748 22.2773V15.1774L15.0323 15.7944V15.7948ZM22.4983 24.1857C25.1334 24.1857 26.067 25.2524 26.067 28.4233V29.6023C26.067 32.6889 25.1334 33.756 22.4435 33.756C19.7536 33.756 18.8196 32.6889 18.8196 29.5742V27.9747C18.8196 25.1401 19.7532 24.1857 22.498 24.1857H22.4983ZM50.4696 21.099C45.4462 21.099 43.1404 23.2598 43.1404 28.199V28.9568C43.1404 33.6433 45.1443 35.9164 49.8653 35.9164C51.3752 35.9164 52.8851 35.6362 53.9554 34.7658V35.3277C53.9554 37.9658 52.8303 38.8349 50.1949 38.8349H48.6171C47.7152 38.8513 47.3054 39.0151 46.7619 39.926L46.7589 39.9246C42.2328 47.2479 34.375 51.7218 25.8116 51.7218C12.1482 51.7218 1.03257 40.3579 1.03257 26.3886C1.03257 12.4196 12.1482 1.05564 25.8116 1.05564C35.4089 1.05564 44.1398 6.73795 48.2247 15.5808H49.3632C45.2001 6.11186 35.9712 0 25.8116 0C11.5792 0 0 11.838 0 26.3886C0 40.9395 11.5792 52.7775 25.8116 52.7775C34.1818 52.7775 41.9062 48.6746 46.7218 41.8658H50.4145C55.2731 41.8658 57.7712 39.9858 57.7712 35.187V27.9466C57.7712 23.1755 55.3831 21.099 50.4696 21.099ZM53.9832 29.4338C53.9832 32.0719 53.0773 32.8855 50.47 32.8855C47.5324 32.8855 46.9561 31.8472 46.9561 28.7886V28.3116C46.9561 25.2801 47.4776 24.1857 50.4696 24.1857C53.4066 24.1857 53.9832 25.2524 53.9832 28.3394V29.4338ZM131.555 35.3665H132.739V17.543H131.555V35.3665H131.555ZM104.872 23.588L105.138 22.411H99.8408V19.0462L98.6234 19.2685V30.7953C98.6234 34.0779 99.8265 35.2986 103.062 35.2986H104.811L105.032 34.122H103.062C100.623 34.122 99.8408 33.3304 99.8408 30.8628V23.5884H104.873L104.872 23.588ZM115.838 30.2508C115.838 33.2843 114.91 34.2577 112.018 34.2577C109.212 34.2577 108.265 33.2469 108.265 30.2508V22.411H107.047V30.2508C107.047 33.9813 108.441 35.4343 112.018 35.4343C115.573 35.4343 117.022 33.9331 117.022 30.2508V22.411H115.838V30.2508ZM89.0522 29.3997V28.31C89.0522 24.8235 90.2171 23.588 93.5047 23.588H96.2825L96.5472 22.411H93.505C89.584 22.411 87.8344 24.2302 87.8344 28.3096V29.3997C87.8344 33.4792 89.5837 35.2986 93.505 35.2986H96.3149L96.5807 34.122H93.505C90.3003 34.122 89.0525 32.7979 89.0525 29.3997H89.0522ZM80.2858 22.411H77.0755L76.8104 23.5877H80.2858C83.4407 23.5877 84.505 24.4528 84.505 27.016V28.2568C83.7172 27.4499 82.3229 27.0407 80.352 27.0407C77.2092 27.0407 75.6812 28.4029 75.6812 31.2041V31.408C75.6812 34.0344 77.1965 35.3665 80.1856 35.3665H80.9848C84.1069 35.3665 85.6897 34.0344 85.6897 31.408V27.016C85.6897 23.7451 84.124 22.411 80.2858 22.411ZM84.505 31.5778C84.505 33.4822 83.542 34.1898 80.9517 34.1898H80.4523C77.9386 34.1898 76.8655 33.3575 76.8655 31.408V31.2041C76.8655 29.0865 77.8784 28.1836 80.2524 28.1836H80.4523C83.293 28.1836 84.505 29.0561 84.505 31.1018V31.5778ZM68.365 22.2068C64.6104 22.2068 62.8615 24.1031 62.8615 28.1736V39.2474H64.0458V33.5611C64.9029 34.6999 66.5007 35.3665 68.4315 35.3665C72.169 35.3665 73.8357 33.526 73.8357 29.3997V28.1398C73.8357 24.0366 72.1483 22.2065 68.365 22.2065V22.2068ZM72.6176 29.3994C72.6176 32.8915 71.4834 34.1895 68.4315 34.1895C65.5434 34.1895 64.0789 32.7498 64.0789 29.9098V28.1736C64.0789 24.7707 65.3207 23.3831 68.365 23.3831C71.4252 23.3831 72.6176 24.7165 72.6176 28.1398V29.3994Z" fill="#001E61"/>
</g>
<defs>
<clipPath id="clip0_1408_1572">
<rect width="133.041" height="52.8152" fill="white"/>
</clipPath>
</defs>
</svg>
