<svg width="75" height="17" viewBox="0 0 75 17" fill="none" xmlns="http://www.w3.org/2000/svg">
<g clip-path="url(#clip0_1428_115)">
<path fill-rule="evenodd" clip-rule="evenodd" d="M12.3611 10.0493C8.67698 13.0192 5.68487 10.9196 6.02941 8.38994C6.32798 6.19766 9.76008 3.56055 12.8493 6.79833L13.5971 0.80523C8.25438 -0.923139 4.05128 0.769856 0.987837 5.88421C-0.748164 9.9556 -0.069535 13.1547 3.02363 15.4813C5.08858 16.8574 7.84445 17.0236 11.2913 15.9799L12.3611 10.0493Z" fill="#6D787D"/>
<path fill-rule="evenodd" clip-rule="evenodd" d="M29.6336 16.5837L26.393 0.546875H19.9949L12.0049 16.4442H18.1594L18.8316 14.5064H23.2355L23.4848 16.5837H29.6336ZM22.5603 5.91674L22.8304 10.7777H20.5246L22.3111 5.91674H22.5603Z" fill="#6D787D"/>
<path fill-rule="evenodd" clip-rule="evenodd" d="M36.8112 16.3644L39.2207 0.369141H33.3628L30.9531 16.3644H36.8112Z" fill="#6D787D"/>
<path fill-rule="evenodd" clip-rule="evenodd" d="M45.5172 8.00576H52.5592L50.1483 3.19751L48.7577 0.423828H41.7363L45.5172 8.00576Z" fill="#6D787D"/>
<path fill-rule="evenodd" clip-rule="evenodd" d="M48.9371 16.4398H55.9373L52.115 8.85742L47.4961 13.6906L48.9371 16.4398Z" fill="#6D787D"/>
<path fill-rule="evenodd" clip-rule="evenodd" d="M65.1151 0.546875L57.0967 16.5006L63.2455 16.5422L63.9518 14.5064H68.3557L68.605 16.5837H74.7538L71.5132 0.546875H65.1151ZM65.5956 10.7711L67.3821 5.91019H67.6313L67.9014 10.7711H65.5956Z" fill="#6D787D"/>
<path fill-rule="evenodd" clip-rule="evenodd" d="M52.7345 0.453125L50.1572 3.20608L52.5682 8.01433L59.7558 0.453125H52.7345Z" fill="#6D787D"/>
<path fill-rule="evenodd" clip-rule="evenodd" d="M45.1188 8.85352L37.9727 16.3525H44.9318L47.4794 13.6867L52.0983 8.85352H45.1188Z" fill="#6D787D"/>
</g>
<defs>
<clipPath id="clip0_1428_115">
<rect width="74.7013" height="16.5048" fill="white" transform="translate(0.0507812 0.154297)"/>
</clipPath>
</defs>
</svg>
