<svg width="216" height="148" viewBox="0 0 216 148" fill="none" xmlns="http://www.w3.org/2000/svg">
<rect width="216" height="148" rx="4" fill="#F4F4F4"/>
<g clip-path="url(#clip0_302_653)">
<path d="M26.2793 33.8368C26.2793 33.8368 25.1938 39.1958 18.599 39.9261L18.097 37.3598C24.3384 38.9082 26.2793 33.8368 26.2793 33.8368Z" fill="#0B5EBF"/>
<path d="M27.2603 27.1955C27.2603 27.1955 18.3107 26.2474 19.3445 20.8147C19.6738 19.0859 21.9385 18.2019 23.2361 18.5274C23.2361 18.5274 23.908 16.1725 27.0312 16.6279C27.0312 16.6279 29.0022 16.8218 29.4395 18.9975C29.5736 19.7013 29.5145 20.4274 29.2684 21.1015C28.8032 22.4184 27.7892 25.5142 27.8938 27.2284C27.8938 27.2284 26.0564 25.2527 25.2159 23.2469C25.216 23.2468 26.1705 26.2126 27.2603 27.1955Z" fill="#0B5EBF"/>
<path d="M28.5398 26.6141C28.5398 26.6141 29.8136 17.8801 35.3195 19.0791C37.0709 19.4603 37.895 21.7101 37.5194 22.9697C37.5194 22.9697 39.898 23.7106 39.3254 26.7529C39.3254 26.7529 39.06 28.6771 36.8269 29.0305C36.1051 29.1379 35.3672 29.0556 34.6883 28.7922C33.3589 28.2898 30.237 27.1897 28.4854 27.2336C28.4854 27.2336 30.5631 25.5019 32.6371 24.7473C32.6357 24.7463 29.5791 25.5803 28.5398 26.6141Z" fill="#0B5EBF"/>
<path d="M28.7371 27.9201C28.7371 27.9201 37.6866 28.8681 36.653 34.3025C36.3237 36.0313 34.0589 36.9153 32.7613 36.5898C32.7613 36.5898 32.0894 38.9447 28.9663 38.4893C28.9663 38.4893 26.9953 38.2954 26.5579 36.1197C26.4241 35.416 26.4832 34.6901 26.7292 34.0161C27.1958 32.6971 28.2101 29.601 28.1053 27.8869C28.1053 27.8869 29.9427 29.8625 30.7856 31.8679C30.7816 31.87 29.8276 28.904 28.7371 27.9201Z" fill="#0B5EBF"/>
<path d="M27.4588 28.4994C27.4588 28.4994 26.1845 37.2335 20.6802 36.0344C18.9292 35.6532 18.1047 33.4034 18.4803 32.1439C18.4803 32.1439 16.1021 31.4028 16.6743 28.3607C16.6743 28.3607 16.9397 26.4365 19.1734 26.083C19.8951 25.9756 20.6329 26.0578 21.3116 26.3211C22.6409 26.8234 25.7629 27.9235 27.5141 27.8798C27.5141 27.8798 25.4364 29.6115 23.3624 30.3661C23.3623 30.3661 26.419 29.5331 27.4588 28.4994Z" fill="#0B5EBF"/>
</g>
<path d="M51.28 23.488V25.264C51.5147 25.232 51.7493 25.216 51.984 25.216C53.1253 25.216 54 25.5093 54.608 26.096C55.216 26.6827 55.52 27.4827 55.52 28.496C55.52 29.584 55.1573 30.4587 54.432 31.12C53.7173 31.7707 52.6987 32.096 51.376 32.096C50.2133 32.096 49.2747 31.9093 48.56 31.536V29.328C49.2853 29.776 50.096 30 50.992 30C52.4213 30 53.136 29.488 53.136 28.464C53.136 28.08 52.9867 27.776 52.688 27.552C52.4 27.328 51.9627 27.216 51.376 27.216C50.5547 27.216 49.7653 27.392 49.008 27.744V21.504H54.88V23.488H51.28ZM56.56 26.72C56.56 25.056 56.88 23.7387 57.52 22.768C58.16 21.7973 59.1093 21.312 60.368 21.312C61.6267 21.312 62.576 21.7973 63.216 22.768C63.8667 23.7387 64.192 25.056 64.192 26.72C64.192 28.3627 63.8667 29.6747 63.216 30.656C62.576 31.6373 61.6267 32.128 60.368 32.128C59.1093 32.128 58.16 31.6427 57.52 30.672C56.88 29.6907 56.56 28.3733 56.56 26.72ZM60.368 23.392C59.4187 23.392 58.944 24.5013 58.944 26.72C58.944 28.9387 59.4187 30.048 60.368 30.048C61.328 30.048 61.808 28.9387 61.808 26.72C61.808 24.5013 61.328 23.392 60.368 23.392ZM69.79 32V21.216H72.494L75.006 25.68C75.358 26.3093 75.662 26.9013 75.918 27.456C76.1847 28 76.3553 28.384 76.43 28.608L76.558 28.96C76.4513 28.1707 76.398 27.0773 76.398 25.68V21.216H78.862V32H76.158L73.582 27.536C73.2407 26.96 72.9367 26.3947 72.67 25.84C72.414 25.2747 72.238 24.8587 72.142 24.592L72.014 24.192C72.174 25.152 72.254 26.2667 72.254 27.536V32H69.79ZM87.4263 20.32L85.6503 23.152H83.7143L85.0903 20.32H87.4263ZM85.8903 23.888H88.2263V32H85.8903V30.704C85.4636 31.6107 84.6423 32.064 83.4263 32.064C82.5943 32.064 81.9436 31.8347 81.4743 31.376C81.0156 30.9067 80.7863 30.2187 80.7863 29.312V23.888H83.1223V28.784C83.1223 29.7333 83.5383 30.208 84.3703 30.208C85.3836 30.208 85.8903 29.5307 85.8903 28.176V23.888ZM92.4835 23.888V25.152C92.9315 24.256 93.6942 23.808 94.7715 23.808C95.9128 23.808 96.6702 24.32 97.0435 25.344C97.2248 24.864 97.5288 24.4907 97.9555 24.224C98.3822 23.9467 98.8835 23.808 99.4595 23.808C100.26 23.808 100.889 24.064 101.348 24.576C101.817 25.0773 102.052 25.8187 102.052 26.8V32H99.7155V27.184C99.7155 26.7253 99.6248 26.3627 99.4435 26.096C99.2622 25.8293 99.0008 25.696 98.6595 25.696C98.2968 25.696 97.9715 25.8453 97.6835 26.144C97.4062 26.432 97.2675 26.9547 97.2675 27.712V32H94.9315V27.184C94.9315 26.7253 94.8408 26.3627 94.6595 26.096C94.4782 25.8293 94.2168 25.696 93.8755 25.696C93.5128 25.696 93.1875 25.8453 92.8995 26.144C92.6222 26.432 92.4835 26.9547 92.4835 27.712V32H90.1475V23.888H92.4835ZM108.586 27.2V27.008C108.511 26.0587 108.095 25.584 107.338 25.584C106.964 25.584 106.634 25.7227 106.346 26C106.058 26.2667 105.866 26.6667 105.77 27.2H108.586ZM110.266 29.584V31.536C109.711 31.8987 108.863 32.08 107.722 32.08C106.388 32.08 105.348 31.696 104.602 30.928C103.866 30.1493 103.498 29.152 103.498 27.936C103.498 26.6453 103.855 25.6373 104.57 24.912C105.295 24.176 106.186 23.808 107.242 23.808C108.33 23.808 109.188 24.128 109.818 24.768C110.447 25.3973 110.762 26.3413 110.762 27.6C110.762 27.8453 110.719 28.2667 110.634 28.864H105.866C106.026 29.312 106.303 29.6587 106.698 29.904C107.092 30.1493 107.567 30.272 108.122 30.272C108.943 30.272 109.658 30.0427 110.266 29.584ZM114.749 23.888V25.392C114.898 24.9227 115.143 24.5493 115.485 24.272C115.837 23.984 116.242 23.84 116.701 23.84C116.957 23.84 117.159 23.8613 117.309 23.904V26.112C117.053 25.9947 116.759 25.936 116.429 25.936C115.927 25.936 115.522 26.1227 115.213 26.496C114.903 26.8587 114.749 27.344 114.749 27.952V32H112.413L112.429 23.888H114.749ZM121.935 32.128C120.665 32.128 119.684 31.7493 118.991 30.992C118.297 30.224 117.951 29.2427 117.951 28.048C117.951 26.8 118.313 25.776 119.039 24.976C119.764 24.1653 120.729 23.76 121.935 23.76C123.193 23.76 124.169 24.1493 124.863 24.928C125.556 25.7067 125.903 26.6987 125.903 27.904C125.903 29.1307 125.551 30.144 124.847 30.944C124.153 31.7333 123.183 32.128 121.935 32.128ZM121.919 25.6C121.407 25.6 121.023 25.8187 120.767 26.256C120.511 26.6933 120.383 27.2587 120.383 27.952C120.383 28.6453 120.511 29.216 120.767 29.664C121.033 30.1013 121.428 30.32 121.951 30.32C122.463 30.32 122.841 30.1067 123.087 29.68C123.343 29.2427 123.471 28.6773 123.471 27.984C123.471 26.3947 122.953 25.6 121.919 25.6ZM132.549 24.128V26.128C131.983 25.7973 131.322 25.632 130.565 25.632C130.287 25.632 130.074 25.6907 129.925 25.808C129.775 25.9147 129.701 26.0533 129.701 26.224C129.701 26.32 129.727 26.4107 129.781 26.496C129.834 26.5813 129.919 26.6613 130.037 26.736C130.165 26.8107 130.282 26.88 130.389 26.944C130.506 26.9973 130.661 27.0667 130.853 27.152C131.055 27.2373 131.215 27.312 131.333 27.376C131.823 27.632 132.218 27.9307 132.517 28.272C132.815 28.6027 132.965 29.0293 132.965 29.552C132.965 30.352 132.677 30.9707 132.101 31.408C131.525 31.8453 130.762 32.064 129.813 32.064C128.831 32.064 128.01 31.8987 127.349 31.568V29.488C128.085 30 128.863 30.256 129.685 30.256C130.271 30.256 130.565 30.0693 130.565 29.696C130.565 29.6 130.538 29.5093 130.485 29.424C130.431 29.3387 130.341 29.2587 130.213 29.184C130.085 29.1093 129.967 29.0507 129.861 29.008C129.754 28.9547 129.599 28.8853 129.397 28.8C129.194 28.7147 129.039 28.6453 128.933 28.592C127.855 28.08 127.317 27.312 127.317 26.288C127.317 25.4987 127.615 24.8853 128.213 24.448C128.821 24.0107 129.573 23.792 130.469 23.792C131.301 23.792 131.994 23.904 132.549 24.128Z" fill="black"/>
<path d="M23.884 69.236V76.076H26.512C28.912 76.076 30.112 74.9 30.112 72.548C30.112 71.516 29.8 70.712 29.176 70.136C28.552 69.536 27.7 69.236 26.62 69.236H23.884ZM30.832 89L25.576 80.576H23.884V89H18.34V64.736H26.728C29.44 64.736 31.612 65.456 33.244 66.896C34.9 68.336 35.728 70.208 35.728 72.512C35.728 75.968 34.252 78.356 31.3 79.676L37.456 89H30.832ZM54.2773 65.816V71C52.3333 69.872 50.3173 69.308 48.2293 69.308C47.2933 69.308 46.5733 69.5 46.0693 69.884C45.5893 70.268 45.3493 70.76 45.3493 71.36C45.3493 71.96 45.6493 72.5 46.2493 72.98C46.8493 73.436 47.7493 73.928 48.9493 74.456C49.6933 74.792 50.3053 75.092 50.7853 75.356C51.2893 75.596 51.8533 75.944 52.4773 76.4C53.1253 76.832 53.6293 77.3 53.9893 77.804C54.3733 78.284 54.6973 78.884 54.9613 79.604C55.2253 80.324 55.3573 81.104 55.3573 81.944C55.3573 83.768 54.7693 85.316 53.5933 86.588C52.4413 87.86 50.8693 88.688 48.8773 89.072V93.248H44.5213V89.18C42.5293 88.988 40.8733 88.52 39.5533 87.776V82.196C41.7373 83.78 44.0653 84.572 46.5373 84.572C47.3773 84.572 48.0733 84.356 48.6253 83.924C49.1773 83.468 49.4533 82.88 49.4533 82.16C49.4533 81.92 49.4173 81.692 49.3453 81.476C49.2733 81.26 49.1413 81.056 48.9493 80.864C48.7573 80.672 48.5653 80.516 48.3733 80.396C48.2053 80.252 47.9413 80.096 47.5813 79.928C47.2453 79.736 46.9573 79.58 46.7173 79.46C46.4773 79.34 46.1173 79.172 45.6373 78.956C45.1813 78.74 44.8093 78.572 44.5213 78.452C42.9613 77.732 41.7013 76.844 40.7413 75.788C39.8053 74.732 39.3373 73.328 39.3373 71.576C39.3373 69.728 39.9493 68.192 41.1733 66.968C42.3973 65.72 44.1013 64.964 46.2853 64.7V60.56H50.6773V64.772C51.9493 64.964 53.1493 65.312 54.2773 65.816ZM65.9655 74.672V69.308L72.5895 65.456H77.1255V89H71.9055V71.108L65.9655 74.672ZM85.5093 79.532H90.6933V68.876L85.5093 79.532ZM98.7933 79.532V83.996H95.9133V89H90.6933V83.996H80.3613V79.532L87.5613 65.384H95.9133V79.532H98.7933ZM108.64 76.544C110.08 76.544 111.244 76.004 112.132 74.924C111.844 71.516 110.692 69.812 108.676 69.812C107.74 69.812 106.984 70.112 106.408 70.712C105.856 71.312 105.58 72.152 105.58 73.232C105.58 74.192 105.856 74.984 106.408 75.608C106.96 76.232 107.704 76.544 108.64 76.544ZM101.908 88.604V83.636C103.156 84.236 104.392 84.536 105.616 84.536C107.488 84.536 108.94 84.116 109.972 83.276C111.004 82.412 111.676 81.068 111.988 79.244C110.956 80.276 109.396 80.792 107.308 80.792C105.196 80.792 103.48 80.12 102.16 78.776C100.864 77.408 100.216 75.596 100.216 73.34C100.216 70.988 100.948 69.032 102.412 67.472C103.9 65.912 105.904 65.132 108.424 65.132C111.232 65.132 113.428 66.152 115.012 68.192C116.62 70.208 117.424 72.968 117.424 76.472C117.424 80.768 116.404 83.984 114.364 86.12C112.324 88.232 109.6 89.288 106.192 89.288C104.56 89.288 103.132 89.06 101.908 88.604ZM118.439 93.572L122.075 84.176H127.871L122.975 93.572H118.439ZM138.417 76.544C139.857 76.544 141.021 76.004 141.909 74.924C141.621 71.516 140.469 69.812 138.453 69.812C137.517 69.812 136.761 70.112 136.185 70.712C135.633 71.312 135.357 72.152 135.357 73.232C135.357 74.192 135.633 74.984 136.185 75.608C136.737 76.232 137.481 76.544 138.417 76.544ZM131.685 88.604V83.636C132.933 84.236 134.169 84.536 135.393 84.536C137.265 84.536 138.717 84.116 139.749 83.276C140.781 82.412 141.453 81.068 141.765 79.244C140.733 80.276 139.173 80.792 137.085 80.792C134.973 80.792 133.257 80.12 131.937 78.776C130.641 77.408 129.993 75.596 129.993 73.34C129.993 70.988 130.725 69.032 132.189 67.472C133.677 65.912 135.681 65.132 138.201 65.132C141.009 65.132 143.205 66.152 144.789 68.192C146.397 70.208 147.201 72.968 147.201 76.472C147.201 80.768 146.181 83.984 144.141 86.12C142.101 88.232 139.377 89.288 135.969 89.288C134.337 89.288 132.909 89.06 131.685 88.604ZM149.729 77.12C149.729 73.376 150.449 70.412 151.889 68.228C153.329 66.044 155.465 64.952 158.297 64.952C161.129 64.952 163.265 66.044 164.705 68.228C166.169 70.412 166.901 73.376 166.901 77.12C166.901 80.816 166.169 83.768 164.705 85.976C163.265 88.184 161.129 89.288 158.297 89.288C155.465 89.288 153.329 88.196 151.889 86.012C150.449 83.804 149.729 80.84 149.729 77.12ZM158.297 69.632C156.161 69.632 155.093 72.128 155.093 77.12C155.093 82.112 156.161 84.608 158.297 84.608C160.457 84.608 161.537 82.112 161.537 77.12C161.537 72.128 160.457 69.632 158.297 69.632Z" fill="black"/>
<path opacity="0.7" d="M18.464 109.768V113.212H19.766C20.3633 113.212 20.816 113.058 21.124 112.75C21.432 112.433 21.586 112.013 21.586 111.49C21.586 110.342 20.956 109.768 19.696 109.768H18.464ZM21.922 118L19.71 114.416H18.464V118H17.022V108.564H19.654C20.7367 108.564 21.572 108.83 22.16 109.362C22.748 109.885 23.042 110.599 23.042 111.504C23.0327 112.167 22.8647 112.731 22.538 113.198C22.2113 113.655 21.7587 113.987 21.18 114.192L23.644 118H21.922ZM29.921 108.942V110.37C29.305 109.978 28.5957 109.782 27.793 109.782C27.2797 109.782 26.8784 109.899 26.589 110.132C26.2997 110.356 26.155 110.655 26.155 111.028C26.155 111.233 26.197 111.42 26.281 111.588C26.3744 111.747 26.5284 111.901 26.743 112.05C26.967 112.19 27.1537 112.297 27.303 112.372C27.4617 112.447 27.709 112.559 28.045 112.708C28.3997 112.867 28.689 113.011 28.913 113.142C29.137 113.263 29.3797 113.431 29.641 113.646C29.9024 113.861 30.0937 114.117 30.215 114.416C30.3457 114.705 30.411 115.041 30.411 115.424C30.411 116.18 30.173 116.791 29.697 117.258C29.221 117.715 28.5864 117.986 27.793 118.07V119.568H26.617V118.07C25.8517 117.995 25.203 117.804 24.671 117.496V115.998C25.4084 116.549 26.2624 116.824 27.233 116.824C27.7464 116.824 28.1524 116.707 28.451 116.474C28.759 116.231 28.913 115.9 28.913 115.48C28.913 115.377 28.9037 115.284 28.885 115.2C28.8664 115.107 28.829 115.018 28.773 114.934C28.717 114.85 28.6657 114.78 28.619 114.724C28.5724 114.659 28.493 114.593 28.381 114.528C28.2784 114.453 28.1944 114.397 28.129 114.36C28.073 114.313 27.9704 114.257 27.821 114.192C27.681 114.117 27.5784 114.066 27.513 114.038C27.4477 114.001 27.3264 113.945 27.149 113.87C26.9717 113.795 26.8504 113.744 26.785 113.716C26.1037 113.408 25.5717 113.063 25.189 112.68C24.8064 112.297 24.615 111.77 24.615 111.098C24.615 110.361 24.8624 109.763 25.357 109.306C25.8517 108.849 26.505 108.583 27.317 108.508V107.01H28.507V108.536C29.067 108.62 29.5384 108.755 29.921 108.942ZM36.892 116.81H40.868V118H35.002V116.866C36.178 116.007 37.1674 115.121 37.97 114.206C38.782 113.282 39.188 112.442 39.188 111.686C39.188 111.154 39.034 110.748 38.726 110.468C38.418 110.179 37.9934 110.034 37.452 110.034C36.7054 110.034 35.9727 110.314 35.254 110.874V109.516C35.926 109.003 36.724 108.746 37.648 108.746C38.5067 108.746 39.216 108.989 39.776 109.474C40.336 109.95 40.616 110.631 40.616 111.518C40.616 113.161 39.3747 114.925 36.892 116.81ZM41.3314 119.736L42.6754 116.46H44.3694L42.5354 119.736H41.3314ZM48.403 113.576C49.1123 113.576 49.6863 113.301 50.125 112.75C50.1063 111.901 49.9477 111.229 49.649 110.734C49.3597 110.23 48.921 109.978 48.333 109.978C47.8477 109.978 47.4603 110.141 47.171 110.468C46.8817 110.785 46.737 111.219 46.737 111.77C46.737 112.33 46.8863 112.773 47.185 113.1C47.493 113.417 47.899 113.576 48.403 113.576ZM45.785 117.846V116.516C46.261 116.731 46.765 116.838 47.297 116.838C48.9023 116.838 49.8263 115.886 50.069 113.982C49.621 114.495 48.9537 114.752 48.067 114.752C47.3017 114.752 46.6483 114.481 46.107 113.94C45.575 113.399 45.309 112.685 45.309 111.798C45.309 110.911 45.575 110.179 46.107 109.6C46.639 109.021 47.3623 108.732 48.277 108.732C49.3223 108.732 50.1157 109.119 50.657 109.894C51.2077 110.659 51.483 111.653 51.483 112.876C51.483 114.537 51.1283 115.825 50.419 116.74C49.719 117.655 48.711 118.112 47.395 118.112C46.7977 118.112 46.261 118.023 45.785 117.846ZM55.5671 113.576C56.2764 113.576 56.8504 113.301 57.2891 112.75C57.2704 111.901 57.1117 111.229 56.8131 110.734C56.5237 110.23 56.0851 109.978 55.4971 109.978C55.0117 109.978 54.6244 110.141 54.3351 110.468C54.0457 110.785 53.9011 111.219 53.9011 111.77C53.9011 112.33 54.0504 112.773 54.3491 113.1C54.6571 113.417 55.0631 113.576 55.5671 113.576ZM52.9491 117.846V116.516C53.4251 116.731 53.9291 116.838 54.4611 116.838C56.0664 116.838 56.9904 115.886 57.2331 113.982C56.7851 114.495 56.1177 114.752 55.2311 114.752C54.4657 114.752 53.8124 114.481 53.2711 113.94C52.7391 113.399 52.4731 112.685 52.4731 111.798C52.4731 110.911 52.7391 110.179 53.2711 109.6C53.8031 109.021 54.5264 108.732 55.4411 108.732C56.4864 108.732 57.2797 109.119 57.8211 109.894C58.3717 110.659 58.6471 111.653 58.6471 112.876C58.6471 114.537 58.2924 115.825 57.5831 116.74C56.8831 117.655 55.8751 118.112 54.5591 118.112C53.9617 118.112 53.4251 118.023 52.9491 117.846ZM66.8904 116.894C67.4411 116.894 67.8938 116.679 68.2484 116.25C68.6031 115.811 68.7804 115.2 68.7804 114.416C68.7804 113.679 68.6078 113.095 68.2624 112.666C67.9171 112.227 67.4784 112.008 66.9464 112.008C66.4144 112.008 65.9524 112.204 65.5604 112.596C65.1778 112.979 64.9864 113.59 64.9864 114.43C64.9864 115.251 65.1778 115.867 65.5604 116.278C65.9524 116.689 66.3958 116.894 66.8904 116.894ZM64.9864 110.902V111.994C65.4718 111.201 66.1998 110.804 67.1704 110.804C68.1038 110.804 68.8411 111.145 69.3824 111.826C69.9238 112.498 70.1944 113.357 70.1944 114.402C70.1944 115.475 69.9144 116.362 69.3544 117.062C68.8038 117.753 68.0664 118.098 67.1424 118.098C66.1998 118.098 65.4811 117.706 64.9864 116.922V120.716H63.6144V110.902H64.9864ZM74.7035 118.126C73.6582 118.126 72.8369 117.785 72.2395 117.104C71.6422 116.423 71.3435 115.559 71.3435 114.514C71.3435 113.45 71.6515 112.568 72.2675 111.868C72.8835 111.159 73.6955 110.804 74.7035 110.804C75.7862 110.804 76.6215 111.149 77.2095 111.84C77.7975 112.521 78.0915 113.394 78.0915 114.458C78.0915 115.522 77.7882 116.399 77.1815 117.09C76.5842 117.781 75.7582 118.126 74.7035 118.126ZM74.6895 111.966C74.0829 111.966 73.6115 112.209 73.2755 112.694C72.9395 113.17 72.7715 113.763 72.7715 114.472C72.7715 115.172 72.9442 115.765 73.2895 116.25C73.6349 116.726 74.1062 116.964 74.7035 116.964C75.3382 116.964 75.8189 116.731 76.1455 116.264C76.4815 115.797 76.6495 115.205 76.6495 114.486C76.6495 113.749 76.4909 113.147 76.1735 112.68C75.8562 112.204 75.3615 111.966 74.6895 111.966ZM81.0099 110.902V112.148C81.3552 111.271 81.9759 110.832 82.8719 110.832C83.0025 110.832 83.1472 110.846 83.3059 110.874V112.218C83.1099 112.134 82.8905 112.092 82.6479 112.092C82.1719 112.092 81.7799 112.302 81.4719 112.722C81.1639 113.142 81.0099 113.641 81.0099 114.22V118H79.6379V110.902H81.0099ZM89.1993 110.902V112.12C89.6193 111.243 90.3567 110.804 91.4113 110.804C92.1113 110.804 92.6667 111.019 93.0773 111.448C93.488 111.877 93.6933 112.461 93.6933 113.198V118H92.3213V113.52C92.3213 113.025 92.1953 112.647 91.9433 112.386C91.7007 112.125 91.374 111.994 90.9633 111.994C90.478 111.994 90.0627 112.185 89.7173 112.568C89.372 112.941 89.1993 113.469 89.1993 114.15V118H87.8273V110.902H89.1993ZM100.788 107.92L99.1083 110.188H97.9323L99.2623 107.92H100.788ZM99.9483 110.902H101.32V118H99.9483V116.782C99.5749 117.65 98.8376 118.084 97.7363 118.084C97.0363 118.084 96.4809 117.879 96.0703 117.468C95.6596 117.048 95.4543 116.474 95.4543 115.746V110.902H96.8403V115.41C96.8403 115.895 96.9569 116.269 97.1903 116.53C97.4329 116.782 97.7643 116.908 98.1843 116.908C98.7163 116.908 99.1409 116.721 99.4583 116.348C99.7849 115.975 99.9483 115.447 99.9483 114.766V110.902ZM104.621 110.902V112.036C105.023 111.215 105.69 110.804 106.623 110.804C107.687 110.804 108.369 111.261 108.667 112.176C108.863 111.737 109.148 111.401 109.521 111.168C109.895 110.925 110.315 110.804 110.781 110.804C111.509 110.804 112.06 111.019 112.433 111.448C112.816 111.877 113.007 112.47 113.007 113.226V118H111.635V113.52C111.635 112.503 111.225 111.994 110.403 111.994C109.993 111.994 109.624 112.176 109.297 112.54C108.98 112.904 108.821 113.441 108.821 114.15V118H107.449V113.52C107.449 112.503 107.034 111.994 106.203 111.994C105.802 111.994 105.438 112.176 105.111 112.54C104.785 112.904 104.621 113.441 104.621 114.15V118H103.249V110.902H104.621ZM119.28 113.94V113.688C119.262 113.156 119.117 112.736 118.846 112.428C118.576 112.111 118.188 111.952 117.684 111.952C117.218 111.952 116.816 112.125 116.48 112.47C116.144 112.806 115.934 113.296 115.85 113.94H119.28ZM120.162 116.39V117.622C119.64 117.921 118.949 118.07 118.09 118.07C116.989 118.07 116.112 117.739 115.458 117.076C114.805 116.413 114.478 115.545 114.478 114.472C114.478 113.333 114.777 112.442 115.374 111.798C115.972 111.145 116.732 110.818 117.656 110.818C118.562 110.818 119.28 111.103 119.812 111.672C120.344 112.232 120.61 113.044 120.61 114.108C120.61 114.397 120.582 114.701 120.526 115.018H115.864C115.958 115.634 116.219 116.105 116.648 116.432C117.078 116.759 117.619 116.922 118.272 116.922C119.028 116.922 119.658 116.745 120.162 116.39ZM123.598 110.902V112.148C123.943 111.271 124.564 110.832 125.46 110.832C125.59 110.832 125.735 110.846 125.894 110.874V112.218C125.698 112.134 125.478 112.092 125.236 112.092C124.76 112.092 124.368 112.302 124.06 112.722C123.752 113.142 123.598 113.641 123.598 114.22V118H122.226V110.902H123.598ZM129.938 118.126C128.893 118.126 128.071 117.785 127.474 117.104C126.877 116.423 126.578 115.559 126.578 114.514C126.578 113.45 126.886 112.568 127.502 111.868C128.118 111.159 128.93 110.804 129.938 110.804C131.021 110.804 131.856 111.149 132.444 111.84C133.032 112.521 133.326 113.394 133.326 114.458C133.326 115.522 133.023 116.399 132.416 117.09C131.819 117.781 130.993 118.126 129.938 118.126ZM129.924 111.966C129.317 111.966 128.846 112.209 128.51 112.694C128.174 113.17 128.006 113.763 128.006 114.472C128.006 115.172 128.179 115.765 128.524 116.25C128.869 116.726 129.341 116.964 129.938 116.964C130.573 116.964 131.053 116.731 131.38 116.264C131.716 115.797 131.884 115.205 131.884 114.486C131.884 113.749 131.725 113.147 131.408 112.68C131.091 112.204 130.596 111.966 129.924 111.966Z" fill="black"/>
<rect x="0.5" y="0.5" width="215" height="147" rx="3.5" stroke="black" stroke-opacity="0.1"/>
<defs>
<clipPath id="clip0_302_653">
<rect width="24" height="24" fill="white" transform="translate(16 16)"/>
</clipPath>
</defs>
</svg>
