<svg width="216" height="148" viewBox="0 0 216 148" fill="none" xmlns="http://www.w3.org/2000/svg">
<rect width="216" height="148" rx="4" fill="#F4F4F4"/>
<g clip-path="url(#clip0_302_639)">
<path d="M26.2793 33.8368C26.2793 33.8368 25.1938 39.1958 18.599 39.9261L18.097 37.3598C24.3384 38.9082 26.2793 33.8368 26.2793 33.8368Z" fill="#0B5EBF"/>
<path d="M27.2603 27.1955C27.2603 27.1955 18.3107 26.2474 19.3445 20.8147C19.6738 19.0859 21.9385 18.2019 23.2361 18.5274C23.2361 18.5274 23.908 16.1725 27.0312 16.6279C27.0312 16.6279 29.0022 16.8218 29.4395 18.9975C29.5736 19.7013 29.5145 20.4274 29.2684 21.1015C28.8032 22.4184 27.7892 25.5142 27.8938 27.2284C27.8938 27.2284 26.0564 25.2527 25.2159 23.2469C25.216 23.2468 26.1705 26.2126 27.2603 27.1955Z" fill="#0B5EBF"/>
<path d="M28.5398 26.6141C28.5398 26.6141 29.8136 17.8801 35.3195 19.0791C37.0709 19.4603 37.895 21.7101 37.5194 22.9697C37.5194 22.9697 39.898 23.7106 39.3254 26.7529C39.3254 26.7529 39.06 28.6771 36.8269 29.0305C36.1051 29.1379 35.3672 29.0556 34.6883 28.7922C33.3589 28.2898 30.237 27.1897 28.4854 27.2336C28.4854 27.2336 30.5631 25.5019 32.6371 24.7473C32.6357 24.7463 29.5791 25.5803 28.5398 26.6141Z" fill="#0B5EBF"/>
<path d="M28.7371 27.9201C28.7371 27.9201 37.6866 28.8681 36.653 34.3025C36.3237 36.0313 34.0589 36.9153 32.7613 36.5898C32.7613 36.5898 32.0894 38.9447 28.9663 38.4893C28.9663 38.4893 26.9953 38.2954 26.5579 36.1197C26.4241 35.416 26.4832 34.6901 26.7292 34.0161C27.1958 32.6971 28.2101 29.601 28.1053 27.8869C28.1053 27.8869 29.9427 29.8625 30.7856 31.8679C30.7816 31.87 29.8276 28.904 28.7371 27.9201Z" fill="#0B5EBF"/>
<path d="M27.4588 28.4994C27.4588 28.4994 26.1845 37.2335 20.6802 36.0344C18.9292 35.6532 18.1047 33.4034 18.4803 32.1439C18.4803 32.1439 16.1021 31.4028 16.6743 28.3607C16.6743 28.3607 16.9397 26.4365 19.1734 26.083C19.8951 25.9756 20.6329 26.0578 21.3116 26.3211C22.6409 26.8234 25.7629 27.9235 27.5141 27.8798C27.5141 27.8798 25.4364 29.6115 23.3624 30.3661C23.3623 30.3661 26.419 29.5331 27.4588 28.4994Z" fill="#0B5EBF"/>
</g>
<path d="M51.744 30.016H55.456V32H48.48V30.192C49.632 29.4027 50.6453 28.528 51.52 27.568C52.4053 26.608 52.848 25.76 52.848 25.024C52.848 24.576 52.7147 24.224 52.448 23.968C52.1813 23.7013 51.776 23.568 51.232 23.568C50.3253 23.568 49.4667 23.904 48.656 24.576V22.32C49.008 22.064 49.4667 21.8453 50.032 21.664C50.5973 21.4827 51.152 21.392 51.696 21.392C52.784 21.392 53.648 21.68 54.288 22.256C54.9387 22.8213 55.264 23.616 55.264 24.64C55.264 26.4853 54.0907 28.2773 51.744 30.016ZM59.2956 23.488V25.264C59.5303 25.232 59.765 25.216 59.9996 25.216C61.141 25.216 62.0156 25.5093 62.6236 26.096C63.2316 26.6827 63.5356 27.4827 63.5356 28.496C63.5356 29.584 63.173 30.4587 62.4476 31.12C61.733 31.7707 60.7143 32.096 59.3916 32.096C58.229 32.096 57.2903 31.9093 56.5756 31.536V29.328C57.301 29.776 58.1116 30 59.0076 30C60.437 30 61.1516 29.488 61.1516 28.464C61.1516 28.08 61.0023 27.776 60.7036 27.552C60.4156 27.328 59.9783 27.216 59.3916 27.216C58.5703 27.216 57.781 27.392 57.0236 27.744V21.504H62.8956V23.488H59.2956ZM69.0556 32V21.216H71.7596L74.2716 25.68C74.6236 26.3093 74.9276 26.9013 75.1836 27.456C75.4503 28 75.621 28.384 75.6956 28.608L75.8236 28.96C75.717 28.1707 75.6636 27.0773 75.6636 25.68V21.216H78.1276V32H75.4236L72.8476 27.536C72.5063 26.96 72.2023 26.3947 71.9356 25.84C71.6796 25.2747 71.5036 24.8587 71.4076 24.592L71.2796 24.192C71.4396 25.152 71.5196 26.2667 71.5196 27.536V32H69.0556ZM86.6919 20.32L84.9159 23.152H82.9799L84.3559 20.32H86.6919ZM85.1559 23.888H87.4919V32H85.1559V30.704C84.7292 31.6107 83.9079 32.064 82.6919 32.064C81.8599 32.064 81.2092 31.8347 80.7399 31.376C80.2812 30.9067 80.0519 30.2187 80.0519 29.312V23.888H82.3879V28.784C82.3879 29.7333 82.8039 30.208 83.6359 30.208C84.6492 30.208 85.1559 29.5307 85.1559 28.176V23.888ZM91.7491 23.888V25.152C92.1971 24.256 92.9598 23.808 94.0371 23.808C95.1785 23.808 95.9358 24.32 96.3091 25.344C96.4905 24.864 96.7945 24.4907 97.2211 24.224C97.6478 23.9467 98.1491 23.808 98.7251 23.808C99.5251 23.808 100.154 24.064 100.613 24.576C101.082 25.0773 101.317 25.8187 101.317 26.8V32H98.9811V27.184C98.9811 26.7253 98.8905 26.3627 98.7091 26.096C98.5278 25.8293 98.2665 25.696 97.9251 25.696C97.5625 25.696 97.2371 25.8453 96.9491 26.144C96.6718 26.432 96.5331 26.9547 96.5331 27.712V32H94.1971V27.184C94.1971 26.7253 94.1065 26.3627 93.9251 26.096C93.7438 25.8293 93.4825 25.696 93.1411 25.696C92.7785 25.696 92.4531 25.8453 92.1651 26.144C91.8878 26.432 91.7491 26.9547 91.7491 27.712V32H89.4131V23.888H91.7491ZM107.851 27.2V27.008C107.776 26.0587 107.36 25.584 106.603 25.584C106.23 25.584 105.899 25.7227 105.611 26C105.323 26.2667 105.131 26.6667 105.035 27.2H107.851ZM109.531 29.584V31.536C108.976 31.8987 108.128 32.08 106.987 32.08C105.654 32.08 104.614 31.696 103.867 30.928C103.131 30.1493 102.763 29.152 102.763 27.936C102.763 26.6453 103.12 25.6373 103.835 24.912C104.56 24.176 105.451 23.808 106.507 23.808C107.595 23.808 108.454 24.128 109.083 24.768C109.712 25.3973 110.027 26.3413 110.027 27.6C110.027 27.8453 109.984 28.2667 109.899 28.864H105.131C105.291 29.312 105.568 29.6587 105.963 29.904C106.358 30.1493 106.832 30.272 107.387 30.272C108.208 30.272 108.923 30.0427 109.531 29.584ZM114.014 23.888V25.392C114.164 24.9227 114.409 24.5493 114.75 24.272C115.102 23.984 115.508 23.84 115.966 23.84C116.222 23.84 116.425 23.8613 116.574 23.904V26.112C116.318 25.9947 116.025 25.936 115.694 25.936C115.193 25.936 114.788 26.1227 114.478 26.496C114.169 26.8587 114.014 27.344 114.014 27.952V32H111.678L111.694 23.888H114.014ZM121.2 32.128C119.931 32.128 118.95 31.7493 118.256 30.992C117.563 30.224 117.216 29.2427 117.216 28.048C117.216 26.8 117.579 25.776 118.304 24.976C119.03 24.1653 119.995 23.76 121.2 23.76C122.459 23.76 123.435 24.1493 124.128 24.928C124.822 25.7067 125.168 26.6987 125.168 27.904C125.168 29.1307 124.816 30.144 124.112 30.944C123.419 31.7333 122.448 32.128 121.2 32.128ZM121.184 25.6C120.672 25.6 120.288 25.8187 120.032 26.256C119.776 26.6933 119.648 27.2587 119.648 27.952C119.648 28.6453 119.776 29.216 120.032 29.664C120.299 30.1013 120.694 30.32 121.216 30.32C121.728 30.32 122.107 30.1067 122.352 29.68C122.608 29.2427 122.736 28.6773 122.736 27.984C122.736 26.3947 122.219 25.6 121.184 25.6ZM131.814 24.128V26.128C131.249 25.7973 130.588 25.632 129.83 25.632C129.553 25.632 129.34 25.6907 129.19 25.808C129.041 25.9147 128.966 26.0533 128.966 26.224C128.966 26.32 128.993 26.4107 129.046 26.496C129.1 26.5813 129.185 26.6613 129.302 26.736C129.43 26.8107 129.548 26.88 129.654 26.944C129.772 26.9973 129.926 27.0667 130.118 27.152C130.321 27.2373 130.481 27.312 130.598 27.376C131.089 27.632 131.484 27.9307 131.782 28.272C132.081 28.6027 132.23 29.0293 132.23 29.552C132.23 30.352 131.942 30.9707 131.366 31.408C130.79 31.8453 130.028 32.064 129.078 32.064C128.097 32.064 127.276 31.8987 126.614 31.568V29.488C127.35 30 128.129 30.256 128.95 30.256C129.537 30.256 129.83 30.0693 129.83 29.696C129.83 29.6 129.804 29.5093 129.75 29.424C129.697 29.3387 129.606 29.2587 129.478 29.184C129.35 29.1093 129.233 29.0507 129.126 29.008C129.02 28.9547 128.865 28.8853 128.662 28.8C128.46 28.7147 128.305 28.6453 128.198 28.592C127.121 28.08 126.582 27.312 126.582 26.288C126.582 25.4987 126.881 24.8853 127.478 24.448C128.086 24.0107 128.838 23.792 129.734 23.792C130.566 23.792 131.26 23.904 131.814 24.128Z" fill="black"/>
<path d="M23.884 69.236V76.076H26.512C28.912 76.076 30.112 74.9 30.112 72.548C30.112 71.516 29.8 70.712 29.176 70.136C28.552 69.536 27.7 69.236 26.62 69.236H23.884ZM30.832 89L25.576 80.576H23.884V89H18.34V64.736H26.728C29.44 64.736 31.612 65.456 33.244 66.896C34.9 68.336 35.728 70.208 35.728 72.512C35.728 75.968 34.252 78.356 31.3 79.676L37.456 89H30.832ZM54.2773 65.816V71C52.3333 69.872 50.3173 69.308 48.2293 69.308C47.2933 69.308 46.5733 69.5 46.0693 69.884C45.5893 70.268 45.3493 70.76 45.3493 71.36C45.3493 71.96 45.6493 72.5 46.2493 72.98C46.8493 73.436 47.7493 73.928 48.9493 74.456C49.6933 74.792 50.3053 75.092 50.7853 75.356C51.2893 75.596 51.8533 75.944 52.4773 76.4C53.1253 76.832 53.6293 77.3 53.9893 77.804C54.3733 78.284 54.6973 78.884 54.9613 79.604C55.2253 80.324 55.3573 81.104 55.3573 81.944C55.3573 83.768 54.7693 85.316 53.5933 86.588C52.4413 87.86 50.8693 88.688 48.8773 89.072V93.248H44.5213V89.18C42.5293 88.988 40.8733 88.52 39.5533 87.776V82.196C41.7373 83.78 44.0653 84.572 46.5373 84.572C47.3773 84.572 48.0733 84.356 48.6253 83.924C49.1773 83.468 49.4533 82.88 49.4533 82.16C49.4533 81.92 49.4173 81.692 49.3453 81.476C49.2733 81.26 49.1413 81.056 48.9493 80.864C48.7573 80.672 48.5653 80.516 48.3733 80.396C48.2053 80.252 47.9413 80.096 47.5813 79.928C47.2453 79.736 46.9573 79.58 46.7173 79.46C46.4773 79.34 46.1173 79.172 45.6373 78.956C45.1813 78.74 44.8093 78.572 44.5213 78.452C42.9613 77.732 41.7013 76.844 40.7413 75.788C39.8053 74.732 39.3373 73.328 39.3373 71.576C39.3373 69.728 39.9493 68.192 41.1733 66.968C42.3973 65.72 44.1013 64.964 46.2853 64.7V60.56H50.6773V64.772C51.9493 64.964 53.1493 65.312 54.2773 65.816ZM74.7495 76.544C76.1895 76.544 77.3535 76.004 78.2415 74.924C77.9535 71.516 76.8015 69.812 74.7855 69.812C73.8495 69.812 73.0935 70.112 72.5175 70.712C71.9655 71.312 71.6895 72.152 71.6895 73.232C71.6895 74.192 71.9655 74.984 72.5175 75.608C73.0695 76.232 73.8135 76.544 74.7495 76.544ZM68.0175 88.604V83.636C69.2655 84.236 70.5015 84.536 71.7255 84.536C73.5975 84.536 75.0495 84.116 76.0815 83.276C77.1135 82.412 77.7855 81.068 78.0975 79.244C77.0655 80.276 75.5055 80.792 73.4175 80.792C71.3055 80.792 69.5895 80.12 68.2695 78.776C66.9735 77.408 66.3255 75.596 66.3255 73.34C66.3255 70.988 67.0575 69.032 68.5215 67.472C70.0095 65.912 72.0135 65.132 74.5335 65.132C77.3415 65.132 79.5375 66.152 81.1215 68.192C82.7295 70.208 83.5335 72.968 83.5335 76.472C83.5335 80.768 82.5135 83.984 80.4735 86.12C78.4335 88.232 75.7095 89.288 72.3015 89.288C70.6695 89.288 69.2415 89.06 68.0175 88.604ZM93.9448 76.544C95.3848 76.544 96.5488 76.004 97.4368 74.924C97.1488 71.516 95.9968 69.812 93.9808 69.812C93.0448 69.812 92.2888 70.112 91.7128 70.712C91.1608 71.312 90.8848 72.152 90.8848 73.232C90.8848 74.192 91.1608 74.984 91.7128 75.608C92.2648 76.232 93.0088 76.544 93.9448 76.544ZM87.2128 88.604V83.636C88.4608 84.236 89.6968 84.536 90.9208 84.536C92.7928 84.536 94.2448 84.116 95.2768 83.276C96.3088 82.412 96.9808 81.068 97.2928 79.244C96.2608 80.276 94.7008 80.792 92.6128 80.792C90.5008 80.792 88.7848 80.12 87.4648 78.776C86.1688 77.408 85.5208 75.596 85.5208 73.34C85.5208 70.988 86.2528 69.032 87.7168 67.472C89.2048 65.912 91.2088 65.132 93.7288 65.132C96.5368 65.132 98.7328 66.152 100.317 68.192C101.925 70.208 102.729 72.968 102.729 76.472C102.729 80.768 101.709 83.984 99.6688 86.12C97.6288 88.232 94.9048 89.288 91.4968 89.288C89.8648 89.288 88.4368 89.06 87.2128 88.604ZM103.744 93.572L107.38 84.176H113.176L108.28 93.572H103.744ZM123.722 76.544C125.162 76.544 126.326 76.004 127.214 74.924C126.926 71.516 125.774 69.812 123.758 69.812C122.822 69.812 122.066 70.112 121.49 70.712C120.938 71.312 120.662 72.152 120.662 73.232C120.662 74.192 120.938 74.984 121.49 75.608C122.042 76.232 122.786 76.544 123.722 76.544ZM116.99 88.604V83.636C118.238 84.236 119.474 84.536 120.698 84.536C122.57 84.536 124.022 84.116 125.054 83.276C126.086 82.412 126.758 81.068 127.07 79.244C126.038 80.276 124.478 80.792 122.39 80.792C120.278 80.792 118.562 80.12 117.242 78.776C115.946 77.408 115.298 75.596 115.298 73.34C115.298 70.988 116.03 69.032 117.494 67.472C118.982 65.912 120.986 65.132 123.506 65.132C126.314 65.132 128.51 66.152 130.094 68.192C131.702 70.208 132.506 72.968 132.506 76.472C132.506 80.768 131.486 83.984 129.446 86.12C127.406 88.232 124.682 89.288 121.274 89.288C119.642 89.288 118.214 89.06 116.99 88.604ZM135.033 77.12C135.033 73.376 135.753 70.412 137.193 68.228C138.633 66.044 140.769 64.952 143.601 64.952C146.433 64.952 148.569 66.044 150.009 68.228C151.473 70.412 152.205 73.376 152.205 77.12C152.205 80.816 151.473 83.768 150.009 85.976C148.569 88.184 146.433 89.288 143.601 89.288C140.769 89.288 138.633 88.196 137.193 86.012C135.753 83.804 135.033 80.84 135.033 77.12ZM143.601 69.632C141.465 69.632 140.397 72.128 140.397 77.12C140.397 82.112 141.465 84.608 143.601 84.608C145.761 84.608 146.841 82.112 146.841 77.12C146.841 72.128 145.761 69.632 143.601 69.632Z" fill="black"/>
<path opacity="0.7" d="M18.464 109.768V113.212H19.766C20.3633 113.212 20.816 113.058 21.124 112.75C21.432 112.433 21.586 112.013 21.586 111.49C21.586 110.342 20.956 109.768 19.696 109.768H18.464ZM21.922 118L19.71 114.416H18.464V118H17.022V108.564H19.654C20.7367 108.564 21.572 108.83 22.16 109.362C22.748 109.885 23.042 110.599 23.042 111.504C23.0327 112.167 22.8647 112.731 22.538 113.198C22.2113 113.655 21.7587 113.987 21.18 114.192L23.644 118H21.922ZM29.921 108.942V110.37C29.305 109.978 28.5957 109.782 27.793 109.782C27.2797 109.782 26.8784 109.899 26.589 110.132C26.2997 110.356 26.155 110.655 26.155 111.028C26.155 111.233 26.197 111.42 26.281 111.588C26.3744 111.747 26.5284 111.901 26.743 112.05C26.967 112.19 27.1537 112.297 27.303 112.372C27.4617 112.447 27.709 112.559 28.045 112.708C28.3997 112.867 28.689 113.011 28.913 113.142C29.137 113.263 29.3797 113.431 29.641 113.646C29.9024 113.861 30.0937 114.117 30.215 114.416C30.3457 114.705 30.411 115.041 30.411 115.424C30.411 116.18 30.173 116.791 29.697 117.258C29.221 117.715 28.5864 117.986 27.793 118.07V119.568H26.617V118.07C25.8517 117.995 25.203 117.804 24.671 117.496V115.998C25.4084 116.549 26.2624 116.824 27.233 116.824C27.7464 116.824 28.1524 116.707 28.451 116.474C28.759 116.231 28.913 115.9 28.913 115.48C28.913 115.377 28.9037 115.284 28.885 115.2C28.8664 115.107 28.829 115.018 28.773 114.934C28.717 114.85 28.6657 114.78 28.619 114.724C28.5724 114.659 28.493 114.593 28.381 114.528C28.2784 114.453 28.1944 114.397 28.129 114.36C28.073 114.313 27.9704 114.257 27.821 114.192C27.681 114.117 27.5784 114.066 27.513 114.038C27.4477 114.001 27.3264 113.945 27.149 113.87C26.9717 113.795 26.8504 113.744 26.785 113.716C26.1037 113.408 25.5717 113.063 25.189 112.68C24.8064 112.297 24.615 111.77 24.615 111.098C24.615 110.361 24.8624 109.763 25.357 109.306C25.8517 108.849 26.505 108.583 27.317 108.508V107.01H28.507V108.536C29.067 108.62 29.5384 108.755 29.921 108.942ZM35.296 110.58V109.25C35.8747 108.914 36.5187 108.746 37.228 108.746C38.1614 108.746 38.8894 108.979 39.412 109.446C39.944 109.903 40.21 110.482 40.21 111.182C40.21 111.686 40.084 112.129 39.832 112.512C39.5894 112.885 39.2254 113.17 38.74 113.366C39.272 113.497 39.6874 113.744 39.986 114.108C40.2847 114.472 40.434 114.929 40.434 115.48C40.434 116.236 40.1634 116.861 39.622 117.356C39.0807 117.841 38.32 118.084 37.34 118.084C36.416 118.084 35.6367 117.925 35.002 117.608V116.264C35.6927 116.637 36.4487 116.824 37.27 116.824C37.8207 116.824 38.25 116.689 38.558 116.418C38.8754 116.138 39.034 115.783 39.034 115.354C39.034 114.906 38.8614 114.561 38.516 114.318C38.1707 114.075 37.6527 113.954 36.962 113.954H36.402V112.778H36.962C37.4754 112.778 37.9047 112.652 38.25 112.4C38.6047 112.139 38.782 111.784 38.782 111.336C38.782 110.888 38.6374 110.552 38.348 110.328C38.068 110.104 37.6807 109.992 37.186 109.992C36.5514 109.992 35.9214 110.188 35.296 110.58ZM40.9759 119.736L42.3199 116.46H44.0139L42.1799 119.736H40.9759ZM48.0475 113.576C48.7569 113.576 49.3309 113.301 49.7695 112.75C49.7509 111.901 49.5922 111.229 49.2935 110.734C49.0042 110.23 48.5655 109.978 47.9775 109.978C47.4922 109.978 47.1049 110.141 46.8155 110.468C46.5262 110.785 46.3815 111.219 46.3815 111.77C46.3815 112.33 46.5309 112.773 46.8295 113.1C47.1375 113.417 47.5435 113.576 48.0475 113.576ZM45.4295 117.846V116.516C45.9055 116.731 46.4095 116.838 46.9415 116.838C48.5469 116.838 49.4709 115.886 49.7135 113.982C49.2655 114.495 48.5982 114.752 47.7115 114.752C46.9462 114.752 46.2929 114.481 45.7515 113.94C45.2195 113.399 44.9535 112.685 44.9535 111.798C44.9535 110.911 45.2195 110.179 45.7515 109.6C46.2835 109.021 47.0069 108.732 47.9215 108.732C48.9669 108.732 49.7602 109.119 50.3015 109.894C50.8522 110.659 51.1275 111.653 51.1275 112.876C51.1275 114.537 50.7729 115.825 50.0635 116.74C49.3635 117.655 48.3555 118.112 47.0395 118.112C46.4422 118.112 45.9055 118.023 45.4295 117.846ZM55.2116 113.576C55.9209 113.576 56.4949 113.301 56.9336 112.75C56.9149 111.901 56.7563 111.229 56.4576 110.734C56.1683 110.23 55.7296 109.978 55.1416 109.978C54.6563 109.978 54.2689 110.141 53.9796 110.468C53.6903 110.785 53.5456 111.219 53.5456 111.77C53.5456 112.33 53.6949 112.773 53.9936 113.1C54.3016 113.417 54.7076 113.576 55.2116 113.576ZM52.5936 117.846V116.516C53.0696 116.731 53.5736 116.838 54.1056 116.838C55.7109 116.838 56.6349 115.886 56.8776 113.982C56.4296 114.495 55.7623 114.752 54.8756 114.752C54.1103 114.752 53.4569 114.481 52.9156 113.94C52.3836 113.399 52.1176 112.685 52.1176 111.798C52.1176 110.911 52.3836 110.179 52.9156 109.6C53.4476 109.021 54.1709 108.732 55.0856 108.732C56.1309 108.732 56.9243 109.119 57.4656 109.894C58.0163 110.659 58.2916 111.653 58.2916 112.876C58.2916 114.537 57.9369 115.825 57.2276 116.74C56.5276 117.655 55.5196 118.112 54.2036 118.112C53.6063 118.112 53.0696 118.023 52.5936 117.846ZM66.535 116.894C67.0856 116.894 67.5383 116.679 67.893 116.25C68.2476 115.811 68.425 115.2 68.425 114.416C68.425 113.679 68.2523 113.095 67.907 112.666C67.5616 112.227 67.123 112.008 66.591 112.008C66.059 112.008 65.597 112.204 65.205 112.596C64.8223 112.979 64.631 113.59 64.631 114.43C64.631 115.251 64.8223 115.867 65.205 116.278C65.597 116.689 66.0403 116.894 66.535 116.894ZM64.631 110.902V111.994C65.1163 111.201 65.8443 110.804 66.815 110.804C67.7483 110.804 68.4856 111.145 69.027 111.826C69.5683 112.498 69.839 113.357 69.839 114.402C69.839 115.475 69.559 116.362 68.999 117.062C68.4483 117.753 67.711 118.098 66.787 118.098C65.8443 118.098 65.1256 117.706 64.631 116.922V120.716H63.259V110.902H64.631ZM74.3481 118.126C73.3027 118.126 72.4814 117.785 71.8841 117.104C71.2867 116.423 70.9881 115.559 70.9881 114.514C70.9881 113.45 71.2961 112.568 71.9121 111.868C72.5281 111.159 73.3401 110.804 74.3481 110.804C75.4307 110.804 76.2661 111.149 76.8541 111.84C77.4421 112.521 77.7361 113.394 77.7361 114.458C77.7361 115.522 77.4327 116.399 76.8261 117.09C76.2287 117.781 75.4027 118.126 74.3481 118.126ZM74.3341 111.966C73.7274 111.966 73.2561 112.209 72.9201 112.694C72.5841 113.17 72.4161 113.763 72.4161 114.472C72.4161 115.172 72.5887 115.765 72.9341 116.25C73.2794 116.726 73.7507 116.964 74.3481 116.964C74.9827 116.964 75.4634 116.731 75.7901 116.264C76.1261 115.797 76.2941 115.205 76.2941 114.486C76.2941 113.749 76.1354 113.147 75.8181 112.68C75.5007 112.204 75.0061 111.966 74.3341 111.966ZM80.6544 110.902V112.148C80.9997 111.271 81.6204 110.832 82.5164 110.832C82.6471 110.832 82.7917 110.846 82.9504 110.874V112.218C82.7544 112.134 82.5351 112.092 82.2924 112.092C81.8164 112.092 81.4244 112.302 81.1164 112.722C80.8084 113.142 80.6544 113.641 80.6544 114.22V118H79.2824V110.902H80.6544ZM88.8439 110.902V112.12C89.2639 111.243 90.0012 110.804 91.0559 110.804C91.7559 110.804 92.3112 111.019 92.7219 111.448C93.1325 111.877 93.3379 112.461 93.3379 113.198V118H91.9659V113.52C91.9659 113.025 91.8399 112.647 91.5879 112.386C91.3452 112.125 91.0185 111.994 90.6079 111.994C90.1225 111.994 89.7072 112.185 89.3619 112.568C89.0165 112.941 88.8439 113.469 88.8439 114.15V118H87.4719V110.902H88.8439ZM100.433 107.92L98.7528 110.188H97.5768L98.9068 107.92H100.433ZM99.5928 110.902H100.965V118H99.5928V116.782C99.2195 117.65 98.4821 118.084 97.3808 118.084C96.6808 118.084 96.1255 117.879 95.7148 117.468C95.3041 117.048 95.0988 116.474 95.0988 115.746V110.902H96.4848V115.41C96.4848 115.895 96.6015 116.269 96.8348 116.53C97.0775 116.782 97.4088 116.908 97.8288 116.908C98.3608 116.908 98.7855 116.721 99.1028 116.348C99.4295 115.975 99.5928 115.447 99.5928 114.766V110.902ZM104.266 110.902V112.036C104.667 111.215 105.334 110.804 106.268 110.804C107.332 110.804 108.013 111.261 108.312 112.176C108.508 111.737 108.792 111.401 109.166 111.168C109.539 110.925 109.959 110.804 110.426 110.804C111.154 110.804 111.704 111.019 112.078 111.448C112.46 111.877 112.652 112.47 112.652 113.226V118H111.28V113.52C111.28 112.503 110.869 111.994 110.048 111.994C109.637 111.994 109.268 112.176 108.942 112.54C108.624 112.904 108.466 113.441 108.466 114.15V118H107.094V113.52C107.094 112.503 106.678 111.994 105.848 111.994C105.446 111.994 105.082 112.176 104.756 112.54C104.429 112.904 104.266 113.441 104.266 114.15V118H102.894V110.902H104.266ZM118.925 113.94V113.688C118.906 113.156 118.761 112.736 118.491 112.428C118.22 112.111 117.833 111.952 117.329 111.952C116.862 111.952 116.461 112.125 116.125 112.47C115.789 112.806 115.579 113.296 115.495 113.94H118.925ZM119.807 116.39V117.622C119.284 117.921 118.593 118.07 117.735 118.07C116.633 118.07 115.756 117.739 115.103 117.076C114.449 116.413 114.123 115.545 114.123 114.472C114.123 113.333 114.421 112.442 115.019 111.798C115.616 111.145 116.377 110.818 117.301 110.818C118.206 110.818 118.925 111.103 119.457 111.672C119.989 112.232 120.255 113.044 120.255 114.108C120.255 114.397 120.227 114.701 120.171 115.018H115.509C115.602 115.634 115.863 116.105 116.293 116.432C116.722 116.759 117.263 116.922 117.917 116.922C118.673 116.922 119.303 116.745 119.807 116.39ZM123.242 110.902V112.148C123.588 111.271 124.208 110.832 125.104 110.832C125.235 110.832 125.38 110.846 125.538 110.874V112.218C125.342 112.134 125.123 112.092 124.88 112.092C124.404 112.092 124.012 112.302 123.704 112.722C123.396 113.142 123.242 113.641 123.242 114.22V118H121.87V110.902H123.242ZM129.582 118.126C128.537 118.126 127.716 117.785 127.118 117.104C126.521 116.423 126.222 115.559 126.222 114.514C126.222 113.45 126.53 112.568 127.146 111.868C127.762 111.159 128.574 110.804 129.582 110.804C130.665 110.804 131.5 111.149 132.088 111.84C132.676 112.521 132.97 113.394 132.97 114.458C132.97 115.522 132.667 116.399 132.06 117.09C131.463 117.781 130.637 118.126 129.582 118.126ZM129.568 111.966C128.962 111.966 128.49 112.209 128.154 112.694C127.818 113.17 127.65 113.763 127.65 114.472C127.65 115.172 127.823 115.765 128.168 116.25C128.514 116.726 128.985 116.964 129.582 116.964C130.217 116.964 130.698 116.731 131.024 116.264C131.36 115.797 131.528 115.205 131.528 114.486C131.528 113.749 131.37 113.147 131.052 112.68C130.735 112.204 130.24 111.966 129.568 111.966Z" fill="black"/>
<rect x="0.5" y="0.5" width="215" height="147" rx="3.5" stroke="black" stroke-opacity="0.1"/>
<defs>
<clipPath id="clip0_302_639">
<rect width="24" height="24" fill="white" transform="translate(16 16)"/>
</clipPath>
</defs>
</svg>
