<svg width="216" height="148" viewBox="0 0 216 148" fill="none" xmlns="http://www.w3.org/2000/svg">
<rect width="216" height="148" rx="4" fill="#F4F4F4"/>
<g clip-path="url(#clip0_302_261)">
<path d="M26.2793 33.8368C26.2793 33.8368 25.1938 39.1958 18.599 39.9261L18.097 37.3598C24.3384 38.9082 26.2793 33.8368 26.2793 33.8368Z" fill="#0B5EBF"/>
<path d="M27.2603 27.1955C27.2603 27.1955 18.3107 26.2474 19.3445 20.8147C19.6738 19.0859 21.9385 18.2019 23.2361 18.5274C23.2361 18.5274 23.908 16.1725 27.0312 16.6279C27.0312 16.6279 29.0022 16.8218 29.4395 18.9975C29.5736 19.7013 29.5145 20.4274 29.2684 21.1015C28.8032 22.4184 27.7892 25.5142 27.8938 27.2284C27.8938 27.2284 26.0564 25.2527 25.2159 23.2469C25.216 23.2468 26.1705 26.2126 27.2603 27.1955Z" fill="#0B5EBF"/>
<path d="M28.5398 26.6141C28.5398 26.6141 29.8136 17.8801 35.3195 19.0791C37.0709 19.4603 37.895 21.7101 37.5194 22.9697C37.5194 22.9697 39.898 23.7106 39.3254 26.7529C39.3254 26.7529 39.06 28.6771 36.8269 29.0305C36.1051 29.1379 35.3672 29.0556 34.6883 28.7922C33.3589 28.2898 30.237 27.1897 28.4854 27.2336C28.4854 27.2336 30.5631 25.5019 32.6371 24.7473C32.6357 24.7463 29.5791 25.5803 28.5398 26.6141Z" fill="#0B5EBF"/>
<path d="M28.7371 27.9201C28.7371 27.9201 37.6866 28.8681 36.653 34.3025C36.3237 36.0313 34.0589 36.9153 32.7613 36.5898C32.7613 36.5898 32.0894 38.9447 28.9663 38.4893C28.9663 38.4893 26.9953 38.2954 26.5579 36.1197C26.4241 35.416 26.4832 34.6901 26.7292 34.0161C27.1958 32.6971 28.2101 29.601 28.1053 27.8869C28.1053 27.8869 29.9427 29.8625 30.7856 31.8679C30.7816 31.87 29.8276 28.904 28.7371 27.9201Z" fill="#0B5EBF"/>
<path d="M27.4588 28.4994C27.4588 28.4994 26.1845 37.2335 20.6802 36.0344C18.9292 35.6532 18.1047 33.4034 18.4803 32.1439C18.4803 32.1439 16.1021 31.4028 16.6743 28.3607C16.6743 28.3607 16.9397 26.4365 19.1734 26.083C19.8951 25.9756 20.6329 26.0578 21.3116 26.3211C22.6409 26.8234 25.7629 27.9235 27.5141 27.8798C27.5141 27.8798 25.4364 29.6115 23.3624 30.3661C23.3623 30.3661 26.419 29.5331 27.4588 28.4994Z" fill="#0B5EBF"/>
</g>
<path d="M48.56 26.72C48.56 25.056 48.88 23.7387 49.52 22.768C50.16 21.7973 51.1093 21.312 52.368 21.312C53.6267 21.312 54.576 21.7973 55.216 22.768C55.8667 23.7387 56.192 25.056 56.192 26.72C56.192 28.3627 55.8667 29.6747 55.216 30.656C54.576 31.6373 53.6267 32.128 52.368 32.128C51.1093 32.128 50.16 31.6427 49.52 30.672C48.88 29.6907 48.56 28.3733 48.56 26.72ZM52.368 23.392C51.4187 23.392 50.944 24.5013 50.944 26.72C50.944 28.9387 51.4187 30.048 52.368 30.048C53.328 30.048 53.808 28.9387 53.808 26.72C53.808 24.5013 53.328 23.392 52.368 23.392ZM57.646 24.16V21.984C58.4353 21.5893 59.23 21.392 60.03 21.392C61.1607 21.392 62.0567 21.664 62.718 22.208C63.3793 22.7413 63.71 23.44 63.71 24.304C63.71 25.488 63.1713 26.304 62.094 26.752C63.31 27.04 63.918 27.8293 63.918 29.12C63.918 30.016 63.5767 30.736 62.894 31.28C62.222 31.8133 61.278 32.08 60.062 32.08C58.9207 32.08 57.9767 31.8987 57.23 31.536V29.296C58.0833 29.7653 58.9633 30 59.87 30C60.3927 30 60.798 29.888 61.086 29.664C61.3847 29.44 61.534 29.1573 61.534 28.816C61.534 28.0373 60.814 27.648 59.374 27.648H58.814V25.728H59.374C59.9393 25.728 60.4033 25.632 60.766 25.44C61.1287 25.248 61.31 24.96 61.31 24.576C61.31 23.84 60.83 23.472 59.87 23.472C59.134 23.472 58.3927 23.7013 57.646 24.16ZM69.5244 32V21.216H72.2284L74.7404 25.68C75.0924 26.3093 75.3964 26.9013 75.6524 27.456C75.919 28 76.0897 28.384 76.1644 28.608L76.2924 28.96C76.1857 28.1707 76.1324 27.0773 76.1324 25.68V21.216H78.5964V32H75.8924L73.3164 27.536C72.975 26.96 72.671 26.3947 72.4044 25.84C72.1484 25.2747 71.9724 24.8587 71.8764 24.592L71.7484 24.192C71.9084 25.152 71.9884 26.2667 71.9884 27.536V32H69.5244ZM87.1606 20.32L85.3846 23.152H83.4486L84.8246 20.32H87.1606ZM85.6246 23.888H87.9606V32H85.6246V30.704C85.198 31.6107 84.3766 32.064 83.1606 32.064C82.3286 32.064 81.678 31.8347 81.2086 31.376C80.75 30.9067 80.5206 30.2187 80.5206 29.312V23.888H82.8566V28.784C82.8566 29.7333 83.2726 30.208 84.1046 30.208C85.118 30.208 85.6246 29.5307 85.6246 28.176V23.888ZM92.2179 23.888V25.152C92.6659 24.256 93.4285 23.808 94.5059 23.808C95.6472 23.808 96.4045 24.32 96.7779 25.344C96.9592 24.864 97.2632 24.4907 97.6899 24.224C98.1165 23.9467 98.6179 23.808 99.1939 23.808C99.9939 23.808 100.623 24.064 101.082 24.576C101.551 25.0773 101.786 25.8187 101.786 26.8V32H99.4499V27.184C99.4499 26.7253 99.3592 26.3627 99.1779 26.096C98.9965 25.8293 98.7352 25.696 98.3939 25.696C98.0312 25.696 97.7059 25.8453 97.4179 26.144C97.1405 26.432 97.0019 26.9547 97.0019 27.712V32H94.6659V27.184C94.6659 26.7253 94.5752 26.3627 94.3939 26.096C94.2125 25.8293 93.9512 25.696 93.6099 25.696C93.2472 25.696 92.9219 25.8453 92.6339 26.144C92.3565 26.432 92.2179 26.9547 92.2179 27.712V32H89.8819V23.888H92.2179ZM108.32 27.2V27.008C108.245 26.0587 107.829 25.584 107.072 25.584C106.699 25.584 106.368 25.7227 106.08 26C105.792 26.2667 105.6 26.6667 105.504 27.2H108.32ZM110 29.584V31.536C109.445 31.8987 108.597 32.08 107.456 32.08C106.123 32.08 105.083 31.696 104.336 30.928C103.6 30.1493 103.232 29.152 103.232 27.936C103.232 26.6453 103.589 25.6373 104.304 24.912C105.029 24.176 105.92 23.808 106.976 23.808C108.064 23.808 108.923 24.128 109.552 24.768C110.181 25.3973 110.496 26.3413 110.496 27.6C110.496 27.8453 110.453 28.2667 110.368 28.864H105.6C105.76 29.312 106.037 29.6587 106.432 29.904C106.827 30.1493 107.301 30.272 107.856 30.272C108.677 30.272 109.392 30.0427 110 29.584ZM114.483 23.888V25.392C114.632 24.9227 114.878 24.5493 115.219 24.272C115.571 23.984 115.976 23.84 116.435 23.84C116.691 23.84 116.894 23.8613 117.043 23.904V26.112C116.787 25.9947 116.494 25.936 116.163 25.936C115.662 25.936 115.256 26.1227 114.947 26.496C114.638 26.8587 114.483 27.344 114.483 27.952V32H112.147L112.163 23.888H114.483ZM121.669 32.128C120.4 32.128 119.418 31.7493 118.725 30.992C118.032 30.224 117.685 29.2427 117.685 28.048C117.685 26.8 118.048 25.776 118.773 24.976C119.498 24.1653 120.464 23.76 121.669 23.76C122.928 23.76 123.904 24.1493 124.597 24.928C125.29 25.7067 125.637 26.6987 125.637 27.904C125.637 29.1307 125.285 30.144 124.581 30.944C123.888 31.7333 122.917 32.128 121.669 32.128ZM121.653 25.6C121.141 25.6 120.757 25.8187 120.501 26.256C120.245 26.6933 120.117 27.2587 120.117 27.952C120.117 28.6453 120.245 29.216 120.501 29.664C120.768 30.1013 121.162 30.32 121.685 30.32C122.197 30.32 122.576 30.1067 122.821 29.68C123.077 29.2427 123.205 28.6773 123.205 27.984C123.205 26.3947 122.688 25.6 121.653 25.6ZM132.283 24.128V26.128C131.718 25.7973 131.056 25.632 130.299 25.632C130.022 25.632 129.808 25.6907 129.659 25.808C129.51 25.9147 129.435 26.0533 129.435 26.224C129.435 26.32 129.462 26.4107 129.515 26.496C129.568 26.5813 129.654 26.6613 129.771 26.736C129.899 26.8107 130.016 26.88 130.123 26.944C130.24 26.9973 130.395 27.0667 130.587 27.152C130.79 27.2373 130.95 27.312 131.067 27.376C131.558 27.632 131.952 27.9307 132.251 28.272C132.55 28.6027 132.699 29.0293 132.699 29.552C132.699 30.352 132.411 30.9707 131.835 31.408C131.259 31.8453 130.496 32.064 129.547 32.064C128.566 32.064 127.744 31.8987 127.083 31.568V29.488C127.819 30 128.598 30.256 129.419 30.256C130.006 30.256 130.299 30.0693 130.299 29.696C130.299 29.6 130.272 29.5093 130.219 29.424C130.166 29.3387 130.075 29.2587 129.947 29.184C129.819 29.1093 129.702 29.0507 129.595 29.008C129.488 28.9547 129.334 28.8853 129.131 28.8C128.928 28.7147 128.774 28.6453 128.667 28.592C127.59 28.08 127.051 27.312 127.051 26.288C127.051 25.4987 127.35 24.8853 127.947 24.448C128.555 24.0107 129.307 23.792 130.203 23.792C131.035 23.792 131.728 23.904 132.283 24.128Z" fill="black"/>
<path d="M23.884 69.236V76.076H26.512C28.912 76.076 30.112 74.9 30.112 72.548C30.112 71.516 29.8 70.712 29.176 70.136C28.552 69.536 27.7 69.236 26.62 69.236H23.884ZM30.832 89L25.576 80.576H23.884V89H18.34V64.736H26.728C29.44 64.736 31.612 65.456 33.244 66.896C34.9 68.336 35.728 70.208 35.728 72.512C35.728 75.968 34.252 78.356 31.3 79.676L37.456 89H30.832ZM54.2773 65.816V71C52.3333 69.872 50.3173 69.308 48.2293 69.308C47.2933 69.308 46.5733 69.5 46.0693 69.884C45.5893 70.268 45.3493 70.76 45.3493 71.36C45.3493 71.96 45.6493 72.5 46.2493 72.98C46.8493 73.436 47.7493 73.928 48.9493 74.456C49.6933 74.792 50.3053 75.092 50.7853 75.356C51.2893 75.596 51.8533 75.944 52.4773 76.4C53.1253 76.832 53.6293 77.3 53.9893 77.804C54.3733 78.284 54.6973 78.884 54.9613 79.604C55.2253 80.324 55.3573 81.104 55.3573 81.944C55.3573 83.768 54.7693 85.316 53.5933 86.588C52.4413 87.86 50.8693 88.688 48.8773 89.072V93.248H44.5213V89.18C42.5293 88.988 40.8733 88.52 39.5533 87.776V82.196C41.7373 83.78 44.0653 84.572 46.5373 84.572C47.3773 84.572 48.0733 84.356 48.6253 83.924C49.1773 83.468 49.4533 82.88 49.4533 82.16C49.4533 81.92 49.4173 81.692 49.3453 81.476C49.2733 81.26 49.1413 81.056 48.9493 80.864C48.7573 80.672 48.5653 80.516 48.3733 80.396C48.2053 80.252 47.9413 80.096 47.5813 79.928C47.2453 79.736 46.9573 79.58 46.7173 79.46C46.4773 79.34 46.1173 79.172 45.6373 78.956C45.1813 78.74 44.8093 78.572 44.5213 78.452C42.9613 77.732 41.7013 76.844 40.7413 75.788C39.8053 74.732 39.3373 73.328 39.3373 71.576C39.3373 69.728 39.9493 68.192 41.1733 66.968C42.3973 65.72 44.1013 64.964 46.2853 64.7V60.56H50.6773V64.772C51.9493 64.964 53.1493 65.312 54.2773 65.816ZM74.0295 84.536H82.3815V89H66.6855V84.932C69.2775 83.156 71.5575 81.188 73.5255 79.028C75.5175 76.868 76.5135 74.96 76.5135 73.304C76.5135 72.296 76.2135 71.504 75.6135 70.928C75.0135 70.328 74.1015 70.028 72.8775 70.028C70.8375 70.028 68.9055 70.784 67.0815 72.296V67.22C67.8735 66.644 68.9055 66.152 70.1775 65.744C71.4495 65.336 72.6975 65.132 73.9215 65.132C76.3695 65.132 78.3135 65.78 79.7535 67.076C81.2175 68.348 81.9495 70.136 81.9495 72.44C81.9495 76.592 79.3095 80.624 74.0295 84.536ZM89.8686 79.532H95.0526V68.876L89.8686 79.532ZM103.153 79.532V83.996H100.273V89H95.0526V83.996H84.7206V79.532L91.9206 65.384H100.273V79.532H103.153ZM103.603 93.572L107.239 84.176H113.035L108.139 93.572H103.603ZM123.582 76.544C125.022 76.544 126.186 76.004 127.074 74.924C126.786 71.516 125.634 69.812 123.618 69.812C122.682 69.812 121.926 70.112 121.35 70.712C120.798 71.312 120.522 72.152 120.522 73.232C120.522 74.192 120.798 74.984 121.35 75.608C121.902 76.232 122.646 76.544 123.582 76.544ZM116.85 88.604V83.636C118.098 84.236 119.334 84.536 120.558 84.536C122.43 84.536 123.882 84.116 124.914 83.276C125.946 82.412 126.618 81.068 126.93 79.244C125.898 80.276 124.338 80.792 122.25 80.792C120.138 80.792 118.422 80.12 117.102 78.776C115.806 77.408 115.158 75.596 115.158 73.34C115.158 70.988 115.89 69.032 117.354 67.472C118.842 65.912 120.846 65.132 123.366 65.132C126.174 65.132 128.37 66.152 129.954 68.192C131.562 70.208 132.366 72.968 132.366 76.472C132.366 80.768 131.346 83.984 129.306 86.12C127.266 88.232 124.542 89.288 121.134 89.288C119.502 89.288 118.074 89.06 116.85 88.604ZM134.893 77.12C134.893 73.376 135.613 70.412 137.053 68.228C138.493 66.044 140.629 64.952 143.461 64.952C146.293 64.952 148.429 66.044 149.869 68.228C151.333 70.412 152.065 73.376 152.065 77.12C152.065 80.816 151.333 83.768 149.869 85.976C148.429 88.184 146.293 89.288 143.461 89.288C140.629 89.288 138.493 88.196 137.053 86.012C135.613 83.804 134.893 80.84 134.893 77.12ZM143.461 69.632C141.325 69.632 140.257 72.128 140.257 77.12C140.257 82.112 141.325 84.608 143.461 84.608C145.621 84.608 146.701 82.112 146.701 77.12C146.701 72.128 145.621 69.632 143.461 69.632Z" fill="black"/>
<path opacity="0.7" d="M18.464 109.768V113.212H19.766C20.3633 113.212 20.816 113.058 21.124 112.75C21.432 112.433 21.586 112.013 21.586 111.49C21.586 110.342 20.956 109.768 19.696 109.768H18.464ZM21.922 118L19.71 114.416H18.464V118H17.022V108.564H19.654C20.7367 108.564 21.572 108.83 22.16 109.362C22.748 109.885 23.042 110.599 23.042 111.504C23.0327 112.167 22.8647 112.731 22.538 113.198C22.2113 113.655 21.7587 113.987 21.18 114.192L23.644 118H21.922ZM29.921 108.942V110.37C29.305 109.978 28.5957 109.782 27.793 109.782C27.2797 109.782 26.8784 109.899 26.589 110.132C26.2997 110.356 26.155 110.655 26.155 111.028C26.155 111.233 26.197 111.42 26.281 111.588C26.3744 111.747 26.5284 111.901 26.743 112.05C26.967 112.19 27.1537 112.297 27.303 112.372C27.4617 112.447 27.709 112.559 28.045 112.708C28.3997 112.867 28.689 113.011 28.913 113.142C29.137 113.263 29.3797 113.431 29.641 113.646C29.9024 113.861 30.0937 114.117 30.215 114.416C30.3457 114.705 30.411 115.041 30.411 115.424C30.411 116.18 30.173 116.791 29.697 117.258C29.221 117.715 28.5864 117.986 27.793 118.07V119.568H26.617V118.07C25.8517 117.995 25.203 117.804 24.671 117.496V115.998C25.4084 116.549 26.2624 116.824 27.233 116.824C27.7464 116.824 28.1524 116.707 28.451 116.474C28.759 116.231 28.913 115.9 28.913 115.48C28.913 115.377 28.9037 115.284 28.885 115.2C28.8664 115.107 28.829 115.018 28.773 114.934C28.717 114.85 28.6657 114.78 28.619 114.724C28.5724 114.659 28.493 114.593 28.381 114.528C28.2784 114.453 28.1944 114.397 28.129 114.36C28.073 114.313 27.9704 114.257 27.821 114.192C27.681 114.117 27.5784 114.066 27.513 114.038C27.4477 114.001 27.3264 113.945 27.149 113.87C26.9717 113.795 26.8504 113.744 26.785 113.716C26.1037 113.408 25.5717 113.063 25.189 112.68C24.8064 112.297 24.615 111.77 24.615 111.098C24.615 110.361 24.8624 109.763 25.357 109.306C25.8517 108.849 26.505 108.583 27.317 108.508V107.01H28.507V108.536C29.067 108.62 29.5384 108.755 29.921 108.942ZM38.236 116.95C38.8054 116.95 39.2394 116.81 39.538 116.53C39.846 116.25 40 115.905 40 115.494C40 115.083 39.8507 114.738 39.552 114.458C39.2534 114.178 38.8147 114.038 38.236 114.038C37.676 114.047 37.2514 114.201 36.962 114.5C36.682 114.789 36.542 115.149 36.542 115.578C36.542 115.97 36.6867 116.297 36.976 116.558C37.2654 116.819 37.6854 116.95 38.236 116.95ZM38.222 109.894C37.746 109.894 37.3727 110.034 37.102 110.314C36.8314 110.594 36.696 110.935 36.696 111.336C36.696 111.812 36.8407 112.176 37.13 112.428C37.4287 112.671 37.8114 112.792 38.278 112.792C38.7167 112.792 39.076 112.666 39.356 112.414C39.6454 112.153 39.79 111.789 39.79 111.322C39.79 110.911 39.6594 110.571 39.398 110.3C39.146 110.029 38.754 109.894 38.222 109.894ZM39.818 113.394C40.8634 113.749 41.386 114.472 41.386 115.564C41.386 116.339 41.0874 116.959 40.49 117.426C39.8927 117.893 39.1367 118.126 38.222 118.126C37.326 118.126 36.5887 117.902 36.01 117.454C35.4314 116.997 35.142 116.39 35.142 115.634C35.142 114.551 35.66 113.809 36.696 113.408C36.2574 113.221 35.912 112.951 35.66 112.596C35.4174 112.241 35.296 111.826 35.296 111.35C35.296 110.529 35.5807 109.885 36.15 109.418C36.7194 108.951 37.41 108.718 38.222 108.718C39.062 108.718 39.7667 108.947 40.336 109.404C40.9054 109.852 41.19 110.505 41.19 111.364C41.19 112.288 40.7327 112.965 39.818 113.394ZM41.9192 119.736L43.2633 116.46H44.9573L43.1233 119.736H41.9192ZM46.2609 110.58V109.25C46.8396 108.914 47.4836 108.746 48.1929 108.746C49.1262 108.746 49.8542 108.979 50.3769 109.446C50.9089 109.903 51.1749 110.482 51.1749 111.182C51.1749 111.686 51.0489 112.129 50.7969 112.512C50.5542 112.885 50.1902 113.17 49.7049 113.366C50.2369 113.497 50.6522 113.744 50.9509 114.108C51.2496 114.472 51.3989 114.929 51.3989 115.48C51.3989 116.236 51.1282 116.861 50.5869 117.356C50.0456 117.841 49.2849 118.084 48.3049 118.084C47.3809 118.084 46.6016 117.925 45.9669 117.608V116.264C46.6576 116.637 47.4136 116.824 48.2349 116.824C48.7856 116.824 49.2149 116.689 49.5229 116.418C49.8402 116.138 49.9989 115.783 49.9989 115.354C49.9989 114.906 49.8262 114.561 49.4809 114.318C49.1356 114.075 48.6176 113.954 47.9269 113.954H47.3669V112.778H47.9269C48.4402 112.778 48.8696 112.652 49.2149 112.4C49.5696 112.139 49.7469 111.784 49.7469 111.336C49.7469 110.888 49.6022 110.552 49.3129 110.328C49.0329 110.104 48.6456 109.992 48.1509 109.992C47.5162 109.992 46.8862 110.188 46.2609 110.58ZM52.6267 113.394C52.6267 111.957 52.9114 110.818 53.4807 109.978C54.0594 109.129 54.8481 108.704 55.8467 108.704C56.8641 108.704 57.6621 109.124 58.2407 109.964C58.8194 110.804 59.1087 111.947 59.1087 113.394C59.1087 114.822 58.8241 115.965 58.2547 116.824C57.6947 117.683 56.8921 118.112 55.8467 118.112C54.8481 118.112 54.0594 117.683 53.4807 116.824C52.9114 115.965 52.6267 114.822 52.6267 113.394ZM54.5447 110.874C54.1994 111.462 54.0267 112.302 54.0267 113.394C54.0267 114.486 54.1947 115.335 54.5307 115.942C54.8761 116.539 55.3147 116.838 55.8467 116.838C56.4254 116.838 56.8781 116.539 57.2047 115.942C57.5314 115.345 57.6947 114.495 57.6947 113.394C57.6947 112.283 57.5221 111.439 57.1767 110.86C56.8407 110.272 56.3974 109.978 55.8467 109.978C55.3241 109.978 54.8901 110.277 54.5447 110.874ZM67.369 116.894C67.9196 116.894 68.3723 116.679 68.727 116.25C69.0816 115.811 69.259 115.2 69.259 114.416C69.259 113.679 69.0863 113.095 68.741 112.666C68.3956 112.227 67.957 112.008 67.425 112.008C66.893 112.008 66.431 112.204 66.039 112.596C65.6563 112.979 65.465 113.59 65.465 114.43C65.465 115.251 65.6563 115.867 66.039 116.278C66.431 116.689 66.8743 116.894 67.369 116.894ZM65.465 110.902V111.994C65.9503 111.201 66.6783 110.804 67.649 110.804C68.5823 110.804 69.3196 111.145 69.861 111.826C70.4023 112.498 70.673 113.357 70.673 114.402C70.673 115.475 70.393 116.362 69.833 117.062C69.2823 117.753 68.545 118.098 67.621 118.098C66.6783 118.098 65.9596 117.706 65.465 116.922V120.716H64.093V110.902H65.465ZM75.182 118.126C74.1367 118.126 73.3154 117.785 72.718 117.104C72.1207 116.423 71.822 115.559 71.822 114.514C71.822 113.45 72.13 112.568 72.746 111.868C73.362 111.159 74.174 110.804 75.182 110.804C76.2647 110.804 77.1 111.149 77.688 111.84C78.276 112.521 78.57 113.394 78.57 114.458C78.57 115.522 78.2667 116.399 77.66 117.09C77.0627 117.781 76.2367 118.126 75.182 118.126ZM75.168 111.966C74.5614 111.966 74.09 112.209 73.754 112.694C73.418 113.17 73.25 113.763 73.25 114.472C73.25 115.172 73.4227 115.765 73.768 116.25C74.1134 116.726 74.5847 116.964 75.182 116.964C75.8167 116.964 76.2974 116.731 76.624 116.264C76.96 115.797 77.128 115.205 77.128 114.486C77.128 113.749 76.9694 113.147 76.652 112.68C76.3347 112.204 75.84 111.966 75.168 111.966ZM81.4884 110.902V112.148C81.8337 111.271 82.4544 110.832 83.3504 110.832C83.4811 110.832 83.6257 110.846 83.7844 110.874V112.218C83.5884 112.134 83.3691 112.092 83.1264 112.092C82.6504 112.092 82.2584 112.302 81.9504 112.722C81.6424 113.142 81.4884 113.641 81.4884 114.22V118H80.1164V110.902H81.4884ZM89.6778 110.902V112.12C90.0978 111.243 90.8352 110.804 91.8898 110.804C92.5898 110.804 93.1452 111.019 93.5558 111.448C93.9665 111.877 94.1718 112.461 94.1718 113.198V118H92.7998V113.52C92.7998 113.025 92.6738 112.647 92.4218 112.386C92.1792 112.125 91.8525 111.994 91.4418 111.994C90.9565 111.994 90.5412 112.185 90.1958 112.568C89.8505 112.941 89.6778 113.469 89.6778 114.15V118H88.3058V110.902H89.6778ZM101.267 107.92L99.5868 110.188H98.4108L99.7408 107.92H101.267ZM100.427 110.902H101.799V118H100.427V116.782C100.053 117.65 99.3161 118.084 98.2148 118.084C97.5148 118.084 96.9594 117.879 96.5488 117.468C96.1381 117.048 95.9328 116.474 95.9328 115.746V110.902H97.3188V115.41C97.3188 115.895 97.4354 116.269 97.6688 116.53C97.9114 116.782 98.2428 116.908 98.6628 116.908C99.1948 116.908 99.6194 116.721 99.9368 116.348C100.263 115.975 100.427 115.447 100.427 114.766V110.902ZM105.1 110.902V112.036C105.501 111.215 106.168 110.804 107.102 110.804C108.166 110.804 108.847 111.261 109.146 112.176C109.342 111.737 109.626 111.401 110 111.168C110.373 110.925 110.793 110.804 111.26 110.804C111.988 110.804 112.538 111.019 112.912 111.448C113.294 111.877 113.486 112.47 113.486 113.226V118H112.114V113.52C112.114 112.503 111.703 111.994 110.882 111.994C110.471 111.994 110.102 112.176 109.776 112.54C109.458 112.904 109.3 113.441 109.3 114.15V118H107.928V113.52C107.928 112.503 107.512 111.994 106.682 111.994C106.28 111.994 105.916 112.176 105.59 112.54C105.263 112.904 105.1 113.441 105.1 114.15V118H103.728V110.902H105.1ZM119.759 113.94V113.688C119.74 113.156 119.595 112.736 119.325 112.428C119.054 112.111 118.667 111.952 118.163 111.952C117.696 111.952 117.295 112.125 116.959 112.47C116.623 112.806 116.413 113.296 116.329 113.94H119.759ZM120.641 116.39V117.622C120.118 117.921 119.427 118.07 118.569 118.07C117.467 118.07 116.59 117.739 115.937 117.076C115.283 116.413 114.957 115.545 114.957 114.472C114.957 113.333 115.255 112.442 115.853 111.798C116.45 111.145 117.211 110.818 118.135 110.818C119.04 110.818 119.759 111.103 120.291 111.672C120.823 112.232 121.089 113.044 121.089 114.108C121.089 114.397 121.061 114.701 121.005 115.018H116.343C116.436 115.634 116.697 116.105 117.127 116.432C117.556 116.759 118.097 116.922 118.751 116.922C119.507 116.922 120.137 116.745 120.641 116.39ZM124.076 110.902V112.148C124.422 111.271 125.042 110.832 125.938 110.832C126.069 110.832 126.214 110.846 126.372 110.874V112.218C126.176 112.134 125.957 112.092 125.714 112.092C125.238 112.092 124.846 112.302 124.538 112.722C124.23 113.142 124.076 113.641 124.076 114.22V118H122.704V110.902H124.076ZM130.416 118.126C129.371 118.126 128.55 117.785 127.952 117.104C127.355 116.423 127.056 115.559 127.056 114.514C127.056 113.45 127.364 112.568 127.98 111.868C128.596 111.159 129.408 110.804 130.416 110.804C131.499 110.804 132.334 111.149 132.922 111.84C133.51 112.521 133.804 113.394 133.804 114.458C133.804 115.522 133.501 116.399 132.894 117.09C132.297 117.781 131.471 118.126 130.416 118.126ZM130.402 111.966C129.796 111.966 129.324 112.209 128.988 112.694C128.652 113.17 128.484 113.763 128.484 114.472C128.484 115.172 128.657 115.765 129.002 116.25C129.348 116.726 129.819 116.964 130.416 116.964C131.051 116.964 131.532 116.731 131.858 116.264C132.194 115.797 132.362 115.205 132.362 114.486C132.362 113.749 132.204 113.147 131.886 112.68C131.569 112.204 131.074 111.966 130.402 111.966Z" fill="black"/>
<rect x="0.5" y="0.5" width="215" height="147" rx="3.5" stroke="black" stroke-opacity="0.1"/>
<defs>
<clipPath id="clip0_302_261">
<rect width="24" height="24" fill="white" transform="translate(16 16)"/>
</clipPath>
</defs>
</svg>
