<svg width="216" height="148" viewBox="0 0 216 148" fill="none" xmlns="http://www.w3.org/2000/svg">
<rect width="216" height="148" rx="4" fill="#F4F4F4"/>
<g clip-path="url(#clip0_302_611)">
<path d="M26.2793 33.8368C26.2793 33.8368 25.1938 39.1958 18.599 39.9261L18.097 37.3598C24.3384 38.9082 26.2793 33.8368 26.2793 33.8368Z" fill="#0B5EBF"/>
<path d="M27.2603 27.1955C27.2603 27.1955 18.3107 26.2474 19.3445 20.8147C19.6738 19.0859 21.9385 18.2019 23.2361 18.5274C23.2361 18.5274 23.908 16.1725 27.0312 16.6279C27.0312 16.6279 29.0022 16.8218 29.4395 18.9975C29.5736 19.7013 29.5145 20.4274 29.2684 21.1015C28.8032 22.4184 27.7892 25.5142 27.8938 27.2284C27.8938 27.2284 26.0564 25.2527 25.2159 23.2469C25.216 23.2468 26.1705 26.2126 27.2603 27.1955Z" fill="#0B5EBF"/>
<path d="M28.5398 26.6141C28.5398 26.6141 29.8136 17.8801 35.3195 19.0791C37.0709 19.4603 37.895 21.7101 37.5194 22.9697C37.5194 22.9697 39.898 23.7106 39.3254 26.7529C39.3254 26.7529 39.06 28.6771 36.8269 29.0305C36.1051 29.1379 35.3672 29.0556 34.6883 28.7922C33.3589 28.2898 30.237 27.1897 28.4854 27.2336C28.4854 27.2336 30.5631 25.5019 32.6371 24.7473C32.6357 24.7463 29.5791 25.5803 28.5398 26.6141Z" fill="#0B5EBF"/>
<path d="M28.7371 27.9201C28.7371 27.9201 37.6866 28.8681 36.653 34.3025C36.3237 36.0313 34.0589 36.9153 32.7613 36.5898C32.7613 36.5898 32.0894 38.9447 28.9663 38.4893C28.9663 38.4893 26.9953 38.2954 26.5579 36.1197C26.4241 35.416 26.4832 34.6901 26.7292 34.0161C27.1958 32.6971 28.2101 29.601 28.1053 27.8869C28.1053 27.8869 29.9427 29.8625 30.7856 31.8679C30.7816 31.87 29.8276 28.904 28.7371 27.9201Z" fill="#0B5EBF"/>
<path d="M27.4588 28.4994C27.4588 28.4994 26.1845 37.2335 20.6802 36.0344C18.9292 35.6532 18.1047 33.4034 18.4803 32.1439C18.4803 32.1439 16.1021 31.4028 16.6743 28.3607C16.6743 28.3607 16.9397 26.4365 19.1734 26.083C19.8951 25.9756 20.6329 26.0578 21.3116 26.3211C22.6409 26.8234 25.7629 27.9235 27.5141 27.8798C27.5141 27.8798 25.4364 29.6115 23.3624 30.3661C23.3623 30.3661 26.419 29.5331 27.4588 28.4994Z" fill="#0B5EBF"/>
</g>
<path d="M48.16 25.632V23.248L51.104 21.536H53.12V32H50.8V24.048L48.16 25.632ZM54.6381 26.72C54.6381 25.056 54.9581 23.7387 55.5981 22.768C56.2381 21.7973 57.1875 21.312 58.4461 21.312C59.7048 21.312 60.6541 21.7973 61.2941 22.768C61.9448 23.7387 62.2701 25.056 62.2701 26.72C62.2701 28.3627 61.9448 29.6747 61.2941 30.656C60.6541 31.6373 59.7048 32.128 58.4461 32.128C57.1875 32.128 56.2381 31.6427 55.5981 30.672C54.9581 29.6907 54.6381 28.3733 54.6381 26.72ZM58.4461 23.392C57.4968 23.392 57.0221 24.5013 57.0221 26.72C57.0221 28.9387 57.4968 30.048 58.4461 30.048C59.4061 30.048 59.8861 28.9387 59.8861 26.72C59.8861 24.5013 59.4061 23.392 58.4461 23.392ZM67.8681 32V21.216H70.5721L73.0841 25.68C73.4361 26.3093 73.7401 26.9013 73.9961 27.456C74.2628 28 74.4335 28.384 74.5081 28.608L74.6361 28.96C74.5295 28.1707 74.4761 27.0773 74.4761 25.68V21.216H76.9401V32H74.2361L71.6601 27.536C71.3188 26.96 71.0148 26.3947 70.7481 25.84C70.4921 25.2747 70.3161 24.8587 70.2201 24.592L70.0921 24.192C70.2521 25.152 70.3321 26.2667 70.3321 27.536V32H67.8681ZM85.5044 20.32L83.7284 23.152H81.7924L83.1684 20.32H85.5044ZM83.9684 23.888H86.3044V32H83.9684V30.704C83.5417 31.6107 82.7204 32.064 81.5044 32.064C80.6724 32.064 80.0217 31.8347 79.5524 31.376C79.0937 30.9067 78.8644 30.2187 78.8644 29.312V23.888H81.2004V28.784C81.2004 29.7333 81.6164 30.208 82.4484 30.208C83.4617 30.208 83.9684 29.5307 83.9684 28.176V23.888ZM90.5616 23.888V25.152C91.0096 24.256 91.7723 23.808 92.8496 23.808C93.991 23.808 94.7483 24.32 95.1216 25.344C95.303 24.864 95.607 24.4907 96.0336 24.224C96.4603 23.9467 96.9616 23.808 97.5376 23.808C98.3376 23.808 98.967 24.064 99.4256 24.576C99.895 25.0773 100.13 25.8187 100.13 26.8V32H97.7936V27.184C97.7936 26.7253 97.703 26.3627 97.5216 26.096C97.3403 25.8293 97.079 25.696 96.7376 25.696C96.375 25.696 96.0496 25.8453 95.7616 26.144C95.4843 26.432 95.3456 26.9547 95.3456 27.712V32H93.0096V27.184C93.0096 26.7253 92.919 26.3627 92.7376 26.096C92.5563 25.8293 92.295 25.696 91.9536 25.696C91.591 25.696 91.2656 25.8453 90.9776 26.144C90.7003 26.432 90.5616 26.9547 90.5616 27.712V32H88.2256V23.888H90.5616ZM106.664 27.2V27.008C106.589 26.0587 106.173 25.584 105.416 25.584C105.042 25.584 104.712 25.7227 104.424 26C104.136 26.2667 103.944 26.6667 103.848 27.2H106.664ZM108.344 29.584V31.536C107.789 31.8987 106.941 32.08 105.8 32.08C104.466 32.08 103.426 31.696 102.68 30.928C101.944 30.1493 101.576 29.152 101.576 27.936C101.576 26.6453 101.933 25.6373 102.648 24.912C103.373 24.176 104.264 23.808 105.32 23.808C106.408 23.808 107.266 24.128 107.896 24.768C108.525 25.3973 108.84 26.3413 108.84 27.6C108.84 27.8453 108.797 28.2667 108.712 28.864H103.944C104.104 29.312 104.381 29.6587 104.776 29.904C105.17 30.1493 105.645 30.272 106.2 30.272C107.021 30.272 107.736 30.0427 108.344 29.584ZM112.827 23.888V25.392C112.976 24.9227 113.222 24.5493 113.563 24.272C113.915 23.984 114.32 23.84 114.779 23.84C115.035 23.84 115.238 23.8613 115.387 23.904V26.112C115.131 25.9947 114.838 25.936 114.507 25.936C114.006 25.936 113.6 26.1227 113.291 26.496C112.982 26.8587 112.827 27.344 112.827 27.952V32H110.491L110.507 23.888H112.827ZM120.013 32.128C118.743 32.128 117.762 31.7493 117.069 30.992C116.375 30.224 116.029 29.2427 116.029 28.048C116.029 26.8 116.391 25.776 117.117 24.976C117.842 24.1653 118.807 23.76 120.013 23.76C121.271 23.76 122.247 24.1493 122.941 24.928C123.634 25.7067 123.981 26.6987 123.981 27.904C123.981 29.1307 123.629 30.144 122.925 30.944C122.231 31.7333 121.261 32.128 120.013 32.128ZM119.997 25.6C119.485 25.6 119.101 25.8187 118.845 26.256C118.589 26.6933 118.461 27.2587 118.461 27.952C118.461 28.6453 118.589 29.216 118.845 29.664C119.111 30.1013 119.506 30.32 120.029 30.32C120.541 30.32 120.919 30.1067 121.165 29.68C121.421 29.2427 121.549 28.6773 121.549 27.984C121.549 26.3947 121.031 25.6 119.997 25.6ZM130.627 24.128V26.128C130.062 25.7973 129.4 25.632 128.643 25.632C128.366 25.632 128.152 25.6907 128.003 25.808C127.854 25.9147 127.779 26.0533 127.779 26.224C127.779 26.32 127.806 26.4107 127.859 26.496C127.912 26.5813 127.998 26.6613 128.115 26.736C128.243 26.8107 128.36 26.88 128.467 26.944C128.584 26.9973 128.739 27.0667 128.931 27.152C129.134 27.2373 129.294 27.312 129.411 27.376C129.902 27.632 130.296 27.9307 130.595 28.272C130.894 28.6027 131.043 29.0293 131.043 29.552C131.043 30.352 130.755 30.9707 130.179 31.408C129.603 31.8453 128.84 32.064 127.891 32.064C126.91 32.064 126.088 31.8987 125.427 31.568V29.488C126.163 30 126.942 30.256 127.763 30.256C128.35 30.256 128.643 30.0693 128.643 29.696C128.643 29.6 128.616 29.5093 128.563 29.424C128.51 29.3387 128.419 29.2587 128.291 29.184C128.163 29.1093 128.046 29.0507 127.939 29.008C127.832 28.9547 127.678 28.8853 127.475 28.8C127.272 28.7147 127.118 28.6453 127.011 28.592C125.934 28.08 125.395 27.312 125.395 26.288C125.395 25.4987 125.694 24.8853 126.291 24.448C126.899 24.0107 127.651 23.792 128.547 23.792C129.379 23.792 130.072 23.904 130.627 24.128Z" fill="black"/>
<path d="M23.884 69.236V76.076H26.512C28.912 76.076 30.112 74.9 30.112 72.548C30.112 71.516 29.8 70.712 29.176 70.136C28.552 69.536 27.7 69.236 26.62 69.236H23.884ZM30.832 89L25.576 80.576H23.884V89H18.34V64.736H26.728C29.44 64.736 31.612 65.456 33.244 66.896C34.9 68.336 35.728 70.208 35.728 72.512C35.728 75.968 34.252 78.356 31.3 79.676L37.456 89H30.832ZM54.2773 65.816V71C52.3333 69.872 50.3173 69.308 48.2293 69.308C47.2933 69.308 46.5733 69.5 46.0693 69.884C45.5893 70.268 45.3493 70.76 45.3493 71.36C45.3493 71.96 45.6493 72.5 46.2493 72.98C46.8493 73.436 47.7493 73.928 48.9493 74.456C49.6933 74.792 50.3053 75.092 50.7853 75.356C51.2893 75.596 51.8533 75.944 52.4773 76.4C53.1253 76.832 53.6293 77.3 53.9893 77.804C54.3733 78.284 54.6973 78.884 54.9613 79.604C55.2253 80.324 55.3573 81.104 55.3573 81.944C55.3573 83.768 54.7693 85.316 53.5933 86.588C52.4413 87.86 50.8693 88.688 48.8773 89.072V93.248H44.5213V89.18C42.5293 88.988 40.8733 88.52 39.5533 87.776V82.196C41.7373 83.78 44.0653 84.572 46.5373 84.572C47.3773 84.572 48.0733 84.356 48.6253 83.924C49.1773 83.468 49.4533 82.88 49.4533 82.16C49.4533 81.92 49.4173 81.692 49.3453 81.476C49.2733 81.26 49.1413 81.056 48.9493 80.864C48.7573 80.672 48.5653 80.516 48.3733 80.396C48.2053 80.252 47.9413 80.096 47.5813 79.928C47.2453 79.736 46.9573 79.58 46.7173 79.46C46.4773 79.34 46.1173 79.172 45.6373 78.956C45.1813 78.74 44.8093 78.572 44.5213 78.452C42.9613 77.732 41.7013 76.844 40.7413 75.788C39.8053 74.732 39.3373 73.328 39.3373 71.576C39.3373 69.728 39.9493 68.192 41.1733 66.968C42.3973 65.72 44.1013 64.964 46.2853 64.7V60.56H50.6773V64.772C51.9493 64.964 53.1493 65.312 54.2773 65.816ZM71.8335 79.532H77.0175V68.876L71.8335 79.532ZM85.1175 79.532V83.996H82.2375V89H77.0175V83.996H66.6855V79.532L73.8855 65.384H82.2375V79.532H85.1175ZM94.9643 76.544C96.4043 76.544 97.5683 76.004 98.4563 74.924C98.1683 71.516 97.0163 69.812 95.0003 69.812C94.0643 69.812 93.3083 70.112 92.7323 70.712C92.1803 71.312 91.9043 72.152 91.9043 73.232C91.9043 74.192 92.1803 74.984 92.7323 75.608C93.2843 76.232 94.0283 76.544 94.9643 76.544ZM88.2323 88.604V83.636C89.4803 84.236 90.7163 84.536 91.9403 84.536C93.8123 84.536 95.2643 84.116 96.2963 83.276C97.3283 82.412 98.0003 81.068 98.3123 79.244C97.2803 80.276 95.7203 80.792 93.6323 80.792C91.5203 80.792 89.8043 80.12 88.4843 78.776C87.1883 77.408 86.5403 75.596 86.5403 73.34C86.5403 70.988 87.2723 69.032 88.7363 67.472C90.2243 65.912 92.2283 65.132 94.7483 65.132C97.5563 65.132 99.7523 66.152 101.336 68.192C102.944 70.208 103.748 72.968 103.748 76.472C103.748 80.768 102.728 83.984 100.688 86.12C98.6483 88.232 95.9243 89.288 92.5163 89.288C90.8843 89.288 89.4563 89.06 88.2323 88.604ZM104.764 93.572L108.4 84.176H114.196L109.3 93.572H104.764ZM124.742 76.544C126.182 76.544 127.346 76.004 128.234 74.924C127.946 71.516 126.794 69.812 124.778 69.812C123.842 69.812 123.086 70.112 122.51 70.712C121.958 71.312 121.682 72.152 121.682 73.232C121.682 74.192 121.958 74.984 122.51 75.608C123.062 76.232 123.806 76.544 124.742 76.544ZM118.01 88.604V83.636C119.258 84.236 120.494 84.536 121.718 84.536C123.59 84.536 125.042 84.116 126.074 83.276C127.106 82.412 127.778 81.068 128.09 79.244C127.058 80.276 125.498 80.792 123.41 80.792C121.298 80.792 119.582 80.12 118.262 78.776C116.966 77.408 116.318 75.596 116.318 73.34C116.318 70.988 117.05 69.032 118.514 67.472C120.002 65.912 122.006 65.132 124.526 65.132C127.334 65.132 129.53 66.152 131.114 68.192C132.722 70.208 133.526 72.968 133.526 76.472C133.526 80.768 132.506 83.984 130.466 86.12C128.426 88.232 125.702 89.288 122.294 89.288C120.662 89.288 119.234 89.06 118.01 88.604ZM136.053 77.12C136.053 73.376 136.773 70.412 138.213 68.228C139.653 66.044 141.789 64.952 144.621 64.952C147.453 64.952 149.589 66.044 151.029 68.228C152.493 70.412 153.225 73.376 153.225 77.12C153.225 80.816 152.493 83.768 151.029 85.976C149.589 88.184 147.453 89.288 144.621 89.288C141.789 89.288 139.653 88.196 138.213 86.012C136.773 83.804 136.053 80.84 136.053 77.12ZM144.621 69.632C142.485 69.632 141.417 72.128 141.417 77.12C141.417 82.112 142.485 84.608 144.621 84.608C146.781 84.608 147.861 82.112 147.861 77.12C147.861 72.128 146.781 69.632 144.621 69.632Z" fill="black"/>
<path opacity="0.7" d="M18.464 109.768V113.212H19.766C20.3633 113.212 20.816 113.058 21.124 112.75C21.432 112.433 21.586 112.013 21.586 111.49C21.586 110.342 20.956 109.768 19.696 109.768H18.464ZM21.922 118L19.71 114.416H18.464V118H17.022V108.564H19.654C20.7367 108.564 21.572 108.83 22.16 109.362C22.748 109.885 23.042 110.599 23.042 111.504C23.0327 112.167 22.8647 112.731 22.538 113.198C22.2113 113.655 21.7587 113.987 21.18 114.192L23.644 118H21.922ZM29.921 108.942V110.37C29.305 109.978 28.5957 109.782 27.793 109.782C27.2797 109.782 26.8784 109.899 26.589 110.132C26.2997 110.356 26.155 110.655 26.155 111.028C26.155 111.233 26.197 111.42 26.281 111.588C26.3744 111.747 26.5284 111.901 26.743 112.05C26.967 112.19 27.1537 112.297 27.303 112.372C27.4617 112.447 27.709 112.559 28.045 112.708C28.3997 112.867 28.689 113.011 28.913 113.142C29.137 113.263 29.3797 113.431 29.641 113.646C29.9024 113.861 30.0937 114.117 30.215 114.416C30.3457 114.705 30.411 115.041 30.411 115.424C30.411 116.18 30.173 116.791 29.697 117.258C29.221 117.715 28.5864 117.986 27.793 118.07V119.568H26.617V118.07C25.8517 117.995 25.203 117.804 24.671 117.496V115.998C25.4084 116.549 26.2624 116.824 27.233 116.824C27.7464 116.824 28.1524 116.707 28.451 116.474C28.759 116.231 28.913 115.9 28.913 115.48C28.913 115.377 28.9037 115.284 28.885 115.2C28.8664 115.107 28.829 115.018 28.773 114.934C28.717 114.85 28.6657 114.78 28.619 114.724C28.5724 114.659 28.493 114.593 28.381 114.528C28.2784 114.453 28.1944 114.397 28.129 114.36C28.073 114.313 27.9704 114.257 27.821 114.192C27.681 114.117 27.5784 114.066 27.513 114.038C27.4477 114.001 27.3264 113.945 27.149 113.87C26.9717 113.795 26.8504 113.744 26.785 113.716C26.1037 113.408 25.5717 113.063 25.189 112.68C24.8064 112.297 24.615 111.77 24.615 111.098C24.615 110.361 24.8624 109.763 25.357 109.306C25.8517 108.849 26.505 108.583 27.317 108.508V107.01H28.507V108.536C29.067 108.62 29.5384 108.755 29.921 108.942ZM36.416 114.668H39.174V109.67L36.416 114.668ZM41.834 114.668V115.858H40.546V118H39.174V115.858H35.03V114.668L38.32 108.83H40.546V114.668H41.834ZM42.0286 119.736L43.3726 116.46H45.0666L43.2326 119.736H42.0286ZM49.1003 113.576C49.8096 113.576 50.3836 113.301 50.8223 112.75C50.8036 111.901 50.6449 111.229 50.3463 110.734C50.0569 110.23 49.6183 109.978 49.0303 109.978C48.5449 109.978 48.1576 110.141 47.8683 110.468C47.5789 110.785 47.4343 111.219 47.4343 111.77C47.4343 112.33 47.5836 112.773 47.8823 113.1C48.1903 113.417 48.5963 113.576 49.1003 113.576ZM46.4823 117.846V116.516C46.9583 116.731 47.4623 116.838 47.9943 116.838C49.5996 116.838 50.5236 115.886 50.7663 113.982C50.3183 114.495 49.6509 114.752 48.7643 114.752C47.9989 114.752 47.3456 114.481 46.8043 113.94C46.2723 113.399 46.0063 112.685 46.0063 111.798C46.0063 110.911 46.2723 110.179 46.8043 109.6C47.3363 109.021 48.0596 108.732 48.9743 108.732C50.0196 108.732 50.8129 109.119 51.3543 109.894C51.9049 110.659 52.1803 111.653 52.1803 112.876C52.1803 114.537 51.8256 115.825 51.1163 116.74C50.4163 117.655 49.4083 118.112 48.0923 118.112C47.4949 118.112 46.9583 118.023 46.4823 117.846ZM56.2643 113.576C56.9737 113.576 57.5477 113.301 57.9863 112.75C57.9677 111.901 57.809 111.229 57.5103 110.734C57.221 110.23 56.7823 109.978 56.1943 109.978C55.709 109.978 55.3217 110.141 55.0323 110.468C54.743 110.785 54.5983 111.219 54.5983 111.77C54.5983 112.33 54.7477 112.773 55.0463 113.1C55.3543 113.417 55.7603 113.576 56.2643 113.576ZM53.6463 117.846V116.516C54.1223 116.731 54.6263 116.838 55.1583 116.838C56.7637 116.838 57.6877 115.886 57.9303 113.982C57.4823 114.495 56.815 114.752 55.9283 114.752C55.163 114.752 54.5097 114.481 53.9683 113.94C53.4363 113.399 53.1703 112.685 53.1703 111.798C53.1703 110.911 53.4363 110.179 53.9683 109.6C54.5003 109.021 55.2237 108.732 56.1383 108.732C57.1837 108.732 57.977 109.119 58.5183 109.894C59.069 110.659 59.3443 111.653 59.3443 112.876C59.3443 114.537 58.9897 115.825 58.2803 116.74C57.5803 117.655 56.5723 118.112 55.2563 118.112C54.659 118.112 54.1223 118.023 53.6463 117.846ZM67.5877 116.894C68.1384 116.894 68.591 116.679 68.9457 116.25C69.3004 115.811 69.4777 115.2 69.4777 114.416C69.4777 113.679 69.305 113.095 68.9597 112.666C68.6144 112.227 68.1757 112.008 67.6437 112.008C67.1117 112.008 66.6497 112.204 66.2577 112.596C65.875 112.979 65.6837 113.59 65.6837 114.43C65.6837 115.251 65.875 115.867 66.2577 116.278C66.6497 116.689 67.093 116.894 67.5877 116.894ZM65.6837 110.902V111.994C66.169 111.201 66.897 110.804 67.8677 110.804C68.801 110.804 69.5384 111.145 70.0797 111.826C70.621 112.498 70.8917 113.357 70.8917 114.402C70.8917 115.475 70.6117 116.362 70.0517 117.062C69.501 117.753 68.7637 118.098 67.8397 118.098C66.897 118.098 66.1784 117.706 65.6837 116.922V120.716H64.3117V110.902H65.6837ZM75.4008 118.126C74.3555 118.126 73.5341 117.785 72.9368 117.104C72.3395 116.423 72.0408 115.559 72.0408 114.514C72.0408 113.45 72.3488 112.568 72.9648 111.868C73.5808 111.159 74.3928 110.804 75.4008 110.804C76.4835 110.804 77.3188 111.149 77.9068 111.84C78.4948 112.521 78.7888 113.394 78.7888 114.458C78.7888 115.522 78.4855 116.399 77.8788 117.09C77.2815 117.781 76.4555 118.126 75.4008 118.126ZM75.3868 111.966C74.7801 111.966 74.3088 112.209 73.9728 112.694C73.6368 113.17 73.4688 113.763 73.4688 114.472C73.4688 115.172 73.6415 115.765 73.9868 116.25C74.3321 116.726 74.8035 116.964 75.4008 116.964C76.0355 116.964 76.5161 116.731 76.8428 116.264C77.1788 115.797 77.3468 115.205 77.3468 114.486C77.3468 113.749 77.1881 113.147 76.8708 112.68C76.5535 112.204 76.0588 111.966 75.3868 111.966ZM81.7071 110.902V112.148C82.0525 111.271 82.6731 110.832 83.5691 110.832C83.6998 110.832 83.8445 110.846 84.0031 110.874V112.218C83.8071 112.134 83.5878 112.092 83.3451 112.092C82.8691 112.092 82.4771 112.302 82.1691 112.722C81.8611 113.142 81.7071 113.641 81.7071 114.22V118H80.3351V110.902H81.7071ZM89.8966 110.902V112.12C90.3166 111.243 91.0539 110.804 92.1086 110.804C92.8086 110.804 93.3639 111.019 93.7746 111.448C94.1853 111.877 94.3906 112.461 94.3906 113.198V118H93.0186V113.52C93.0186 113.025 92.8926 112.647 92.6406 112.386C92.3979 112.125 92.0713 111.994 91.6606 111.994C91.1753 111.994 90.7599 112.185 90.4146 112.568C90.0693 112.941 89.8966 113.469 89.8966 114.15V118H88.5246V110.902H89.8966ZM101.486 107.92L99.8055 110.188H98.6295L99.9595 107.92H101.486ZM100.646 110.902H102.018V118H100.646V116.782C100.272 117.65 99.5349 118.084 98.4335 118.084C97.7335 118.084 97.1782 117.879 96.7675 117.468C96.3569 117.048 96.1515 116.474 96.1515 115.746V110.902H97.5375V115.41C97.5375 115.895 97.6542 116.269 97.8875 116.53C98.1302 116.782 98.4615 116.908 98.8815 116.908C99.4135 116.908 99.8382 116.721 100.156 116.348C100.482 115.975 100.646 115.447 100.646 114.766V110.902ZM105.318 110.902V112.036C105.72 111.215 106.387 110.804 107.32 110.804C108.384 110.804 109.066 111.261 109.364 112.176C109.56 111.737 109.845 111.401 110.218 111.168C110.592 110.925 111.012 110.804 111.478 110.804C112.206 110.804 112.757 111.019 113.13 111.448C113.513 111.877 113.704 112.47 113.704 113.226V118H112.332V113.52C112.332 112.503 111.922 111.994 111.1 111.994C110.69 111.994 110.321 112.176 109.994 112.54C109.677 112.904 109.518 113.441 109.518 114.15V118H108.146V113.52C108.146 112.503 107.731 111.994 106.9 111.994C106.499 111.994 106.135 112.176 105.808 112.54C105.482 112.904 105.318 113.441 105.318 114.15V118H103.946V110.902H105.318ZM119.978 113.94V113.688C119.959 113.156 119.814 112.736 119.544 112.428C119.273 112.111 118.886 111.952 118.382 111.952C117.915 111.952 117.514 112.125 117.178 112.47C116.842 112.806 116.632 113.296 116.548 113.94H119.978ZM120.86 116.39V117.622C120.337 117.921 119.646 118.07 118.788 118.07C117.686 118.07 116.809 117.739 116.156 117.076C115.502 116.413 115.176 115.545 115.176 114.472C115.176 113.333 115.474 112.442 116.072 111.798C116.669 111.145 117.43 110.818 118.354 110.818C119.259 110.818 119.978 111.103 120.51 111.672C121.042 112.232 121.308 113.044 121.308 114.108C121.308 114.397 121.28 114.701 121.224 115.018H116.562C116.655 115.634 116.916 116.105 117.346 116.432C117.775 116.759 118.316 116.922 118.97 116.922C119.726 116.922 120.356 116.745 120.86 116.39ZM124.295 110.902V112.148C124.64 111.271 125.261 110.832 126.157 110.832C126.288 110.832 126.432 110.846 126.591 110.874V112.218C126.395 112.134 126.176 112.092 125.933 112.092C125.457 112.092 125.065 112.302 124.757 112.722C124.449 113.142 124.295 113.641 124.295 114.22V118H122.923V110.902H124.295ZM130.635 118.126C129.59 118.126 128.769 117.785 128.171 117.104C127.574 116.423 127.275 115.559 127.275 114.514C127.275 113.45 127.583 112.568 128.199 111.868C128.815 111.159 129.627 110.804 130.635 110.804C131.718 110.804 132.553 111.149 133.141 111.84C133.729 112.521 134.023 113.394 134.023 114.458C134.023 115.522 133.72 116.399 133.113 117.09C132.516 117.781 131.69 118.126 130.635 118.126ZM130.621 111.966C130.015 111.966 129.543 112.209 129.207 112.694C128.871 113.17 128.703 113.763 128.703 114.472C128.703 115.172 128.876 115.765 129.221 116.25C129.567 116.726 130.038 116.964 130.635 116.964C131.27 116.964 131.751 116.731 132.077 116.264C132.413 115.797 132.581 115.205 132.581 114.486C132.581 113.749 132.423 113.147 132.105 112.68C131.788 112.204 131.293 111.966 130.621 111.966Z" fill="black"/>
<rect x="0.5" y="0.5" width="215" height="147" rx="3.5" stroke="black" stroke-opacity="0.1"/>
<defs>
<clipPath id="clip0_302_611">
<rect width="24" height="24" fill="white" transform="translate(16 16)"/>
</clipPath>
</defs>
</svg>
