<svg width="32" height="32" viewBox="0 0 32 32" fill="none" xmlns="http://www.w3.org/2000/svg">
<path d="M13.7068 23.7817C13.7068 23.7817 12.2595 30.9272 3.46635 31.9008L2.79703 28.4791C11.1189 30.5436 13.7068 23.7817 13.7068 23.7817Z" fill="#0B5EBF"/>
<path d="M15.0141 14.9273C15.0141 14.9273 3.08129 13.6633 4.45961 6.41967C4.89873 4.11457 7.91838 2.93588 9.64853 3.36991C9.64853 3.36991 10.5444 0.229979 14.7086 0.837176C14.7086 0.837176 17.3367 1.09577 17.9198 3.99673C18.0985 4.93512 18.0198 5.9032 17.6916 6.80197C17.0713 8.55793 15.7193 12.6857 15.8588 14.9712C15.8588 14.9712 13.409 12.337 12.2882 9.66254C12.2884 9.66239 13.5611 13.6169 15.0141 14.9273Z" fill="#0B5EBF"/>
<path d="M16.7197 14.1522C16.7197 14.1522 18.4182 2.50677 25.7594 4.10546C28.0946 4.61368 29.1934 7.61353 28.6927 9.29293C28.6927 9.29293 31.8641 10.2809 31.1007 14.3372C31.1007 14.3372 30.7468 16.9028 27.7693 17.374C26.8069 17.5172 25.8229 17.4076 24.9179 17.0564C23.1453 16.3865 18.9827 14.9197 16.6472 14.9782C16.6472 14.9782 19.4174 12.6692 22.1828 11.6631C22.1809 11.6618 18.1055 12.7738 16.7197 14.1522Z" fill="#0B5EBF"/>
<path d="M16.9838 15.8909C16.9838 15.8909 28.9165 17.1549 27.5384 24.4008C27.0993 26.7059 24.0796 27.8846 22.3495 27.4505C22.3495 27.4505 21.4536 30.5905 17.2894 29.9833C17.2894 29.9833 14.6613 29.7247 14.0782 26.8237C13.8998 25.8854 13.9786 24.9176 14.3066 24.019C14.9287 22.2602 16.2811 18.132 16.1415 15.8466C16.1415 15.8466 18.5913 18.4808 19.7151 21.1546C19.7098 21.1574 18.4377 17.2028 16.9838 15.8909Z" fill="#0B5EBF"/>
<path d="M15.2785 16.6646C15.2785 16.6646 13.5794 28.3101 6.24034 26.7114C3.90562 26.203 2.80631 23.2033 3.30704 21.5239C3.30704 21.5239 0.136101 20.5358 0.899057 16.4796C0.899057 16.4796 1.25295 13.914 4.23128 13.4426C5.19349 13.2995 6.17723 13.409 7.08213 13.7602C8.85458 14.4299 13.0173 15.8967 15.3522 15.8384C15.3522 15.8384 12.5819 18.1473 9.81654 19.1535C9.81644 19.1535 13.8921 18.0429 15.2785 16.6646Z" fill="#0B5EBF"/>
</svg>
