<svg width="39" height="34" viewBox="0 0 39 34" fill="none" xmlns="http://www.w3.org/2000/svg">
<path d="M11.5759 4.82309H27.0562C29.1958 4.82309 30.9267 6.75353 30.9267 9.13096V26.3552C30.9267 28.7321 29.1958 30.6582 27.0562 30.6582H11.5759C9.43541 30.6582 7.7041 28.7321 7.7041 26.3552V9.13096C7.7041 6.75353 9.43541 4.82309 11.5759 4.82309Z" fill="#6D787D"/>
<path d="M9.63867 26.3516H11.444V17.7377H9.63867V26.3516Z" fill="#D8DEE0"/>
<path d="M19.5338 19.713C18.4269 19.713 17.6012 20.033 17.1527 20.3234L17.4918 21.5925C17.8988 21.3186 18.5999 21.0729 19.2331 21.0729C20.2894 21.0695 20.5125 21.6667 20.5125 21.9692V22.0386C18.172 22.0274 16.7266 22.8729 16.7266 24.542C16.7266 25.5242 17.4264 26.5156 18.7176 26.5156C19.4867 26.5156 20.136 26.2054 20.5304 25.6861H20.5496L20.747 26.3571H22.2164V22.5389C22.2164 20.987 21.5314 19.713 19.5338 19.713ZM20.5648 23.9743C20.5648 24.0766 20.5561 24.1935 20.5347 24.2992C20.5321 24.3127 20.5204 24.3578 20.5169 24.3675C20.513 24.3782 20.509 24.3893 20.5051 24.4C20.3448 24.8208 19.9212 25.2169 19.3512 25.2169C18.8549 25.2169 18.5128 24.9308 18.5128 24.3884C18.5128 23.7804 18.9791 23.4672 19.6745 23.348C19.8371 23.3194 20.0162 23.3024 20.2079 23.2942C20.3234 23.2898 20.4419 23.2884 20.5648 23.2903V23.9743Z" fill="#D8DEE0"/>
<path d="M27.2033 19.9015V23.6853C27.2033 23.8375 27.1863 23.9733 27.1427 24.0954C26.998 24.4838 26.642 24.9235 26.0554 24.9235C25.3186 24.9235 24.9956 24.3209 24.9956 23.3135V19.8971H23.2334V23.6722C23.2334 24.1774 23.2883 24.6069 23.3977 24.9608C23.5066 25.3147 23.6557 25.608 23.8452 25.8373C24.0348 26.0681 24.2622 26.2363 24.5268 26.3425C24.7913 26.4486 25.0841 26.502 25.4031 26.502C25.6811 26.502 25.9269 26.4641 26.1417 26.3885C26.3561 26.3139 26.5413 26.2227 26.6965 26.1161C26.852 26.0109 26.9823 25.8955 27.0873 25.7709C27.1924 25.6473 27.2752 25.5367 27.334 25.4388L27.561 26.3555H28.9908V19.9015H27.2033Z" fill="#D8DEE0"/>
<path d="M13.1382 17.7428V19.8982H12.3154V21.3705H13.1382V23.9952C13.1382 24.8634 13.2946 25.5155 13.6332 25.9121C13.9234 26.2587 14.4337 26.5156 15.0516 26.5156C15.5824 26.5156 15.792 26.4274 16.0299 26.3246V24.8252C15.9811 24.8508 15.8421 24.8814 15.6613 24.8814C15.0359 24.8814 14.8913 24.4485 14.8913 23.6573V21.3705H16.0108V19.8982H14.8913V17.7428H13.1382Z" fill="#D8DEE0"/>
<path d="M26.5373 17.7401L25.4492 19.4805H26.7086L28.2429 17.7401H26.5373Z" fill="#D8DEE0"/>
</svg>
