<svg width="32" height="32" viewBox="0 0 32 32" fill="none" xmlns="http://www.w3.org/2000/svg">
<g clip-path="url(#clip0_79_49)">
<path d="M13.7058 23.7832C13.7058 23.7832 12.2584 30.9286 3.46537 31.9022L2.79605 28.4806C11.1179 30.545 13.7058 23.7832 13.7058 23.7832Z" fill="white"/>
<path d="M15.014 14.9258C15.014 14.9258 3.08129 13.6617 4.4596 6.41819C4.89873 4.11309 7.91835 2.93441 9.6485 3.36844C9.6485 3.36844 10.5444 0.228528 14.7086 0.835721C14.7086 0.835721 17.3366 1.09431 17.9197 3.99525C18.0984 4.93364 18.0197 5.90172 17.6915 6.80048C17.0712 8.55643 15.7192 12.6842 15.8588 14.9697C15.8588 14.9697 13.4089 12.3355 12.2882 9.66103C12.2884 9.66089 13.561 13.6154 15.014 14.9258Z" fill="white"/>
<path d="M16.7197 14.1527C16.7197 14.1527 18.4182 2.50728 25.7593 4.10595C28.0945 4.61417 29.1933 7.61401 28.6926 9.2934C28.6926 9.2934 31.864 10.2813 31.1006 14.3377C31.1006 14.3377 30.7467 16.9032 27.7692 17.3744C26.8068 17.5176 25.8229 17.408 24.9178 17.0568C23.1452 16.387 18.9827 14.9201 16.6471 14.9786C16.6471 14.9786 19.4174 12.6697 22.1828 11.6635C22.1809 11.6623 18.1055 12.7742 16.7197 14.1527Z" fill="white"/>
<path d="M16.9828 15.8919C16.9828 15.8919 28.9154 17.1559 27.5373 24.4017C27.0982 26.7068 24.0786 27.8855 22.3484 27.4514C22.3484 27.4514 21.4526 30.5914 17.2884 29.9842C17.2884 29.9842 14.6603 29.7256 14.0772 26.8246C13.8988 25.8864 13.9776 24.9185 14.3057 24.0199C14.9277 22.2612 16.2801 18.133 16.1405 15.8475C16.1405 15.8475 18.5903 18.4817 19.7141 21.1556C19.7088 21.1583 18.4367 17.2037 16.9828 15.8919Z" fill="white"/>
<path d="M15.2784 16.6665C15.2784 16.6665 13.5793 28.312 6.2403 26.7132C3.9056 26.2049 2.8063 23.2052 3.30702 21.5258C3.30702 21.5258 0.1361 20.5377 0.899052 16.4815C0.899052 16.4815 1.25294 13.916 4.23126 13.4446C5.19346 13.3014 6.17719 13.411 7.08209 13.7621C8.85453 14.4319 13.0172 15.8987 15.3521 15.8403C15.3521 15.8403 12.5818 18.1493 9.81649 19.1554C9.81638 19.1554 13.892 18.0448 15.2784 16.6665Z" fill="white"/>
</g>
<defs>
<clipPath id="clip0_79_49">
<rect width="32" height="32" fill="white"/>
</clipPath>
</defs>
</svg>
