<svg width="41" height="41" viewBox="0 0 41 41" fill="none" xmlns="http://www.w3.org/2000/svg">
<path d="M17.8495 29.693C17.8495 29.693 16.503 38.3889 5.95546 40.0533L4.95763 35.9651C15.1065 37.9901 17.8495 29.693 17.8495 29.693Z" fill="#2E3D45"/>
<path d="M18.9339 18.9444C18.9339 18.9444 4.47604 18.0858 5.7339 9.27534C6.13479 6.47158 9.70983 4.88204 11.8201 5.30885C11.8201 5.30885 12.7251 1.47308 17.7798 1.97294C17.7798 1.97294 20.9628 2.13816 21.8277 5.60331C22.0955 6.72476 22.0545 7.89637 21.7089 8.99832C21.059 11.1501 19.6591 16.2023 19.9548 18.9502C19.9548 18.9502 16.8541 15.9107 15.3537 12.7486C15.3539 12.7485 17.1089 17.4454 18.9339 18.9444Z" fill="#2E3D45"/>
<path d="M20.9461 17.9077C20.9461 17.9077 22.3445 3.77207 31.2848 5.29018C34.1288 5.7727 35.6209 9.32834 35.1108 11.3811C35.1108 11.3811 38.9897 12.3954 38.2954 17.3287C38.2954 17.3287 38.0118 20.4417 34.4482 21.176C33.2958 21.4023 32.1033 21.325 30.9925 20.952C28.818 20.2432 23.7173 18.7068 20.9046 18.9076C20.9046 18.9076 24.116 15.9692 27.3941 14.6018C27.3917 14.6004 22.5401 16.1684 20.9461 17.9077Z" fill="#2E3D45"/>
<path d="M21.3628 19.9924C21.3628 19.9924 35.8205 20.8509 34.5631 29.6641C34.1622 32.4678 30.5871 34.0574 28.4769 33.6306C28.4769 33.6306 27.5718 37.4663 22.5172 36.9665C22.5172 36.9665 19.3341 36.8013 18.4693 33.3361C18.2019 32.2148 18.2429 31.0435 18.5883 29.9417C19.2402 27.7865 20.6406 22.7337 20.3447 19.9859C20.3447 19.9859 23.4455 23.0254 24.9495 26.1866C24.9433 26.1901 23.189 21.493 21.3628 19.9924Z" fill="#2E3D45"/>
<path d="M19.3491 21.0248C19.3491 21.0248 17.9499 35.1606 9.01212 33.6422C6.16881 33.1596 4.67608 29.6041 5.18615 27.5513C5.18615 27.5513 1.30785 26.5369 2.00152 21.6037C2.00152 21.6037 2.28512 18.4907 5.84981 17.7562C7.00196 17.53 8.19415 17.6072 9.30478 17.9801C11.4792 18.6888 16.5799 20.2251 19.3919 20.0246C19.3919 20.0246 16.1805 22.963 12.9024 24.3303C12.9023 24.3303 17.7544 22.7639 19.3491 21.0248Z" fill="#2E3D45"/>
</svg>
