<svg width="119" height="119" viewBox="0 0 119 119" fill="none" xmlns="http://www.w3.org/2000/svg">
<g clip-path="url(#clip0_1513_1891)">
<path d="M64.6938 80.6508C64.6938 80.6508 71.1536 99.3076 51.9864 113.682L45.7157 106.623C67.9657 99.9829 64.6938 80.6508 64.6938 80.6508Z" fill="#32BB4E"/>
<path d="M55.5604 58.2005C55.5604 58.2005 25.9908 71.6772 19.235 52.8865C17.0862 46.9061 22.5063 40.0008 27.1388 38.6316C27.1388 38.6316 24.9062 30.0755 35.4538 25.7598C35.4538 25.7598 41.9388 22.7456 47.2918 28.7085C49.0003 30.6511 50.1491 33.0172 50.6207 35.5651C51.5911 40.5141 54.1197 52.0018 57.591 57.14C57.591 57.14 48.2515 54.3686 41.9564 49.6739C41.9567 49.6733 50.3679 57.1442 55.5604 58.2005Z" fill="#32BB4E"/>
<path d="M58.4631 54.0313C58.4631 54.0313 46.3951 24.5339 65.7166 18.1577C71.8624 16.1286 78.5542 21.6125 79.6979 26.2184C79.6979 26.2184 88.4543 24.1572 92.257 34.6682C92.257 34.6682 94.963 41.1388 88.6675 46.3361C86.6201 47.9948 84.1745 49.0935 81.5802 49.5201C76.5242 50.3977 64.7973 52.7064 59.4308 56.0574C59.4308 56.0574 62.7135 46.8594 67.7779 40.7065C67.7719 40.7062 59.7978 48.909 58.4631 54.0313Z" fill="#32BB4E"/>
<path d="M61.479 57.7312C61.479 57.7312 91.0482 44.2544 97.8078 63.0502C99.9565 69.0306 94.5365 75.9358 89.904 77.3051C89.904 77.3051 92.1366 85.8611 81.589 90.1768C81.589 90.1768 75.104 93.1911 69.751 87.2281C68.0435 85.2855 66.8951 82.9197 66.4232 80.3724C65.4531 75.4145 62.925 63.9252 59.4535 58.7872C59.4535 58.7872 68.793 61.5587 75.0943 66.2478C75.0856 66.2615 66.6757 58.7895 61.479 57.7312Z" fill="#32BB4E"/>
<path d="M58.5669 61.8878C58.5669 61.8878 70.6336 91.3863 51.3169 97.7594C45.1722 99.7875 38.4794 94.3046 37.3356 89.6987C37.3356 89.6987 28.5803 91.7589 24.7765 81.2488C24.7765 81.2488 22.0705 74.7782 28.3678 69.5794C30.4148 67.9211 32.8599 66.8226 35.4536 66.3959C40.5092 65.5183 52.2364 63.2095 57.6016 59.8595C57.6016 59.8595 54.3188 69.0576 49.2544 75.2105C49.2542 75.2107 57.2307 67.0106 58.5669 61.8878Z" fill="#32BB4E"/>
</g>
<defs>
<clipPath id="clip0_1513_1891">
<rect width="86.6594" height="86.6594" fill="white" transform="translate(0 44.0469) rotate(-30.5487)"/>
</clipPath>
</defs>
</svg>
