<svg width="76" height="32" viewBox="0 0 76 32" fill="none" xmlns="http://www.w3.org/2000/svg">
<path fill-rule="evenodd" clip-rule="evenodd" d="M24.5373 7.5107C23.4285 6.39455 22.1092 5.50953 20.6558 4.9069C19.2025 4.30428 17.644 3.99604 16.0707 4.00004C9.47333 4.00004 4.10267 9.36937 4.1 15.9694C4.1 18.0787 4.65067 20.1374 5.69733 21.9534L4 28.1547L10.3453 26.4894C12.1005 27.4448 14.0669 27.9458 16.0653 27.9467H16.0707C22.6667 27.9467 28.0373 22.5774 28.04 15.9774C28.0445 14.4047 27.7373 12.8467 27.1361 11.3935C26.5349 9.94021 25.6516 8.62053 24.5373 7.5107ZM16.0707 25.9267H16.0667C14.2847 25.9269 12.5355 25.4475 11.0027 24.5387L10.64 24.3227L6.87467 25.3107L7.87867 21.64L7.64267 21.264C6.64638 19.6779 6.11898 17.8424 6.12133 15.9694C6.124 10.484 10.5867 6.02137 16.0747 6.02137C17.3817 6.01847 18.6763 6.27481 19.8835 6.77557C21.0908 7.27633 22.1868 8.01156 23.108 8.9387C24.0342 9.86143 24.7683 10.9586 25.2678 12.1667C25.7674 13.3748 26.0226 14.67 26.0187 15.9774C26.016 21.4627 21.5533 25.9267 16.0707 25.9267ZM21.528 18.4747C21.228 18.324 19.7587 17.6014 19.484 17.5014C19.2107 17.4014 19.012 17.352 18.812 17.6507C18.612 17.9494 18.0387 18.6227 17.864 18.8227C17.6893 19.0227 17.5147 19.0467 17.216 18.8974C16.9173 18.748 15.9533 18.432 14.8107 17.4134C13.9213 16.62 13.3213 15.6414 13.1467 15.3414C12.972 15.0414 13.128 14.88 13.2787 14.7307C13.4133 14.5974 13.5773 14.3814 13.7267 14.2067C13.876 14.032 13.9253 13.908 14.0253 13.708C14.1253 13.508 14.076 13.3334 14 13.184C13.9253 13.0334 13.3267 11.5614 13.0773 10.9627C12.836 10.3827 12.5893 10.46 12.4053 10.452C12.2148 10.4442 12.0241 10.4407 11.8333 10.4414C11.6817 10.4452 11.5324 10.4804 11.395 10.5446C11.2576 10.6089 11.1349 10.7008 11.0347 10.8147C10.76 11.1147 9.988 11.8374 9.988 13.3094C9.988 14.7814 11.06 16.204 11.2093 16.404C11.3587 16.604 13.3187 19.624 16.3187 20.92C17.0333 21.228 17.5907 21.412 18.024 21.5507C18.74 21.7787 19.392 21.7454 19.908 21.6694C20.4827 21.584 21.6773 20.9467 21.9267 20.248C22.176 19.5494 22.176 18.9507 22.1013 18.8254C22.0267 18.7 21.8253 18.624 21.528 18.4747Z" fill="white"/>
<path d="M59.9983 9.83594C58.3632 9.83594 56.795 10.4855 55.6388 11.6417C54.4826 12.7979 53.833 14.3661 53.833 16.0013C53.833 17.6364 54.4826 19.2046 55.6388 20.3608C56.795 21.517 58.3632 22.1666 59.9983 22.1666C61.6335 22.1666 63.2017 21.517 64.3579 20.3608C65.5141 19.2046 66.1637 17.6364 66.1637 16.0013C66.1637 14.3661 65.5141 12.7979 64.3579 11.6417C63.2017 10.4855 61.6335 9.83594 59.9983 9.83594ZM59.9983 20.0053C58.9361 20.0053 57.9173 19.5833 57.1661 18.8321C56.415 18.081 55.993 17.0622 55.993 15.9999C55.993 14.9377 56.415 13.9189 57.1661 13.1677C57.9173 12.4166 58.9361 11.9946 59.9983 11.9946C61.0606 11.9946 62.0794 12.4166 62.8305 13.1677C63.5817 13.9189 64.0037 14.9377 64.0037 15.9999C64.0037 17.0622 63.5817 18.081 62.8305 18.8321C62.0794 19.5833 61.0606 20.0053 59.9983 20.0053Z" fill="white"/>
<path d="M66.408 11.0465C67.2019 11.0465 67.8454 10.403 67.8454 9.60921C67.8454 8.81539 67.2019 8.17188 66.408 8.17188C65.6142 8.17188 64.9707 8.81539 64.9707 9.60921C64.9707 10.403 65.6142 11.0465 66.408 11.0465Z" fill="white"/>
<path d="M71.3776 8.14817C71.0689 7.35108 70.5972 6.62721 69.9927 6.02291C69.3882 5.41862 68.6641 4.9472 67.8669 4.63884C66.934 4.28865 65.9485 4.09929 64.9523 4.07884C63.6683 4.02284 63.2616 4.00684 60.0056 4.00684C56.7496 4.00684 56.3323 4.00684 55.0589 4.07884C54.0634 4.09824 53.0786 4.28764 52.1469 4.63884C51.3495 4.94684 50.6253 5.41813 50.0207 6.02247C49.4161 6.62682 48.9446 7.35087 48.6363 8.14817C48.286 9.08099 48.0971 10.0666 48.0776 11.0628C48.0203 12.3455 48.0029 12.7522 48.0029 16.0095C48.0029 19.2655 48.0029 19.6802 48.0776 20.9562C48.0976 21.9535 48.2856 22.9375 48.6363 23.8722C48.9454 24.6692 49.4175 25.3929 50.0222 25.9972C50.6269 26.6015 51.351 27.0729 52.1483 27.3815C53.0782 27.7458 54.0634 27.9487 55.0616 27.9815C56.3456 28.0375 56.7523 28.0548 60.0083 28.0548C63.2643 28.0548 63.6816 28.0548 64.9549 27.9815C65.9511 27.9612 66.9366 27.7723 67.8696 27.4228C68.6666 27.1138 69.3904 26.6419 69.9949 26.0375C70.5994 25.433 71.0712 24.7092 71.3803 23.9122C71.7309 22.9788 71.9189 21.9948 71.9389 20.9975C71.9963 19.7148 72.0136 19.3082 72.0136 16.0508C72.0136 12.7935 72.0136 12.3802 71.9389 11.1042C71.9234 10.0939 71.7335 9.09383 71.3776 8.14817ZM69.7536 20.8575C69.745 21.6259 69.6047 22.3872 69.3389 23.1082C69.1387 23.6267 68.8322 24.0975 68.439 24.4904C68.0459 24.8833 67.5749 25.1896 67.0563 25.3895C66.3432 25.6541 65.5901 25.7944 64.8296 25.8042C63.5629 25.8628 63.2056 25.8775 59.9576 25.8775C56.7069 25.8775 56.3749 25.8775 55.0843 25.8042C54.3242 25.7949 53.5714 25.6546 52.8589 25.3895C52.3385 25.1908 51.8656 24.8851 51.4708 24.4921C51.076 24.0991 50.768 23.6277 50.5669 23.1082C50.3049 22.3949 50.1647 21.6426 50.1523 20.8828C50.0949 19.6162 50.0816 19.2588 50.0816 16.0108C50.0816 12.7615 50.0816 12.4295 50.1523 11.1375C50.1609 10.3695 50.3011 9.60873 50.5669 8.88817C50.9736 7.83617 51.8069 7.00817 52.8589 6.6055C53.5717 6.34169 54.3243 6.20145 55.0843 6.19084C56.3523 6.1335 56.7083 6.1175 59.9576 6.1175C63.2069 6.1175 63.5403 6.1175 64.8296 6.19084C65.5901 6.19999 66.3434 6.34026 67.0563 6.6055C67.5748 6.80587 68.0458 7.11244 68.4389 7.50554C68.832 7.89865 69.1386 8.3696 69.3389 8.88817C69.601 9.60143 69.7412 10.3537 69.7536 11.1135C69.8109 12.3815 69.8256 12.7375 69.8256 15.9868C69.8256 19.2348 69.8256 19.5842 69.7683 20.8588H69.7536V20.8575Z" fill="white"/>
</svg>
