<svg width="320" height="309" viewBox="0 0 320 309" fill="none" xmlns="http://www.w3.org/2000/svg">
<g opacity="0.1" clip-path="url(#clip0_1540_1683)">
<path d="M369.005 84.0091C357.208 63.7392 336.359 49.1901 313.221 45.1699C287.178 40.6493 259.94 49.0297 242.157 67.0429C225.954 83.4392 219.096 107.152 223.719 129.033C210.746 128.72 197.644 130.599 185.276 134.638C182.138 110.232 165.059 88.5488 141.088 79.4531C101.937 64.5421 54.5097 84.5439 37.5921 123.047C27.2377 146.627 30.605 174.416 46.1743 193.85C60.444 211.651 83.6559 221.414 107.952 220.249C105.15 220.383 103.809 250.248 103.978 253.261C107.078 321.761 179.729 368.093 244.251 355.981C278.434 349.555 306.67 325.428 322.713 295.159C330.721 280.108 336.215 263.298 336.935 246.185C337.329 236.022 336.103 225.907 333.459 216.079C332.612 212.906 323.37 185.05 320.329 185.712C345.429 179.854 366.224 162.324 374.533 139.514C381.096 121.279 379.162 101.562 369.005 84.0091Z" fill="#2E3D45"/>
</g>
<defs>
<clipPath id="clip0_1540_1683">
<rect width="373.138" height="373.138" fill="white" transform="translate(0 60.4453) rotate(-9.32226)"/>
</clipPath>
</defs>
</svg>
