<svg width="42" height="42" viewBox="0 0 42 42" fill="none" xmlns="http://www.w3.org/2000/svg">
<g clip-path="url(#clip0_1408_1644)">
<path d="M11.3467 14.6405C12.2902 13.6493 13.5417 13.0703 15.012 13.0703C17.8763 13.0703 19.7753 15.1616 20.1386 18.2945C20.2564 19.3119 20.2554 20.7463 20.2542 22.4076C20.254 22.578 20.2539 22.7508 20.2539 22.9258V29.1496H16.315V24.5462C16.315 24.5462 16.307 20.6064 16.2829 19.8701C16.1772 16.6632 14.2787 14.6481 11.3463 14.646C10.4616 15.5807 9.98761 16.7235 9.9177 18.4709C9.90809 18.7147 9.91051 19.5786 9.91369 20.7171C9.91534 21.3071 9.9172 21.9708 9.9177 22.6601C9.92062 25.6606 9.9177 29.1502 9.9177 29.1502H5.97877V22.0658C5.97877 21.823 5.97434 21.5782 5.96991 21.3324C5.96097 20.838 5.95197 20.3398 5.97877 19.8465C6.02327 19.0241 6.16554 18.2157 6.54929 17.4647C7.42768 15.7441 9.22751 14.6363 11.1463 14.6363C11.2133 14.6363 11.2804 14.6378 11.3467 14.6404V14.6405Z" fill="#820AD1"/>
<path d="M35.7787 22.754C35.8055 22.2607 35.7965 21.7625 35.7876 21.2681C35.7831 21.0223 35.7787 20.7775 35.7787 20.5348V13.4503H31.8398C31.8398 13.4503 31.8369 16.9399 31.8398 19.9404C31.8403 20.6297 31.8421 21.2934 31.8438 21.8833C31.847 23.0219 31.8494 23.8858 31.8398 24.1296C31.7699 25.8771 31.2958 27.0199 30.4112 27.9546C27.4789 27.9525 25.5804 25.9373 25.4746 22.7304C25.4506 21.9941 25.4404 20.1669 25.4404 18.0506V13.4473L21.5044 13.4509V19.6747C21.5044 19.8497 21.5042 20.0224 21.5042 20.1928C21.5029 21.8542 21.5019 23.2885 21.6197 24.306C21.9822 27.4389 23.8813 29.5301 26.7456 29.5301C28.2159 29.5301 29.4674 28.9511 30.4109 27.9599C30.4772 27.9625 30.5442 27.964 30.6112 27.964C32.53 27.964 34.3298 26.8562 35.2082 25.1357C35.592 24.3846 35.7342 23.5762 35.7787 22.7538L35.7787 22.754Z" fill="#820AD1"/>
</g>
<defs>
<clipPath id="clip0_1408_1644">
<rect width="41.2619" height="41.2619" fill="white" transform="translate(0.24707 0.669922)"/>
</clipPath>
</defs>
</svg>
