<svg width="274" height="53" viewBox="0 0 274 53" fill="none" xmlns="http://www.w3.org/2000/svg">
<g clip-path="url(#clip0_1447_1759)">
<path fill-rule="evenodd" clip-rule="evenodd" d="M123.673 22.5028H120.463L120.197 23.6795H123.673C126.852 23.6795 127.926 24.5446 127.926 27.1078V28.3486C127.137 27.5417 125.743 27.1325 123.772 27.1325C120.629 27.1325 119.101 28.4947 119.101 31.2959V31.4998C119.101 34.1262 120.606 35.4583 123.573 35.4583H124.372C127.515 35.4583 129.11 34.1262 129.11 31.4998V27.1078C129.11 23.8369 127.534 22.5028 123.673 22.5028ZM127.926 31.6696C127.926 33.5492 126.92 34.2816 124.339 34.2816H123.839C121.348 34.2816 120.285 33.4493 120.285 31.4998V31.2959C120.285 29.1783 121.298 28.2754 123.673 28.2754H123.872C126.713 28.2754 127.926 29.1479 127.926 31.1936V31.6696V31.6696ZM41.2467 24.8113L41.8781 21.6682H36.4428V17.3744L32.6274 17.9634V30.7885C32.6274 35.2223 34.3289 36.5417 38.9679 36.5417H40.999L41.6308 33.4262H39.2424C37.1291 33.4262 36.4425 32.8937 36.4425 30.5358V24.8113H41.2467V24.8113ZM15.0323 15.8866V29.6663C15.0323 34.774 17.3378 36.9067 22.3612 36.9067C27.5766 36.9067 29.8824 34.8302 29.8824 29.6941V28.3754C29.8824 23.5484 27.741 21.1908 23.0749 21.1908C21.5924 21.1908 19.9728 21.4993 18.8748 22.3691V15.2692L15.0323 15.8862V15.8866ZM22.4983 24.2775C25.1334 24.2775 26.067 25.3442 26.067 28.5151V29.6941C26.067 32.7807 25.1334 33.8477 22.4435 33.8477C19.7536 33.8477 18.8196 32.7807 18.8196 29.666V28.0665C18.8196 25.2318 19.7532 24.2775 22.498 24.2775H22.4983ZM50.4696 21.1908C45.4462 21.1908 43.1404 23.3516 43.1404 28.2908V29.0486C43.1404 33.7351 45.1443 36.0082 49.8653 36.0082C51.3752 36.0082 52.8851 35.728 53.9554 34.8576V35.4195C53.9554 38.0576 52.8303 38.9267 50.1949 38.9267H48.6171C47.7152 38.9431 47.3054 39.1069 46.7619 40.0178L46.7589 40.0164C42.2328 47.3397 34.375 51.8136 25.8116 51.8136C12.1482 51.8136 1.03257 40.4497 1.03257 26.4804C1.03257 12.5114 12.1482 1.14743 25.8116 1.14743C35.4089 1.14743 44.1398 6.82975 48.2246 15.6726H49.3632C45.2001 6.20366 35.9712 0.0917969 25.8116 0.0917969C11.5792 0.0917969 0 11.9298 0 26.4804C0 41.0313 11.5792 52.8693 25.8116 52.8693C34.1818 52.8693 41.9062 48.7664 46.7218 41.9576H50.4145C55.2731 41.9576 57.7712 40.0776 57.7712 35.2788V28.0384C57.7712 23.2673 55.3831 21.1908 50.4696 21.1908V21.1908ZM53.9832 29.5256C53.9832 32.1637 53.0773 32.9773 50.47 32.9773C47.5324 32.9773 46.9561 31.939 46.9561 28.8804V28.4034C46.9561 25.3719 47.4775 24.2775 50.4696 24.2775C53.4066 24.2775 53.9832 25.3442 53.9832 28.4312V29.5256V29.5256ZM131.555 35.4583H132.739V17.6348H131.555V35.4583H131.555ZM104.872 23.6798L105.138 22.5028H99.8408V19.138L98.6234 19.3603V30.8871C98.6234 34.1697 99.8265 35.3904 103.062 35.3904H104.811L105.032 34.2138H103.062C100.623 34.2138 99.8408 33.4222 99.8408 30.9546V23.6801H104.873L104.872 23.6798ZM115.838 30.3426C115.838 33.3761 114.91 34.3495 112.018 34.3495C109.212 34.3495 108.265 33.3387 108.265 30.3426V22.5028H107.047V30.3426C107.047 34.073 108.441 35.5261 112.018 35.5261C115.573 35.5261 117.022 34.0249 117.022 30.3426V22.5028H115.838V30.3426ZM89.0522 29.4915V28.4018C89.0522 24.9153 90.2171 23.6798 93.5047 23.6798H96.2825L96.5472 22.5028H93.505C89.584 22.5028 87.8344 24.322 87.8344 28.4014V29.4915C87.8344 33.571 89.5837 35.3904 93.505 35.3904H96.3149L96.5807 34.2138H93.505C90.3003 34.2138 89.0525 32.8897 89.0525 29.4915H89.0522ZM80.2858 22.5028H77.0755L76.8104 23.6795H80.2858C83.4407 23.6795 84.505 24.5446 84.505 27.1078V28.3486C83.7172 27.5417 82.3229 27.1325 80.352 27.1325C77.2092 27.1325 75.6812 28.4947 75.6812 31.2959V31.4998C75.6812 34.1262 77.1965 35.4583 80.1856 35.4583H80.9848C84.1069 35.4583 85.6897 34.1262 85.6897 31.4998V27.1078C85.6897 23.8369 84.124 22.5028 80.2858 22.5028ZM84.505 31.6696C84.505 33.574 83.542 34.2816 80.9517 34.2816H80.4523C77.9386 34.2816 76.8655 33.4493 76.8655 31.4998V31.2959C76.8655 29.1783 77.8784 28.2754 80.2524 28.2754H80.4523C83.293 28.2754 84.505 29.1479 84.505 31.1936V31.6696V31.6696ZM68.365 22.2986C64.6104 22.2986 62.8615 24.1949 62.8615 28.2654V39.3392H64.0458V33.6529C64.9029 34.7917 66.5007 35.4583 68.4315 35.4583C72.169 35.4583 73.8357 33.6178 73.8357 29.4915V28.2316C73.8357 24.1284 72.1483 22.2983 68.365 22.2983V22.2986ZM72.6176 29.4912C72.6176 32.9833 71.4834 34.2813 68.4315 34.2813C65.5434 34.2813 64.0789 32.8416 64.0789 30.0016V28.2654C64.0789 24.8625 65.3207 23.4749 68.365 23.4749C71.4252 23.4749 72.6176 24.8083 72.6176 28.2316V29.4912V29.4912Z" fill="#001E61"/>
</g>
<g clip-path="url(#clip1_1447_1759)">
<path opacity="0.5" d="M170.724 28.5H159.041V31.8333H170.724V36.8333L177.374 30.1667L170.724 23.5V28.5Z" fill="#0B5EBF"/>
<path d="M182.024 24.8333V29.8333L175.374 23.1667L182.024 16.5V21.5H193.707V24.8333H182.024Z" fill="#0B5EBF"/>
</g>
<path d="M235.786 9.34527H256.894C259.811 9.34527 262.172 11.9775 262.172 15.2192V38.705C262.172 41.946 259.811 44.5723 256.894 44.5723H235.786C232.868 44.5723 230.507 41.946 230.507 38.705V15.2192C230.507 11.9775 232.868 9.34527 235.786 9.34527Z" fill="#004990"/>
<path d="M233.145 38.6973H235.606V26.952H233.145V38.6973Z" fill="#FFE512"/>
<path d="M246.635 29.6482C245.126 29.6482 244 30.0845 243.389 30.4805L243.851 32.2111C244.406 31.8376 245.362 31.5024 246.225 31.5024C247.666 31.4978 247.97 32.3122 247.97 32.7247V32.8192C244.779 32.804 242.808 33.9568 242.808 36.2328C242.808 37.572 243.762 38.9238 245.522 38.9238C246.571 38.9238 247.457 38.5008 247.994 37.7928H248.02L248.29 38.7077H250.293V33.5014C250.293 31.3854 249.359 29.6482 246.635 29.6482ZM248.041 35.4587C248.041 35.5982 248.029 35.7575 248 35.9016C247.997 35.9201 247.981 35.9816 247.976 35.9948C247.97 36.0093 247.965 36.0245 247.96 36.0391C247.741 36.6129 247.164 37.1529 246.386 37.1529C245.71 37.1529 245.243 36.7629 245.243 36.0232C245.243 35.1943 245.879 34.7673 246.827 34.6047C247.049 34.5657 247.293 34.5425 247.555 34.5313C247.712 34.5253 247.874 34.5233 248.041 34.526V35.4587Z" fill="#FFE512"/>
<path d="M257.094 29.9044V35.0637C257.094 35.2713 257.071 35.4564 257.011 35.6229C256.814 36.1524 256.328 36.752 255.529 36.752C254.524 36.752 254.084 35.9303 254.084 34.5567V29.8984H251.681V35.0459C251.681 35.7347 251.756 36.3203 251.905 36.8029C252.053 37.2854 252.256 37.6854 252.515 37.998C252.773 38.3127 253.084 38.5421 253.444 38.6868C253.805 38.8316 254.204 38.9043 254.639 38.9043C255.018 38.9043 255.353 38.8527 255.646 38.7496C255.939 38.6478 256.191 38.5235 256.403 38.3781C256.615 38.2347 256.792 38.0773 256.936 37.9075C257.079 37.7389 257.192 37.5882 257.272 37.4547L257.582 38.7047H259.531V29.9044H257.094Z" fill="#FFE512"/>
<path d="M237.915 26.9618V29.9008H236.793V31.9083H237.915V35.4871C237.915 36.671 238.128 37.5601 238.59 38.1008C238.986 38.5735 239.681 38.9238 240.524 38.9238C241.248 38.9238 241.533 38.8035 241.858 38.6634V36.6188C241.791 36.6538 241.602 36.6955 241.355 36.6955C240.502 36.6955 240.305 36.1052 240.305 35.0264V31.9083H241.832V29.9008H240.305V26.9618H237.915Z" fill="#FFE512"/>
<path d="M256.187 26.955L254.703 29.3281H256.42L258.512 26.955H256.187Z" fill="#FFE512"/>
<defs>
<clipPath id="clip0_1447_1759">
<rect width="133.041" height="52.8152" fill="white" transform="translate(0 0.0917969)"/>
</clipPath>
<clipPath id="clip1_1447_1759">
<rect width="40" height="40" fill="white" transform="translate(157.041 6.5)"/>
</clipPath>
</defs>
</svg>
