<svg width="256" height="199" viewBox="0 0 256 199" fill="none" xmlns="http://www.w3.org/2000/svg">
<g filter="url(#filter0_d_375_1856)">
<mask id="path-1-inside-1_375_1856" fill="white">
<path d="M20 20C20 17.7909 21.7909 16 24 16H232C234.209 16 236 17.7909 236 20V168C236 170.209 234.209 172 232 172H24C21.7909 172 20 170.209 20 168V20Z"/>
</mask>
<path d="M20 20C20 17.7909 21.7909 16 24 16H232C234.209 16 236 17.7909 236 20V168C236 170.209 234.209 172 232 172H24C21.7909 172 20 170.209 20 168V20Z" fill="#32BB4E" shape-rendering="crispEdges"/>
<g clip-path="url(#clip0_375_1856)">
<path d="M46.2793 49.8371C46.2793 49.8371 45.1938 55.1962 38.599 55.9264L38.097 53.3602C44.3384 54.9085 46.2793 49.8371 46.2793 49.8371Z" fill="white"/>
<path d="M47.2603 43.1946C47.2603 43.1946 38.3107 42.2465 39.3445 36.8139C39.6738 35.0851 41.9385 34.2011 43.2361 34.5266C43.2361 34.5266 43.908 32.1716 47.0312 32.627C47.0312 32.627 49.0022 32.821 49.4395 34.9967C49.5736 35.7005 49.5145 36.4265 49.2684 37.1006C48.8032 38.4176 47.7892 41.5134 47.8938 43.2275C47.8938 43.2275 46.0564 41.2518 45.2159 39.246C45.216 39.2459 46.1705 42.2118 47.2603 43.1946Z" fill="white"/>
<path d="M48.5398 42.6145C48.5398 42.6145 49.8136 33.8805 55.3195 35.0795C57.0709 35.4606 57.895 37.7105 57.5194 38.97C57.5194 38.97 59.898 39.711 59.3254 42.7532C59.3254 42.7532 59.06 44.6774 56.8269 45.0308C56.1051 45.1382 55.3671 45.056 54.6883 44.7926C53.3589 44.2902 50.237 43.1901 48.4854 43.2339C48.4854 43.2339 50.5631 41.5022 52.6371 40.7476C52.6357 40.7467 49.5791 41.5807 48.5398 42.6145Z" fill="white"/>
<path d="M48.7371 43.9189C48.7371 43.9189 57.6866 44.8669 56.653 50.3013C56.3237 52.0301 54.0589 52.9141 52.7613 52.5886C52.7613 52.5886 52.0894 54.9435 48.9663 54.4881C48.9663 54.4881 46.9953 54.2942 46.5579 52.1185C46.4241 51.4148 46.4832 50.6889 46.7292 50.0149C47.1958 48.6959 48.2101 45.5998 48.1053 43.8857C48.1053 43.8857 49.9427 45.8613 50.7856 47.8667C50.7816 47.8687 49.8276 44.9028 48.7371 43.9189Z" fill="white"/>
<path d="M47.4588 44.4999C47.4588 44.4999 46.1845 53.234 40.6802 52.0349C38.9292 51.6537 38.1047 49.4039 38.4803 48.1443C38.4803 48.1443 36.1021 47.4033 36.6743 44.3611C36.6743 44.3611 36.9397 42.437 39.1734 42.0834C39.8951 41.9761 40.6329 42.0583 41.3116 42.3216C42.6409 42.8239 45.7629 43.924 47.5141 43.8803C47.5141 43.8803 45.4364 45.612 43.3624 46.3666C43.3623 46.3666 46.419 45.5336 47.4588 44.4999Z" fill="white"/>
</g>
<path d="M71.104 40.144V50H73.072V38.304H68.544V40.144H71.104ZM75.063 44.176C75.063 47.792 76.903 50.208 80.007 50.208C83.111 50.208 84.967 47.792 84.967 44.176C84.967 40.544 82.999 38.08 80.007 38.08C77.015 38.08 75.063 40.544 75.063 44.176ZM77.079 44.176C77.079 41.408 78.167 39.888 80.007 39.888C81.863 39.888 82.951 41.408 82.951 44.176C82.951 46.88 81.863 48.4 80.007 48.4C78.167 48.4 77.079 46.88 77.079 44.176ZM93.2808 50V41.712L98.7847 50H100.801V38.304H98.7847V46.592L93.2968 38.304H91.2648V50H93.2808ZM108.99 38.784H107.182L105.982 41.152H107.438L108.99 38.784ZM108.462 42.096V46.24C108.462 47.744 107.87 48.464 106.638 48.464C105.55 48.464 104.958 47.856 104.958 46.352V42.096H103.006V47.04C103.006 48.976 104.078 50.208 105.902 50.208C106.958 50.208 107.982 49.696 108.462 48.944L108.606 50H110.414V42.096H108.462ZM114.382 50V45.52C114.382 44.24 115.134 43.632 116.062 43.632C116.99 43.632 117.582 44.224 117.582 45.328V50H119.534V45.52C119.534 44.224 120.254 43.616 121.198 43.616C122.126 43.616 122.734 44.208 122.734 45.344V50H124.67V44.832C124.67 43.008 123.614 41.856 121.694 41.856C120.494 41.856 119.566 42.448 119.166 43.36C118.75 42.448 117.918 41.856 116.718 41.856C115.582 41.856 114.782 42.368 114.382 43.024L114.222 42.096H112.43V50H114.382ZM130.122 50.208C132.186 50.208 133.626 49.168 133.962 47.44H132.154C131.93 48.192 131.226 48.608 130.154 48.608C128.858 48.608 128.122 47.904 127.978 46.512L133.93 46.496V45.904C133.93 43.44 132.426 41.856 130.058 41.856C127.738 41.856 126.122 43.568 126.122 46.048C126.122 48.496 127.77 50.208 130.122 50.208ZM130.074 43.456C131.242 43.456 131.994 44.176 131.994 45.264H128.026C128.218 44.08 128.922 43.456 130.074 43.456ZM140.452 42.064C140.132 41.984 139.86 41.952 139.588 41.952C138.532 41.952 137.78 42.48 137.444 43.264L137.332 42.112H135.492V50H137.444V46.16C137.444 44.624 138.324 43.872 139.732 43.872H140.452V42.064ZM141.044 46.032C141.044 48.496 142.82 50.192 145.268 50.192C147.716 50.192 149.492 48.496 149.492 46.032C149.492 43.568 147.716 41.872 145.268 41.872C142.82 41.872 141.044 43.568 141.044 46.032ZM142.996 46.032C142.996 44.592 143.924 43.616 145.268 43.616C146.612 43.616 147.54 44.592 147.54 46.032C147.54 47.472 146.612 48.448 145.268 48.448C143.924 48.448 142.996 47.472 142.996 46.032ZM150.431 47.6C150.431 49.152 151.679 50.208 153.647 50.208C155.599 50.208 156.959 49.216 156.959 47.616C156.959 46.4 156.287 45.792 154.959 45.488L153.535 45.152C152.863 44.992 152.511 44.704 152.511 44.256C152.511 43.664 152.959 43.312 153.727 43.312C154.479 43.312 154.927 43.744 154.943 44.416H156.799C156.783 42.88 155.583 41.856 153.807 41.856C151.983 41.856 150.671 42.784 150.671 44.336C150.671 45.6 151.359 46.272 152.783 46.592L154.207 46.928C154.911 47.088 155.119 47.376 155.119 47.776C155.119 48.352 154.623 48.72 153.711 48.72C152.815 48.72 152.303 48.288 152.287 47.6H150.431Z" fill="white"/>
<path d="M43.524 114V104.172H49.176L53.64 114H58.68L53.676 103.2C56.772 101.94 58.428 99.42 58.428 95.892C58.428 90.708 54.936 87.684 48.96 87.684H38.916V114H43.524ZM43.524 91.788H48.96C51.876 91.788 53.604 93.264 53.604 95.892C53.604 98.556 51.876 100.104 48.96 100.104H43.524V91.788ZM69.4772 117.42H72.2492V114.36C77.0732 113.82 80.1692 110.796 80.1692 106.404C80.1692 102.588 78.0812 100.356 73.4732 99.348L72.2492 99.06V91.32C74.1212 91.716 75.2012 92.976 75.2732 94.92H79.7372C79.5932 90.6 76.7852 87.756 72.2492 87.288V84.228H69.4772V87.288C64.6892 87.792 61.5212 90.816 61.5212 95.028C61.5212 98.988 63.7892 101.508 68.3252 102.48L69.4772 102.732V110.4C67.1372 110.112 65.8052 108.816 65.7692 106.764H61.1612C61.2692 111.156 64.4732 114.072 69.4772 114.432V117.42ZM69.3332 98.412C67.0292 97.908 66.0212 96.792 66.0212 94.884C66.0212 92.94 67.3172 91.644 69.4772 91.284V98.448L69.3332 98.412ZM72.5012 103.38C74.6612 103.848 75.7052 104.964 75.7052 106.8C75.7052 108.636 74.4092 109.896 72.2492 110.328V103.308L72.5012 103.38ZM98.109 91.824V114H102.537V87.684H92.349V91.824H98.109ZM127.393 108.996V104.964H124.189V87.684H118.393L106.477 104.964V108.996H119.833V114H124.189V108.996H127.393ZM111.373 104.964L119.833 92.652V104.964H111.373ZM144.786 106.26C147.738 102.264 148.782 99.96 148.782 96.792C148.782 91.392 144.534 87.216 138.846 87.216C133.23 87.216 129.054 91.14 129.054 96.756C129.054 102.084 132.726 105.9 138.162 105.9C138.81 105.9 139.494 105.792 140.142 105.612L133.842 114H139.098L144.786 106.26ZM144.066 96.756C144.066 99.924 141.978 102.12 138.846 102.12C135.822 102.12 133.698 99.924 133.698 96.756C133.698 93.552 135.822 91.32 138.846 91.32C141.942 91.32 144.066 93.552 144.066 96.756ZM156.917 112.416C156.917 110.184 155.621 108.708 153.821 108.708C152.201 108.708 151.085 109.86 151.085 111.588C151.085 113.028 152.237 114.072 153.641 114.072C154.073 114.072 154.397 114 154.685 113.856C154.685 115.116 153.461 116.088 151.841 116.376V118.14C154.757 117.78 156.917 115.404 156.917 112.416ZM175.442 106.26C178.394 102.264 179.438 99.96 179.438 96.792C179.438 91.392 175.19 87.216 169.502 87.216C163.886 87.216 159.71 91.14 159.71 96.756C159.71 102.084 163.382 105.9 168.818 105.9C169.466 105.9 170.15 105.792 170.798 105.612L164.498 114H169.754L175.442 106.26ZM174.722 96.756C174.722 99.924 172.634 102.12 169.502 102.12C166.478 102.12 164.354 99.924 164.354 96.756C164.354 93.552 166.478 91.32 169.502 91.32C172.598 91.32 174.722 93.552 174.722 96.756ZM182.286 100.896C182.286 109.032 186.426 114.468 193.41 114.468C200.394 114.468 204.57 109.032 204.57 100.896C204.57 92.724 200.142 87.18 193.41 87.18C186.678 87.18 182.286 92.724 182.286 100.896ZM186.822 100.896C186.822 94.668 189.27 91.248 193.41 91.248C197.586 91.248 200.034 94.668 200.034 100.896C200.034 106.98 197.586 110.4 193.41 110.4C189.27 110.4 186.822 106.98 186.822 100.896Z" fill="white"/>
<path opacity="0.7" d="M38.548 144V139.996H41.138L43.028 144H44.554L42.496 139.73C43.756 139.324 44.456 138.316 44.456 136.916C44.456 135.026 43.168 133.878 40.998 133.878H37.176V144H38.548ZM38.548 135.11H40.998C42.258 135.11 43.014 135.754 43.014 136.93C43.014 138.092 42.286 138.778 41.012 138.778H38.548V135.11ZM48.7582 145.358H49.6542V144.14C51.5022 143.972 52.6922 142.852 52.6922 141.186C52.6922 139.786 51.8802 138.904 50.2002 138.526L49.6542 138.4V134.928C50.5642 135.054 51.1102 135.628 51.1662 136.524H52.5242C52.4262 134.9 51.3482 133.864 49.6542 133.71V132.506H48.7582V133.724C46.9382 133.878 45.7482 135.012 45.7482 136.608C45.7482 138.05 46.6022 138.974 48.2542 139.352L48.7582 139.464V142.95C47.6942 142.838 47.0362 142.25 47.0082 141.354H45.6082C45.6922 142.992 46.9102 144.042 48.7582 144.154V145.358ZM48.5342 138.134C47.5542 137.896 47.0922 137.378 47.0922 136.566C47.0922 135.67 47.7222 135.068 48.7582 134.928V138.19L48.5342 138.134ZM49.9202 139.744C50.8862 139.968 51.3482 140.486 51.3482 141.298C51.3482 142.18 50.7042 142.782 49.6542 142.922V139.688L49.9202 139.744ZM64.5444 143.986V142.712H59.8684L61.9684 140.892C63.7604 139.338 64.4744 138.316 64.4744 136.874C64.4744 134.928 63.1724 133.696 61.1424 133.696C59.0844 133.696 57.7124 135.11 57.6704 137.28H59.0424C59.0704 135.838 59.8824 134.928 61.1284 134.928C62.3464 134.928 63.0744 135.684 63.0744 136.958C63.0744 138.036 62.6124 138.722 60.9744 140.136L57.7124 142.95V144L64.5444 143.986ZM68.1701 143.454C68.1701 142.684 67.6941 142.194 67.1061 142.194C66.5461 142.194 66.1681 142.6 66.1681 143.16C66.1681 143.678 66.5601 144.014 67.0221 144.014C67.1901 144.014 67.3021 143.986 67.4001 143.93C67.4001 144.364 66.9941 144.742 66.4201 144.84V145.428C67.4141 145.302 68.1701 144.462 68.1701 143.454ZM75.3241 140.794C76.3601 139.38 76.7241 138.526 76.7241 137.336C76.7241 135.278 75.1001 133.696 73.0001 133.696C70.9141 133.696 69.3181 135.222 69.3181 137.322C69.3181 139.338 70.7321 140.85 72.8321 140.85C73.1821 140.85 73.5461 140.78 73.8961 140.64L71.3621 144H72.9581L75.3241 140.794ZM75.3241 137.322C75.3241 138.708 74.3721 139.688 73.0001 139.688C71.6561 139.688 70.7041 138.708 70.7041 137.322C70.7041 135.936 71.6561 134.928 73.0001 134.928C74.3721 134.928 75.3241 135.936 75.3241 137.322ZM83.8827 140.794C84.9187 139.38 85.2827 138.526 85.2827 137.336C85.2827 135.278 83.6587 133.696 81.5587 133.696C79.4727 133.696 77.8767 135.222 77.8767 137.322C77.8767 139.338 79.2907 140.85 81.3907 140.85C81.7407 140.85 82.1047 140.78 82.4547 140.64L79.9207 144H81.5167L83.8827 140.794ZM83.8827 137.322C83.8827 138.708 82.9307 139.688 81.5587 139.688C80.2147 139.688 79.2627 138.708 79.2627 137.322C79.2627 135.936 80.2147 134.928 81.5587 134.928C82.9307 134.928 83.8827 135.936 83.8827 137.322ZM90.6415 147.066H91.9575V142.88C92.4055 143.72 93.3155 144.182 94.4075 144.182C96.4375 144.182 97.5855 142.614 97.5855 140.528C97.5855 138.428 96.3675 136.958 94.4075 136.958C93.3155 136.958 92.3915 137.448 91.9295 138.386L91.8315 137.154H90.6415V147.066ZM91.9715 140.584C91.9715 139.156 92.7835 138.162 94.1275 138.162C95.4715 138.162 96.2695 139.17 96.2695 140.584C96.2695 141.984 95.4715 142.992 94.1275 142.992C92.7835 142.992 91.9715 141.984 91.9715 140.584ZM98.588 140.57C98.588 142.684 100.1 144.168 102.158 144.168C104.202 144.168 105.714 142.684 105.714 140.57C105.714 138.456 104.202 136.972 102.158 136.972C100.1 136.972 98.588 138.456 98.588 140.57ZM99.918 140.57C99.918 139.142 100.828 138.148 102.158 138.148C103.474 138.148 104.398 139.142 104.398 140.57C104.398 141.998 103.474 142.992 102.158 142.992C100.828 142.992 99.918 141.998 99.918 140.57ZM111.091 137.098C110.825 137.042 110.629 137.014 110.391 137.014C109.453 137.014 108.767 137.49 108.487 138.204L108.403 137.168H107.171V144H108.487V140.374C108.487 139.058 109.257 138.302 110.503 138.302H111.091V137.098ZM117.469 144V140.374C117.469 139.044 118.183 138.162 119.415 138.162C120.423 138.162 121.067 138.722 121.067 140.108V144H122.383V139.814C122.383 138.064 121.557 136.958 119.751 136.958C118.785 136.958 117.917 137.42 117.483 138.204L117.343 137.154H116.153V144H117.469ZM128.896 134.494H127.608L126.67 136.356H127.692L128.896 134.494ZM128.938 137.154V140.766C128.938 142.236 128.28 143.006 127.076 143.006C126.068 143.006 125.438 142.446 125.438 140.976V137.154H124.122V141.41C124.122 143.09 125.018 144.168 126.614 144.168C127.622 144.168 128.532 143.678 128.924 142.964L129.064 144H130.24V137.154H128.938ZM133.465 144V139.94C133.465 138.848 134.123 138.162 135.117 138.162C136.041 138.162 136.629 138.75 136.629 139.828V144H137.931V139.94C137.931 138.848 138.589 138.148 139.583 138.148C140.507 138.148 141.109 138.764 141.109 139.842V144H142.397V139.52C142.397 137.938 141.445 136.958 139.877 136.958C138.813 136.958 137.987 137.49 137.665 138.344C137.315 137.49 136.559 136.958 135.495 136.958C134.529 136.958 133.801 137.406 133.451 138.05L133.325 137.154H132.149V144H133.465ZM147.176 144.168C148.87 144.168 150.018 143.342 150.354 141.872H149.122C148.898 142.656 148.226 143.076 147.204 143.076C145.902 143.076 145.146 142.278 145.048 140.836L150.34 140.822V140.332C150.34 138.302 149.066 136.958 147.12 136.958C145.132 136.958 143.774 138.442 143.774 140.584C143.774 142.712 145.16 144.168 147.176 144.168ZM147.12 138.064C148.282 138.064 149.024 138.82 149.024 139.954H145.076C145.244 138.75 145.972 138.064 147.12 138.064ZM155.729 137.098C155.463 137.042 155.267 137.014 155.029 137.014C154.091 137.014 153.405 137.49 153.125 138.204L153.041 137.168H151.809V144H153.125V140.374C153.125 139.058 153.895 138.302 155.141 138.302H155.729V137.098ZM156.27 140.57C156.27 142.684 157.782 144.168 159.84 144.168C161.884 144.168 163.396 142.684 163.396 140.57C163.396 138.456 161.884 136.972 159.84 136.972C157.782 136.972 156.27 138.456 156.27 140.57ZM157.6 140.57C157.6 139.142 158.51 138.148 159.84 138.148C161.156 138.148 162.08 139.142 162.08 140.57C162.08 141.998 161.156 142.992 159.84 142.992C158.51 142.992 157.6 141.998 157.6 140.57Z" fill="white"/>
<path d="M20 16H236H20ZM236 168C236 172.418 232.418 176 228 176H28C23.5817 176 20 172.418 20 168C20 168 21.7909 168 24 168H232C234.209 168 236 168 236 168ZM20 172V16V172ZM236 16V172V16Z" fill="#0F8427" mask="url(#path-1-inside-1_375_1856)"/>
</g>
<defs>
<filter id="filter0_d_375_1856" x="-5" y="0" width="266" height="206" filterUnits="userSpaceOnUse" color-interpolation-filters="sRGB">
<feFlood flood-opacity="0" result="BackgroundImageFix"/>
<feColorMatrix in="SourceAlpha" type="matrix" values="0 0 0 0 0 0 0 0 0 0 0 0 0 0 0 0 0 0 127 0" result="hardAlpha"/>
<feOffset dy="9"/>
<feGaussianBlur stdDeviation="12.5"/>
<feComposite in2="hardAlpha" operator="out"/>
<feColorMatrix type="matrix" values="0 0 0 0 0 0 0 0 0 0 0 0 0 0 0 0 0 0 0.15 0"/>
<feBlend mode="normal" in2="BackgroundImageFix" result="effect1_dropShadow_375_1856"/>
<feBlend mode="normal" in="SourceGraphic" in2="effect1_dropShadow_375_1856" result="shape"/>
</filter>
<clipPath id="clip0_375_1856">
<rect width="24" height="24" fill="white" transform="translate(36 32)"/>
</clipPath>
</defs>
</svg>
