<svg width="256" height="198" viewBox="0 0 256 198" fill="none" xmlns="http://www.w3.org/2000/svg">
<g filter="url(#filter0_d_375_1841)">
<mask id="path-1-inside-1_375_1841" fill="white">
<path d="M20 20C20 17.7909 21.7909 16 24 16H232C234.209 16 236 17.7909 236 20V160C236 162.209 234.209 164 232 164H24C21.7909 164 20 162.209 20 160V20Z"/>
</mask>
<path d="M20 20C20 17.7909 21.7909 16 24 16H232C234.209 16 236 17.7909 236 20V160C236 162.209 234.209 164 232 164H24C21.7909 164 20 162.209 20 160V20Z" fill="#32BB4E" shape-rendering="crispEdges"/>
<g clip-path="url(#clip0_375_1841)">
<path d="M46.2793 49.8371C46.2793 49.8371 45.1938 55.1962 38.599 55.9264L38.097 53.3602C44.3384 54.9085 46.2793 49.8371 46.2793 49.8371Z" fill="white"/>
<path d="M47.2603 43.1946C47.2603 43.1946 38.3107 42.2465 39.3445 36.8139C39.6738 35.0851 41.9385 34.2011 43.2361 34.5266C43.2361 34.5266 43.908 32.1716 47.0312 32.627C47.0312 32.627 49.0022 32.821 49.4395 34.9967C49.5736 35.7005 49.5145 36.4265 49.2684 37.1006C48.8032 38.4176 47.7892 41.5134 47.8938 43.2275C47.8938 43.2275 46.0564 41.2518 45.2159 39.246C45.216 39.2459 46.1705 42.2118 47.2603 43.1946Z" fill="white"/>
<path d="M48.5398 42.6145C48.5398 42.6145 49.8136 33.8805 55.3195 35.0795C57.0709 35.4606 57.895 37.7105 57.5194 38.97C57.5194 38.97 59.898 39.711 59.3254 42.7532C59.3254 42.7532 59.06 44.6774 56.8269 45.0308C56.1051 45.1382 55.3671 45.056 54.6883 44.7926C53.3589 44.2902 50.237 43.1901 48.4854 43.2339C48.4854 43.2339 50.5631 41.5022 52.6371 40.7476C52.6357 40.7467 49.5791 41.5807 48.5398 42.6145Z" fill="white"/>
<path d="M48.7371 43.9189C48.7371 43.9189 57.6866 44.8669 56.653 50.3013C56.3237 52.0301 54.0589 52.9141 52.7613 52.5886C52.7613 52.5886 52.0894 54.9435 48.9663 54.4881C48.9663 54.4881 46.9953 54.2942 46.5579 52.1185C46.4241 51.4148 46.4832 50.6889 46.7292 50.0149C47.1958 48.6959 48.2101 45.5998 48.1053 43.8857C48.1053 43.8857 49.9427 45.8613 50.7856 47.8667C50.7816 47.8687 49.8276 44.9028 48.7371 43.9189Z" fill="white"/>
<path d="M47.4588 44.4999C47.4588 44.4999 46.1845 53.234 40.6802 52.0349C38.9292 51.6537 38.1047 49.4039 38.4803 48.1443C38.4803 48.1443 36.1021 47.4033 36.6743 44.3611C36.6743 44.3611 36.9397 42.437 39.1734 42.0834C39.8951 41.9761 40.6329 42.0583 41.3116 42.3216C42.6409 42.8239 45.7629 43.924 47.5141 43.8803C47.5141 43.8803 45.4364 45.612 43.3624 46.3666C43.3623 46.3666 46.419 45.5336 47.4588 44.4999Z" fill="white"/>
</g>
<path d="M68.16 41.632V39.248L71.104 37.536H73.12V48H70.8V40.048L68.16 41.632ZM74.6381 42.72C74.6381 41.056 74.9581 39.7387 75.5981 38.768C76.2381 37.7973 77.1875 37.312 78.4461 37.312C79.7048 37.312 80.6541 37.7973 81.2941 38.768C81.9448 39.7387 82.2701 41.056 82.2701 42.72C82.2701 44.3627 81.9448 45.6747 81.2941 46.656C80.6541 47.6373 79.7048 48.128 78.4461 48.128C77.1875 48.128 76.2381 47.6427 75.5981 46.672C74.9581 45.6907 74.6381 44.3733 74.6381 42.72ZM78.4461 39.392C77.4968 39.392 77.0221 40.5013 77.0221 42.72C77.0221 44.9387 77.4968 46.048 78.4461 46.048C79.4061 46.048 79.8861 44.9387 79.8861 42.72C79.8861 40.5013 79.4061 39.392 78.4461 39.392ZM87.8681 48V37.216H90.5721L93.0841 41.68C93.4361 42.3093 93.7401 42.9013 93.9961 43.456C94.2628 44 94.4335 44.384 94.5081 44.608L94.6361 44.96C94.5295 44.1707 94.4761 43.0773 94.4761 41.68V37.216H96.9401V48H94.2361L91.6601 43.536C91.3188 42.96 91.0148 42.3947 90.7481 41.84C90.4921 41.2747 90.3161 40.8587 90.2201 40.592L90.0921 40.192C90.2521 41.152 90.3321 42.2667 90.3321 43.536V48H87.8681ZM105.504 36.32L103.728 39.152H101.792L103.168 36.32H105.504ZM103.968 39.888H106.304V48H103.968V46.704C103.542 47.6107 102.72 48.064 101.504 48.064C100.672 48.064 100.022 47.8347 99.5524 47.376C99.0937 46.9067 98.8644 46.2187 98.8644 45.312V39.888H101.2V44.784C101.2 45.7333 101.616 46.208 102.448 46.208C103.462 46.208 103.968 45.5307 103.968 44.176V39.888ZM110.562 39.888V41.152C111.01 40.256 111.772 39.808 112.85 39.808C113.991 39.808 114.748 40.32 115.122 41.344C115.303 40.864 115.607 40.4907 116.034 40.224C116.46 39.9467 116.962 39.808 117.538 39.808C118.338 39.808 118.967 40.064 119.426 40.576C119.895 41.0773 120.13 41.8187 120.13 42.8V48H117.794V43.184C117.794 42.7253 117.703 42.3627 117.522 42.096C117.34 41.8293 117.079 41.696 116.738 41.696C116.375 41.696 116.05 41.8453 115.762 42.144C115.484 42.432 115.346 42.9547 115.346 43.712V48H113.01V43.184C113.01 42.7253 112.919 42.3627 112.738 42.096C112.556 41.8293 112.295 41.696 111.954 41.696C111.591 41.696 111.266 41.8453 110.978 42.144C110.7 42.432 110.562 42.9547 110.562 43.712V48H108.226V39.888H110.562ZM126.664 43.2V43.008C126.589 42.0587 126.173 41.584 125.416 41.584C125.042 41.584 124.712 41.7227 124.424 42C124.136 42.2667 123.944 42.6667 123.848 43.2H126.664ZM128.344 45.584V47.536C127.789 47.8987 126.941 48.08 125.8 48.08C124.466 48.08 123.426 47.696 122.68 46.928C121.944 46.1493 121.576 45.152 121.576 43.936C121.576 42.6453 121.933 41.6373 122.648 40.912C123.373 40.176 124.264 39.808 125.32 39.808C126.408 39.808 127.266 40.128 127.896 40.768C128.525 41.3973 128.84 42.3413 128.84 43.6C128.84 43.8453 128.797 44.2667 128.712 44.864H123.944C124.104 45.312 124.381 45.6587 124.776 45.904C125.17 46.1493 125.645 46.272 126.2 46.272C127.021 46.272 127.736 46.0427 128.344 45.584ZM132.827 39.888V41.392C132.976 40.9227 133.222 40.5493 133.563 40.272C133.915 39.984 134.32 39.84 134.779 39.84C135.035 39.84 135.238 39.8613 135.387 39.904V42.112C135.131 41.9947 134.838 41.936 134.507 41.936C134.006 41.936 133.6 42.1227 133.291 42.496C132.982 42.8587 132.827 43.344 132.827 43.952V48H130.491L130.507 39.888H132.827ZM140.013 48.128C138.743 48.128 137.762 47.7493 137.069 46.992C136.375 46.224 136.029 45.2427 136.029 44.048C136.029 42.8 136.391 41.776 137.117 40.976C137.842 40.1653 138.807 39.76 140.013 39.76C141.271 39.76 142.247 40.1493 142.941 40.928C143.634 41.7067 143.981 42.6987 143.981 43.904C143.981 45.1307 143.629 46.144 142.925 46.944C142.231 47.7333 141.261 48.128 140.013 48.128ZM139.997 41.6C139.485 41.6 139.101 41.8187 138.845 42.256C138.589 42.6933 138.461 43.2587 138.461 43.952C138.461 44.6453 138.589 45.216 138.845 45.664C139.111 46.1013 139.506 46.32 140.029 46.32C140.541 46.32 140.919 46.1067 141.165 45.68C141.421 45.2427 141.549 44.6773 141.549 43.984C141.549 42.3947 141.031 41.6 139.997 41.6ZM150.627 40.128V42.128C150.062 41.7973 149.4 41.632 148.643 41.632C148.366 41.632 148.152 41.6907 148.003 41.808C147.854 41.9147 147.779 42.0533 147.779 42.224C147.779 42.32 147.806 42.4107 147.859 42.496C147.912 42.5813 147.998 42.6613 148.115 42.736C148.243 42.8107 148.36 42.88 148.467 42.944C148.584 42.9973 148.739 43.0667 148.931 43.152C149.134 43.2373 149.294 43.312 149.411 43.376C149.902 43.632 150.296 43.9307 150.595 44.272C150.894 44.6027 151.043 45.0293 151.043 45.552C151.043 46.352 150.755 46.9707 150.179 47.408C149.603 47.8453 148.84 48.064 147.891 48.064C146.91 48.064 146.088 47.8987 145.427 47.568V45.488C146.163 46 146.942 46.256 147.763 46.256C148.35 46.256 148.643 46.0693 148.643 45.696C148.643 45.6 148.616 45.5093 148.563 45.424C148.51 45.3387 148.419 45.2587 148.291 45.184C148.163 45.1093 148.046 45.0507 147.939 45.008C147.832 44.9547 147.678 44.8853 147.475 44.8C147.272 44.7147 147.118 44.6453 147.011 44.592C145.934 44.08 145.395 43.312 145.395 42.288C145.395 41.4987 145.694 40.8853 146.291 40.448C146.899 40.0107 147.651 39.792 148.547 39.792C149.379 39.792 150.072 39.904 150.627 40.128Z" fill="white"/>
<path d="M43.884 85.236V92.076H46.512C48.912 92.076 50.112 90.9 50.112 88.548C50.112 87.516 49.8 86.712 49.176 86.136C48.552 85.536 47.7 85.236 46.62 85.236H43.884ZM50.832 105L45.576 96.576H43.884V105H38.34V80.736H46.728C49.44 80.736 51.612 81.456 53.244 82.896C54.9 84.336 55.728 86.208 55.728 88.512C55.728 91.968 54.252 94.356 51.3 95.676L57.456 105H50.832ZM74.2773 81.816V87C72.3333 85.872 70.3173 85.308 68.2293 85.308C67.2933 85.308 66.5733 85.5 66.0693 85.884C65.5893 86.268 65.3493 86.76 65.3493 87.36C65.3493 87.96 65.6493 88.5 66.2493 88.98C66.8493 89.436 67.7493 89.928 68.9493 90.456C69.6933 90.792 70.3053 91.092 70.7853 91.356C71.2893 91.596 71.8533 91.944 72.4773 92.4C73.1253 92.832 73.6293 93.3 73.9893 93.804C74.3733 94.284 74.6973 94.884 74.9613 95.604C75.2253 96.324 75.3573 97.104 75.3573 97.944C75.3573 99.768 74.7693 101.316 73.5933 102.588C72.4413 103.86 70.8693 104.688 68.8773 105.072V109.248H64.5213V105.18C62.5293 104.988 60.8733 104.52 59.5533 103.776V98.196C61.7373 99.78 64.0653 100.572 66.5373 100.572C67.3773 100.572 68.0733 100.356 68.6253 99.924C69.1773 99.468 69.4533 98.88 69.4533 98.16C69.4533 97.92 69.4173 97.692 69.3453 97.476C69.2733 97.26 69.1413 97.056 68.9493 96.864C68.7573 96.672 68.5653 96.516 68.3733 96.396C68.2053 96.252 67.9413 96.096 67.5813 95.928C67.2453 95.736 66.9573 95.58 66.7173 95.46C66.4773 95.34 66.1173 95.172 65.6373 94.956C65.1813 94.74 64.8093 94.572 64.5213 94.452C62.9613 93.732 61.7013 92.844 60.7413 91.788C59.8053 90.732 59.3373 89.328 59.3373 87.576C59.3373 85.728 59.9493 84.192 61.1733 82.968C62.3973 81.72 64.1013 80.964 66.2853 80.7V76.56H70.6773V80.772C71.9493 80.964 73.1493 81.312 74.2773 81.816ZM94.7495 92.544C96.1895 92.544 97.3535 92.004 98.2415 90.924C97.9535 87.516 96.8015 85.812 94.7855 85.812C93.8495 85.812 93.0935 86.112 92.5175 86.712C91.9655 87.312 91.6895 88.152 91.6895 89.232C91.6895 90.192 91.9655 90.984 92.5175 91.608C93.0695 92.232 93.8135 92.544 94.7495 92.544ZM88.0175 104.604V99.636C89.2655 100.236 90.5015 100.536 91.7255 100.536C93.5975 100.536 95.0495 100.116 96.0815 99.276C97.1135 98.412 97.7855 97.068 98.0975 95.244C97.0655 96.276 95.5055 96.792 93.4175 96.792C91.3055 96.792 89.5895 96.12 88.2695 94.776C86.9735 93.408 86.3255 91.596 86.3255 89.34C86.3255 86.988 87.0575 85.032 88.5215 83.472C90.0095 81.912 92.0135 81.132 94.5335 81.132C97.3415 81.132 99.5375 82.152 101.121 84.192C102.729 86.208 103.533 88.968 103.533 92.472C103.533 96.768 102.513 99.984 100.473 102.12C98.4335 104.232 95.7095 105.288 92.3015 105.288C90.6695 105.288 89.2415 105.06 88.0175 104.604ZM113.945 92.544C115.385 92.544 116.549 92.004 117.437 90.924C117.149 87.516 115.997 85.812 113.981 85.812C113.045 85.812 112.289 86.112 111.713 86.712C111.161 87.312 110.885 88.152 110.885 89.232C110.885 90.192 111.161 90.984 111.713 91.608C112.265 92.232 113.009 92.544 113.945 92.544ZM107.213 104.604V99.636C108.461 100.236 109.697 100.536 110.921 100.536C112.793 100.536 114.245 100.116 115.277 99.276C116.309 98.412 116.981 97.068 117.293 95.244C116.261 96.276 114.701 96.792 112.613 96.792C110.501 96.792 108.785 96.12 107.465 94.776C106.169 93.408 105.521 91.596 105.521 89.34C105.521 86.988 106.253 85.032 107.717 83.472C109.205 81.912 111.209 81.132 113.729 81.132C116.537 81.132 118.733 82.152 120.317 84.192C121.925 86.208 122.729 88.968 122.729 92.472C122.729 96.768 121.709 99.984 119.669 102.12C117.629 104.232 114.905 105.288 111.497 105.288C109.865 105.288 108.437 105.06 107.213 104.604ZM123.744 109.572L127.38 100.176H133.176L128.28 109.572H123.744ZM143.722 92.544C145.162 92.544 146.326 92.004 147.214 90.924C146.926 87.516 145.774 85.812 143.758 85.812C142.822 85.812 142.066 86.112 141.49 86.712C140.938 87.312 140.662 88.152 140.662 89.232C140.662 90.192 140.938 90.984 141.49 91.608C142.042 92.232 142.786 92.544 143.722 92.544ZM136.99 104.604V99.636C138.238 100.236 139.474 100.536 140.698 100.536C142.57 100.536 144.022 100.116 145.054 99.276C146.086 98.412 146.758 97.068 147.07 95.244C146.038 96.276 144.478 96.792 142.39 96.792C140.278 96.792 138.562 96.12 137.242 94.776C135.946 93.408 135.298 91.596 135.298 89.34C135.298 86.988 136.03 85.032 137.494 83.472C138.982 81.912 140.986 81.132 143.506 81.132C146.314 81.132 148.51 82.152 150.094 84.192C151.702 86.208 152.506 88.968 152.506 92.472C152.506 96.768 151.486 99.984 149.446 102.12C147.406 104.232 144.682 105.288 141.274 105.288C139.642 105.288 138.214 105.06 136.99 104.604ZM155.033 93.12C155.033 89.376 155.753 86.412 157.193 84.228C158.633 82.044 160.769 80.952 163.601 80.952C166.433 80.952 168.569 82.044 170.009 84.228C171.473 86.412 172.205 89.376 172.205 93.12C172.205 96.816 171.473 99.768 170.009 101.976C168.569 104.184 166.433 105.288 163.601 105.288C160.769 105.288 158.633 104.196 157.193 102.012C155.753 99.804 155.033 96.84 155.033 93.12ZM163.601 85.632C161.465 85.632 160.397 88.128 160.397 93.12C160.397 98.112 161.465 100.608 163.601 100.608C165.761 100.608 166.841 98.112 166.841 93.12C166.841 88.128 165.761 85.632 163.601 85.632Z" fill="white"/>
<path opacity="0.7" d="M38.464 125.768V129.212H39.766C40.3633 129.212 40.816 129.058 41.124 128.75C41.432 128.433 41.586 128.013 41.586 127.49C41.586 126.342 40.956 125.768 39.696 125.768H38.464ZM41.922 134L39.71 130.416H38.464V134H37.022V124.564H39.654C40.7367 124.564 41.572 124.83 42.16 125.362C42.748 125.885 43.042 126.599 43.042 127.504C43.0327 128.167 42.8647 128.731 42.538 129.198C42.2113 129.655 41.7587 129.987 41.18 130.192L43.644 134H41.922ZM49.921 124.942V126.37C49.305 125.978 48.5957 125.782 47.793 125.782C47.2797 125.782 46.8784 125.899 46.589 126.132C46.2997 126.356 46.155 126.655 46.155 127.028C46.155 127.233 46.197 127.42 46.281 127.588C46.3744 127.747 46.5284 127.901 46.743 128.05C46.967 128.19 47.1537 128.297 47.303 128.372C47.4617 128.447 47.709 128.559 48.045 128.708C48.3997 128.867 48.689 129.011 48.913 129.142C49.137 129.263 49.3797 129.431 49.641 129.646C49.9024 129.861 50.0937 130.117 50.215 130.416C50.3457 130.705 50.411 131.041 50.411 131.424C50.411 132.18 50.173 132.791 49.697 133.258C49.221 133.715 48.5864 133.986 47.793 134.07V135.568H46.617V134.07C45.8517 133.995 45.203 133.804 44.671 133.496V131.998C45.4084 132.549 46.2624 132.824 47.233 132.824C47.7464 132.824 48.1524 132.707 48.451 132.474C48.759 132.231 48.913 131.9 48.913 131.48C48.913 131.377 48.9037 131.284 48.885 131.2C48.8664 131.107 48.829 131.018 48.773 130.934C48.717 130.85 48.6657 130.78 48.619 130.724C48.5724 130.659 48.493 130.593 48.381 130.528C48.2784 130.453 48.1944 130.397 48.129 130.36C48.073 130.313 47.9704 130.257 47.821 130.192C47.681 130.117 47.5784 130.066 47.513 130.038C47.4477 130.001 47.3264 129.945 47.149 129.87C46.9717 129.795 46.8504 129.744 46.785 129.716C46.1037 129.408 45.5717 129.063 45.189 128.68C44.8064 128.297 44.615 127.77 44.615 127.098C44.615 126.361 44.8624 125.763 45.357 125.306C45.8517 124.849 46.505 124.583 47.317 124.508V123.01H48.507V124.536C49.067 124.62 49.5384 124.755 49.921 124.942ZM55.296 126.58V125.25C55.8747 124.914 56.5187 124.746 57.228 124.746C58.1614 124.746 58.8894 124.979 59.412 125.446C59.944 125.903 60.21 126.482 60.21 127.182C60.21 127.686 60.084 128.129 59.832 128.512C59.5894 128.885 59.2254 129.17 58.74 129.366C59.272 129.497 59.6874 129.744 59.986 130.108C60.2847 130.472 60.434 130.929 60.434 131.48C60.434 132.236 60.1634 132.861 59.622 133.356C59.0807 133.841 58.32 134.084 57.34 134.084C56.416 134.084 55.6367 133.925 55.002 133.608V132.264C55.6927 132.637 56.4487 132.824 57.27 132.824C57.8207 132.824 58.25 132.689 58.558 132.418C58.8754 132.138 59.034 131.783 59.034 131.354C59.034 130.906 58.8614 130.561 58.516 130.318C58.1707 130.075 57.6527 129.954 56.962 129.954H56.402V128.778H56.962C57.4754 128.778 57.9047 128.652 58.25 128.4C58.6047 128.139 58.782 127.784 58.782 127.336C58.782 126.888 58.6374 126.552 58.348 126.328C58.068 126.104 57.6807 125.992 57.186 125.992C56.5514 125.992 55.9214 126.188 55.296 126.58ZM60.9759 135.736L62.3199 132.46H64.0139L62.1799 135.736H60.9759ZM68.0475 129.576C68.7569 129.576 69.3309 129.301 69.7695 128.75C69.7509 127.901 69.5922 127.229 69.2935 126.734C69.0042 126.23 68.5655 125.978 67.9775 125.978C67.4922 125.978 67.1049 126.141 66.8155 126.468C66.5262 126.785 66.3815 127.219 66.3815 127.77C66.3815 128.33 66.5309 128.773 66.8295 129.1C67.1375 129.417 67.5435 129.576 68.0475 129.576ZM65.4295 133.846V132.516C65.9055 132.731 66.4095 132.838 66.9415 132.838C68.5469 132.838 69.4709 131.886 69.7135 129.982C69.2655 130.495 68.5982 130.752 67.7115 130.752C66.9462 130.752 66.2929 130.481 65.7515 129.94C65.2195 129.399 64.9535 128.685 64.9535 127.798C64.9535 126.911 65.2195 126.179 65.7515 125.6C66.2835 125.021 67.0069 124.732 67.9215 124.732C68.9669 124.732 69.7602 125.119 70.3015 125.894C70.8522 126.659 71.1275 127.653 71.1275 128.876C71.1275 130.537 70.7729 131.825 70.0635 132.74C69.3635 133.655 68.3555 134.112 67.0395 134.112C66.4422 134.112 65.9055 134.023 65.4295 133.846ZM75.2116 129.576C75.9209 129.576 76.4949 129.301 76.9336 128.75C76.9149 127.901 76.7563 127.229 76.4576 126.734C76.1683 126.23 75.7296 125.978 75.1416 125.978C74.6563 125.978 74.2689 126.141 73.9796 126.468C73.6903 126.785 73.5456 127.219 73.5456 127.77C73.5456 128.33 73.6949 128.773 73.9936 129.1C74.3016 129.417 74.7076 129.576 75.2116 129.576ZM72.5936 133.846V132.516C73.0696 132.731 73.5736 132.838 74.1056 132.838C75.7109 132.838 76.6349 131.886 76.8776 129.982C76.4296 130.495 75.7623 130.752 74.8756 130.752C74.1103 130.752 73.4569 130.481 72.9156 129.94C72.3836 129.399 72.1176 128.685 72.1176 127.798C72.1176 126.911 72.3836 126.179 72.9156 125.6C73.4476 125.021 74.1709 124.732 75.0856 124.732C76.1309 124.732 76.9243 125.119 77.4656 125.894C78.0163 126.659 78.2916 127.653 78.2916 128.876C78.2916 130.537 77.9369 131.825 77.2276 132.74C76.5276 133.655 75.5196 134.112 74.2036 134.112C73.6063 134.112 73.0696 134.023 72.5936 133.846ZM86.535 132.894C87.0856 132.894 87.5383 132.679 87.893 132.25C88.2476 131.811 88.425 131.2 88.425 130.416C88.425 129.679 88.2523 129.095 87.907 128.666C87.5616 128.227 87.123 128.008 86.591 128.008C86.059 128.008 85.597 128.204 85.205 128.596C84.8223 128.979 84.631 129.59 84.631 130.43C84.631 131.251 84.8223 131.867 85.205 132.278C85.597 132.689 86.0403 132.894 86.535 132.894ZM84.631 126.902V127.994C85.1163 127.201 85.8443 126.804 86.815 126.804C87.7483 126.804 88.4856 127.145 89.027 127.826C89.5683 128.498 89.839 129.357 89.839 130.402C89.839 131.475 89.559 132.362 88.999 133.062C88.4483 133.753 87.711 134.098 86.787 134.098C85.8443 134.098 85.1256 133.706 84.631 132.922V136.716H83.259V126.902H84.631ZM94.3481 134.126C93.3027 134.126 92.4814 133.785 91.8841 133.104C91.2867 132.423 90.9881 131.559 90.9881 130.514C90.9881 129.45 91.2961 128.568 91.9121 127.868C92.5281 127.159 93.3401 126.804 94.3481 126.804C95.4307 126.804 96.2661 127.149 96.8541 127.84C97.4421 128.521 97.7361 129.394 97.7361 130.458C97.7361 131.522 97.4327 132.399 96.8261 133.09C96.2287 133.781 95.4027 134.126 94.3481 134.126ZM94.3341 127.966C93.7274 127.966 93.2561 128.209 92.9201 128.694C92.5841 129.17 92.4161 129.763 92.4161 130.472C92.4161 131.172 92.5887 131.765 92.9341 132.25C93.2794 132.726 93.7507 132.964 94.3481 132.964C94.9827 132.964 95.4634 132.731 95.7901 132.264C96.1261 131.797 96.2941 131.205 96.2941 130.486C96.2941 129.749 96.1354 129.147 95.8181 128.68C95.5007 128.204 95.0061 127.966 94.3341 127.966ZM100.654 126.902V128.148C101 127.271 101.62 126.832 102.516 126.832C102.647 126.832 102.792 126.846 102.95 126.874V128.218C102.754 128.134 102.535 128.092 102.292 128.092C101.816 128.092 101.424 128.302 101.116 128.722C100.808 129.142 100.654 129.641 100.654 130.22V134H99.2824V126.902H100.654ZM108.844 126.902V128.12C109.264 127.243 110.001 126.804 111.056 126.804C111.756 126.804 112.311 127.019 112.722 127.448C113.133 127.877 113.338 128.461 113.338 129.198V134H111.966V129.52C111.966 129.025 111.84 128.647 111.588 128.386C111.345 128.125 111.019 127.994 110.608 127.994C110.123 127.994 109.707 128.185 109.362 128.568C109.017 128.941 108.844 129.469 108.844 130.15V134H107.472V126.902H108.844ZM120.433 123.92L118.753 126.188H117.577L118.907 123.92H120.433ZM119.593 126.902H120.965V134H119.593V132.782C119.219 133.65 118.482 134.084 117.381 134.084C116.681 134.084 116.125 133.879 115.715 133.468C115.304 133.048 115.099 132.474 115.099 131.746V126.902H116.485V131.41C116.485 131.895 116.601 132.269 116.835 132.53C117.077 132.782 117.409 132.908 117.829 132.908C118.361 132.908 118.785 132.721 119.103 132.348C119.429 131.975 119.593 131.447 119.593 130.766V126.902ZM124.266 126.902V128.036C124.667 127.215 125.334 126.804 126.268 126.804C127.332 126.804 128.013 127.261 128.312 128.176C128.508 127.737 128.792 127.401 129.166 127.168C129.539 126.925 129.959 126.804 130.426 126.804C131.154 126.804 131.704 127.019 132.078 127.448C132.46 127.877 132.652 128.47 132.652 129.226V134H131.28V129.52C131.28 128.503 130.869 127.994 130.048 127.994C129.637 127.994 129.268 128.176 128.942 128.54C128.624 128.904 128.466 129.441 128.466 130.15V134H127.094V129.52C127.094 128.503 126.678 127.994 125.848 127.994C125.446 127.994 125.082 128.176 124.756 128.54C124.429 128.904 124.266 129.441 124.266 130.15V134H122.894V126.902H124.266ZM138.925 129.94V129.688C138.906 129.156 138.761 128.736 138.491 128.428C138.22 128.111 137.833 127.952 137.329 127.952C136.862 127.952 136.461 128.125 136.125 128.47C135.789 128.806 135.579 129.296 135.495 129.94H138.925ZM139.807 132.39V133.622C139.284 133.921 138.593 134.07 137.735 134.07C136.633 134.07 135.756 133.739 135.103 133.076C134.449 132.413 134.123 131.545 134.123 130.472C134.123 129.333 134.421 128.442 135.019 127.798C135.616 127.145 136.377 126.818 137.301 126.818C138.206 126.818 138.925 127.103 139.457 127.672C139.989 128.232 140.255 129.044 140.255 130.108C140.255 130.397 140.227 130.701 140.171 131.018H135.509C135.602 131.634 135.863 132.105 136.293 132.432C136.722 132.759 137.263 132.922 137.917 132.922C138.673 132.922 139.303 132.745 139.807 132.39ZM143.242 126.902V128.148C143.588 127.271 144.208 126.832 145.104 126.832C145.235 126.832 145.38 126.846 145.538 126.874V128.218C145.342 128.134 145.123 128.092 144.88 128.092C144.404 128.092 144.012 128.302 143.704 128.722C143.396 129.142 143.242 129.641 143.242 130.22V134H141.87V126.902H143.242ZM149.582 134.126C148.537 134.126 147.716 133.785 147.118 133.104C146.521 132.423 146.222 131.559 146.222 130.514C146.222 129.45 146.53 128.568 147.146 127.868C147.762 127.159 148.574 126.804 149.582 126.804C150.665 126.804 151.5 127.149 152.088 127.84C152.676 128.521 152.97 129.394 152.97 130.458C152.97 131.522 152.667 132.399 152.06 133.09C151.463 133.781 150.637 134.126 149.582 134.126ZM149.568 127.966C148.962 127.966 148.49 128.209 148.154 128.694C147.818 129.17 147.65 129.763 147.65 130.472C147.65 131.172 147.823 131.765 148.168 132.25C148.514 132.726 148.985 132.964 149.582 132.964C150.217 132.964 150.698 132.731 151.024 132.264C151.36 131.797 151.528 131.205 151.528 130.486C151.528 129.749 151.37 129.147 151.052 128.68C150.735 128.204 150.24 127.966 149.568 127.966Z" fill="white"/>
<path d="M20 16H236H20ZM236 160C236 164.418 232.418 168 228 168H28C23.5817 168 20 164.418 20 160C20 160 21.7909 160 24 160H232C234.209 160 236 160 236 160ZM20 164V16V164ZM236 16V164V16Z" fill="#0F8427" mask="url(#path-1-inside-1_375_1841)"/>
</g>
<defs>
<filter id="filter0_d_375_1841" x="-5" y="0" width="266" height="198" filterUnits="userSpaceOnUse" color-interpolation-filters="sRGB">
<feFlood flood-opacity="0" result="BackgroundImageFix"/>
<feColorMatrix in="SourceAlpha" type="matrix" values="0 0 0 0 0 0 0 0 0 0 0 0 0 0 0 0 0 0 127 0" result="hardAlpha"/>
<feOffset dy="9"/>
<feGaussianBlur stdDeviation="12.5"/>
<feComposite in2="hardAlpha" operator="out"/>
<feColorMatrix type="matrix" values="0 0 0 0 0 0 0 0 0 0 0 0 0 0 0 0 0 0 0.15 0"/>
<feBlend mode="normal" in2="BackgroundImageFix" result="effect1_dropShadow_375_1841"/>
<feBlend mode="normal" in="SourceGraphic" in2="effect1_dropShadow_375_1841" result="shape"/>
</filter>
<clipPath id="clip0_375_1841">
<rect width="24" height="24" fill="white" transform="translate(36 32)"/>
</clipPath>
</defs>
</svg>
