<svg width="256" height="198" viewBox="0 0 256 198" fill="none" xmlns="http://www.w3.org/2000/svg">
<g filter="url(#filter0_d_375_1826)">
<mask id="path-1-inside-1_375_1826" fill="white">
<path d="M20 20C20 17.7909 21.7909 16 24 16H232C234.209 16 236 17.7909 236 20V160C236 162.209 234.209 164 232 164H24C21.7909 164 20 162.209 20 160V20Z"/>
</mask>
<path d="M20 20C20 17.7909 21.7909 16 24 16H232C234.209 16 236 17.7909 236 20V160C236 162.209 234.209 164 232 164H24C21.7909 164 20 162.209 20 160V20Z" fill="#32BB4E" shape-rendering="crispEdges"/>
<g clip-path="url(#clip0_375_1826)">
<path d="M46.2793 49.8371C46.2793 49.8371 45.1938 55.1962 38.599 55.9264L38.097 53.3602C44.3384 54.9085 46.2793 49.8371 46.2793 49.8371Z" fill="white"/>
<path d="M47.2603 43.1946C47.2603 43.1946 38.3107 42.2465 39.3445 36.8139C39.6738 35.0851 41.9385 34.2011 43.2361 34.5266C43.2361 34.5266 43.908 32.1716 47.0312 32.627C47.0312 32.627 49.0022 32.821 49.4395 34.9967C49.5736 35.7005 49.5145 36.4265 49.2684 37.1006C48.8032 38.4176 47.7892 41.5134 47.8938 43.2275C47.8938 43.2275 46.0564 41.2518 45.2159 39.246C45.216 39.2459 46.1705 42.2118 47.2603 43.1946Z" fill="white"/>
<path d="M48.5398 42.6145C48.5398 42.6145 49.8136 33.8805 55.3195 35.0795C57.0709 35.4606 57.895 37.7105 57.5194 38.97C57.5194 38.97 59.898 39.711 59.3254 42.7532C59.3254 42.7532 59.06 44.6774 56.8269 45.0308C56.1051 45.1382 55.3671 45.056 54.6883 44.7926C53.3589 44.2902 50.237 43.1901 48.4854 43.2339C48.4854 43.2339 50.5631 41.5022 52.6371 40.7476C52.6357 40.7467 49.5791 41.5807 48.5398 42.6145Z" fill="white"/>
<path d="M48.7371 43.9189C48.7371 43.9189 57.6866 44.8669 56.653 50.3013C56.3237 52.0301 54.0589 52.9141 52.7613 52.5886C52.7613 52.5886 52.0894 54.9435 48.9663 54.4881C48.9663 54.4881 46.9953 54.2942 46.5579 52.1185C46.4241 51.4148 46.4832 50.6889 46.7292 50.0149C47.1958 48.6959 48.2101 45.5998 48.1053 43.8857C48.1053 43.8857 49.9427 45.8613 50.7856 47.8667C50.7816 47.8687 49.8276 44.9028 48.7371 43.9189Z" fill="white"/>
<path d="M47.4588 44.4999C47.4588 44.4999 46.1845 53.234 40.6802 52.0349C38.9292 51.6537 38.1047 49.4039 38.4803 48.1443C38.4803 48.1443 36.1021 47.4033 36.6743 44.3611C36.6743 44.3611 36.9397 42.437 39.1734 42.0834C39.8951 41.9761 40.6329 42.0583 41.3116 42.3216C42.6409 42.8239 45.7629 43.924 47.5141 43.8803C47.5141 43.8803 45.4364 45.612 43.3624 46.3666C43.3623 46.3666 46.419 45.5336 47.4588 44.4999Z" fill="white"/>
</g>
<path d="M68.16 41.632V39.248L71.104 37.536H73.12V48H70.8V40.048L68.16 41.632ZM74.6381 42.72C74.6381 41.056 74.9581 39.7387 75.5981 38.768C76.2381 37.7973 77.1875 37.312 78.4461 37.312C79.7048 37.312 80.6541 37.7973 81.2941 38.768C81.9448 39.7387 82.2701 41.056 82.2701 42.72C82.2701 44.3627 81.9448 45.6747 81.2941 46.656C80.6541 47.6373 79.7048 48.128 78.4461 48.128C77.1875 48.128 76.2381 47.6427 75.5981 46.672C74.9581 45.6907 74.6381 44.3733 74.6381 42.72ZM78.4461 39.392C77.4968 39.392 77.0221 40.5013 77.0221 42.72C77.0221 44.9387 77.4968 46.048 78.4461 46.048C79.4061 46.048 79.8861 44.9387 79.8861 42.72C79.8861 40.5013 79.4061 39.392 78.4461 39.392ZM87.8681 48V37.216H90.5721L93.0841 41.68C93.4361 42.3093 93.7401 42.9013 93.9961 43.456C94.2628 44 94.4335 44.384 94.5081 44.608L94.6361 44.96C94.5295 44.1707 94.4761 43.0773 94.4761 41.68V37.216H96.9401V48H94.2361L91.6601 43.536C91.3188 42.96 91.0148 42.3947 90.7481 41.84C90.4921 41.2747 90.3161 40.8587 90.2201 40.592L90.0921 40.192C90.2521 41.152 90.3321 42.2667 90.3321 43.536V48H87.8681ZM105.504 36.32L103.728 39.152H101.792L103.168 36.32H105.504ZM103.968 39.888H106.304V48H103.968V46.704C103.542 47.6107 102.72 48.064 101.504 48.064C100.672 48.064 100.022 47.8347 99.5524 47.376C99.0937 46.9067 98.8644 46.2187 98.8644 45.312V39.888H101.2V44.784C101.2 45.7333 101.616 46.208 102.448 46.208C103.462 46.208 103.968 45.5307 103.968 44.176V39.888ZM110.562 39.888V41.152C111.01 40.256 111.772 39.808 112.85 39.808C113.991 39.808 114.748 40.32 115.122 41.344C115.303 40.864 115.607 40.4907 116.034 40.224C116.46 39.9467 116.962 39.808 117.538 39.808C118.338 39.808 118.967 40.064 119.426 40.576C119.895 41.0773 120.13 41.8187 120.13 42.8V48H117.794V43.184C117.794 42.7253 117.703 42.3627 117.522 42.096C117.34 41.8293 117.079 41.696 116.738 41.696C116.375 41.696 116.05 41.8453 115.762 42.144C115.484 42.432 115.346 42.9547 115.346 43.712V48H113.01V43.184C113.01 42.7253 112.919 42.3627 112.738 42.096C112.556 41.8293 112.295 41.696 111.954 41.696C111.591 41.696 111.266 41.8453 110.978 42.144C110.7 42.432 110.562 42.9547 110.562 43.712V48H108.226V39.888H110.562ZM126.664 43.2V43.008C126.589 42.0587 126.173 41.584 125.416 41.584C125.042 41.584 124.712 41.7227 124.424 42C124.136 42.2667 123.944 42.6667 123.848 43.2H126.664ZM128.344 45.584V47.536C127.789 47.8987 126.941 48.08 125.8 48.08C124.466 48.08 123.426 47.696 122.68 46.928C121.944 46.1493 121.576 45.152 121.576 43.936C121.576 42.6453 121.933 41.6373 122.648 40.912C123.373 40.176 124.264 39.808 125.32 39.808C126.408 39.808 127.266 40.128 127.896 40.768C128.525 41.3973 128.84 42.3413 128.84 43.6C128.84 43.8453 128.797 44.2667 128.712 44.864H123.944C124.104 45.312 124.381 45.6587 124.776 45.904C125.17 46.1493 125.645 46.272 126.2 46.272C127.021 46.272 127.736 46.0427 128.344 45.584ZM132.827 39.888V41.392C132.976 40.9227 133.222 40.5493 133.563 40.272C133.915 39.984 134.32 39.84 134.779 39.84C135.035 39.84 135.238 39.8613 135.387 39.904V42.112C135.131 41.9947 134.838 41.936 134.507 41.936C134.006 41.936 133.6 42.1227 133.291 42.496C132.982 42.8587 132.827 43.344 132.827 43.952V48H130.491L130.507 39.888H132.827ZM140.013 48.128C138.743 48.128 137.762 47.7493 137.069 46.992C136.375 46.224 136.029 45.2427 136.029 44.048C136.029 42.8 136.391 41.776 137.117 40.976C137.842 40.1653 138.807 39.76 140.013 39.76C141.271 39.76 142.247 40.1493 142.941 40.928C143.634 41.7067 143.981 42.6987 143.981 43.904C143.981 45.1307 143.629 46.144 142.925 46.944C142.231 47.7333 141.261 48.128 140.013 48.128ZM139.997 41.6C139.485 41.6 139.101 41.8187 138.845 42.256C138.589 42.6933 138.461 43.2587 138.461 43.952C138.461 44.6453 138.589 45.216 138.845 45.664C139.111 46.1013 139.506 46.32 140.029 46.32C140.541 46.32 140.919 46.1067 141.165 45.68C141.421 45.2427 141.549 44.6773 141.549 43.984C141.549 42.3947 141.031 41.6 139.997 41.6ZM150.627 40.128V42.128C150.062 41.7973 149.4 41.632 148.643 41.632C148.366 41.632 148.152 41.6907 148.003 41.808C147.854 41.9147 147.779 42.0533 147.779 42.224C147.779 42.32 147.806 42.4107 147.859 42.496C147.912 42.5813 147.998 42.6613 148.115 42.736C148.243 42.8107 148.36 42.88 148.467 42.944C148.584 42.9973 148.739 43.0667 148.931 43.152C149.134 43.2373 149.294 43.312 149.411 43.376C149.902 43.632 150.296 43.9307 150.595 44.272C150.894 44.6027 151.043 45.0293 151.043 45.552C151.043 46.352 150.755 46.9707 150.179 47.408C149.603 47.8453 148.84 48.064 147.891 48.064C146.91 48.064 146.088 47.8987 145.427 47.568V45.488C146.163 46 146.942 46.256 147.763 46.256C148.35 46.256 148.643 46.0693 148.643 45.696C148.643 45.6 148.616 45.5093 148.563 45.424C148.51 45.3387 148.419 45.2587 148.291 45.184C148.163 45.1093 148.046 45.0507 147.939 45.008C147.832 44.9547 147.678 44.8853 147.475 44.8C147.272 44.7147 147.118 44.6453 147.011 44.592C145.934 44.08 145.395 43.312 145.395 42.288C145.395 41.4987 145.694 40.8853 146.291 40.448C146.899 40.0107 147.651 39.792 148.547 39.792C149.379 39.792 150.072 39.904 150.627 40.128Z" fill="white"/>
<path d="M43.884 85.236V92.076H46.512C48.912 92.076 50.112 90.9 50.112 88.548C50.112 87.516 49.8 86.712 49.176 86.136C48.552 85.536 47.7 85.236 46.62 85.236H43.884ZM50.832 105L45.576 96.576H43.884V105H38.34V80.736H46.728C49.44 80.736 51.612 81.456 53.244 82.896C54.9 84.336 55.728 86.208 55.728 88.512C55.728 91.968 54.252 94.356 51.3 95.676L57.456 105H50.832ZM74.2773 81.816V87C72.3333 85.872 70.3173 85.308 68.2293 85.308C67.2933 85.308 66.5733 85.5 66.0693 85.884C65.5893 86.268 65.3493 86.76 65.3493 87.36C65.3493 87.96 65.6493 88.5 66.2493 88.98C66.8493 89.436 67.7493 89.928 68.9493 90.456C69.6933 90.792 70.3053 91.092 70.7853 91.356C71.2893 91.596 71.8533 91.944 72.4773 92.4C73.1253 92.832 73.6293 93.3 73.9893 93.804C74.3733 94.284 74.6973 94.884 74.9613 95.604C75.2253 96.324 75.3573 97.104 75.3573 97.944C75.3573 99.768 74.7693 101.316 73.5933 102.588C72.4413 103.86 70.8693 104.688 68.8773 105.072V109.248H64.5213V105.18C62.5293 104.988 60.8733 104.52 59.5533 103.776V98.196C61.7373 99.78 64.0653 100.572 66.5373 100.572C67.3773 100.572 68.0733 100.356 68.6253 99.924C69.1773 99.468 69.4533 98.88 69.4533 98.16C69.4533 97.92 69.4173 97.692 69.3453 97.476C69.2733 97.26 69.1413 97.056 68.9493 96.864C68.7573 96.672 68.5653 96.516 68.3733 96.396C68.2053 96.252 67.9413 96.096 67.5813 95.928C67.2453 95.736 66.9573 95.58 66.7173 95.46C66.4773 95.34 66.1173 95.172 65.6373 94.956C65.1813 94.74 64.8093 94.572 64.5213 94.452C62.9613 93.732 61.7013 92.844 60.7413 91.788C59.8053 90.732 59.3373 89.328 59.3373 87.576C59.3373 85.728 59.9493 84.192 61.1733 82.968C62.3973 81.72 64.1013 80.964 66.2853 80.7V76.56H70.6773V80.772C71.9493 80.964 73.1493 81.312 74.2773 81.816ZM91.8335 95.532H97.0175V84.876L91.8335 95.532ZM105.117 95.532V99.996H102.237V105H97.0175V99.996H86.6855V95.532L93.8855 81.384H102.237V95.532H105.117ZM114.964 92.544C116.404 92.544 117.568 92.004 118.456 90.924C118.168 87.516 117.016 85.812 115 85.812C114.064 85.812 113.308 86.112 112.732 86.712C112.18 87.312 111.904 88.152 111.904 89.232C111.904 90.192 112.18 90.984 112.732 91.608C113.284 92.232 114.028 92.544 114.964 92.544ZM108.232 104.604V99.636C109.48 100.236 110.716 100.536 111.94 100.536C113.812 100.536 115.264 100.116 116.296 99.276C117.328 98.412 118 97.068 118.312 95.244C117.28 96.276 115.72 96.792 113.632 96.792C111.52 96.792 109.804 96.12 108.484 94.776C107.188 93.408 106.54 91.596 106.54 89.34C106.54 86.988 107.272 85.032 108.736 83.472C110.224 81.912 112.228 81.132 114.748 81.132C117.556 81.132 119.752 82.152 121.336 84.192C122.944 86.208 123.748 88.968 123.748 92.472C123.748 96.768 122.728 99.984 120.688 102.12C118.648 104.232 115.924 105.288 112.516 105.288C110.884 105.288 109.456 105.06 108.232 104.604ZM124.764 109.572L128.4 100.176H134.196L129.3 109.572H124.764ZM144.742 92.544C146.182 92.544 147.346 92.004 148.234 90.924C147.946 87.516 146.794 85.812 144.778 85.812C143.842 85.812 143.086 86.112 142.51 86.712C141.958 87.312 141.682 88.152 141.682 89.232C141.682 90.192 141.958 90.984 142.51 91.608C143.062 92.232 143.806 92.544 144.742 92.544ZM138.01 104.604V99.636C139.258 100.236 140.494 100.536 141.718 100.536C143.59 100.536 145.042 100.116 146.074 99.276C147.106 98.412 147.778 97.068 148.09 95.244C147.058 96.276 145.498 96.792 143.41 96.792C141.298 96.792 139.582 96.12 138.262 94.776C136.966 93.408 136.318 91.596 136.318 89.34C136.318 86.988 137.05 85.032 138.514 83.472C140.002 81.912 142.006 81.132 144.526 81.132C147.334 81.132 149.53 82.152 151.114 84.192C152.722 86.208 153.526 88.968 153.526 92.472C153.526 96.768 152.506 99.984 150.466 102.12C148.426 104.232 145.702 105.288 142.294 105.288C140.662 105.288 139.234 105.06 138.01 104.604ZM156.053 93.12C156.053 89.376 156.773 86.412 158.213 84.228C159.653 82.044 161.789 80.952 164.621 80.952C167.453 80.952 169.589 82.044 171.029 84.228C172.493 86.412 173.225 89.376 173.225 93.12C173.225 96.816 172.493 99.768 171.029 101.976C169.589 104.184 167.453 105.288 164.621 105.288C161.789 105.288 159.653 104.196 158.213 102.012C156.773 99.804 156.053 96.84 156.053 93.12ZM164.621 85.632C162.485 85.632 161.417 88.128 161.417 93.12C161.417 98.112 162.485 100.608 164.621 100.608C166.781 100.608 167.861 98.112 167.861 93.12C167.861 88.128 166.781 85.632 164.621 85.632Z" fill="white"/>
<path opacity="0.7" d="M38.464 125.768V129.212H39.766C40.3633 129.212 40.816 129.058 41.124 128.75C41.432 128.433 41.586 128.013 41.586 127.49C41.586 126.342 40.956 125.768 39.696 125.768H38.464ZM41.922 134L39.71 130.416H38.464V134H37.022V124.564H39.654C40.7367 124.564 41.572 124.83 42.16 125.362C42.748 125.885 43.042 126.599 43.042 127.504C43.0327 128.167 42.8647 128.731 42.538 129.198C42.2113 129.655 41.7587 129.987 41.18 130.192L43.644 134H41.922ZM49.921 124.942V126.37C49.305 125.978 48.5957 125.782 47.793 125.782C47.2797 125.782 46.8784 125.899 46.589 126.132C46.2997 126.356 46.155 126.655 46.155 127.028C46.155 127.233 46.197 127.42 46.281 127.588C46.3744 127.747 46.5284 127.901 46.743 128.05C46.967 128.19 47.1537 128.297 47.303 128.372C47.4617 128.447 47.709 128.559 48.045 128.708C48.3997 128.867 48.689 129.011 48.913 129.142C49.137 129.263 49.3797 129.431 49.641 129.646C49.9024 129.861 50.0937 130.117 50.215 130.416C50.3457 130.705 50.411 131.041 50.411 131.424C50.411 132.18 50.173 132.791 49.697 133.258C49.221 133.715 48.5864 133.986 47.793 134.07V135.568H46.617V134.07C45.8517 133.995 45.203 133.804 44.671 133.496V131.998C45.4084 132.549 46.2624 132.824 47.233 132.824C47.7464 132.824 48.1524 132.707 48.451 132.474C48.759 132.231 48.913 131.9 48.913 131.48C48.913 131.377 48.9037 131.284 48.885 131.2C48.8664 131.107 48.829 131.018 48.773 130.934C48.717 130.85 48.6657 130.78 48.619 130.724C48.5724 130.659 48.493 130.593 48.381 130.528C48.2784 130.453 48.1944 130.397 48.129 130.36C48.073 130.313 47.9704 130.257 47.821 130.192C47.681 130.117 47.5784 130.066 47.513 130.038C47.4477 130.001 47.3264 129.945 47.149 129.87C46.9717 129.795 46.8504 129.744 46.785 129.716C46.1037 129.408 45.5717 129.063 45.189 128.68C44.8064 128.297 44.615 127.77 44.615 127.098C44.615 126.361 44.8624 125.763 45.357 125.306C45.8517 124.849 46.505 124.583 47.317 124.508V123.01H48.507V124.536C49.067 124.62 49.5384 124.755 49.921 124.942ZM56.416 130.668H59.174V125.67L56.416 130.668ZM61.834 130.668V131.858H60.546V134H59.174V131.858H55.03V130.668L58.32 124.83H60.546V130.668H61.834ZM62.0286 135.736L63.3726 132.46H65.0666L63.2326 135.736H62.0286ZM69.1003 129.576C69.8096 129.576 70.3836 129.301 70.8223 128.75C70.8036 127.901 70.6449 127.229 70.3463 126.734C70.0569 126.23 69.6183 125.978 69.0303 125.978C68.5449 125.978 68.1576 126.141 67.8683 126.468C67.5789 126.785 67.4343 127.219 67.4343 127.77C67.4343 128.33 67.5836 128.773 67.8823 129.1C68.1903 129.417 68.5963 129.576 69.1003 129.576ZM66.4823 133.846V132.516C66.9583 132.731 67.4623 132.838 67.9943 132.838C69.5996 132.838 70.5236 131.886 70.7663 129.982C70.3183 130.495 69.6509 130.752 68.7643 130.752C67.9989 130.752 67.3456 130.481 66.8043 129.94C66.2723 129.399 66.0063 128.685 66.0063 127.798C66.0063 126.911 66.2723 126.179 66.8043 125.6C67.3363 125.021 68.0596 124.732 68.9743 124.732C70.0196 124.732 70.8129 125.119 71.3543 125.894C71.9049 126.659 72.1803 127.653 72.1803 128.876C72.1803 130.537 71.8256 131.825 71.1163 132.74C70.4163 133.655 69.4083 134.112 68.0923 134.112C67.4949 134.112 66.9583 134.023 66.4823 133.846ZM76.2643 129.576C76.9737 129.576 77.5477 129.301 77.9863 128.75C77.9677 127.901 77.809 127.229 77.5103 126.734C77.221 126.23 76.7823 125.978 76.1943 125.978C75.709 125.978 75.3217 126.141 75.0323 126.468C74.743 126.785 74.5983 127.219 74.5983 127.77C74.5983 128.33 74.7477 128.773 75.0463 129.1C75.3543 129.417 75.7603 129.576 76.2643 129.576ZM73.6463 133.846V132.516C74.1223 132.731 74.6263 132.838 75.1583 132.838C76.7637 132.838 77.6877 131.886 77.9303 129.982C77.4823 130.495 76.815 130.752 75.9283 130.752C75.163 130.752 74.5097 130.481 73.9683 129.94C73.4363 129.399 73.1703 128.685 73.1703 127.798C73.1703 126.911 73.4363 126.179 73.9683 125.6C74.5003 125.021 75.2237 124.732 76.1383 124.732C77.1837 124.732 77.977 125.119 78.5183 125.894C79.069 126.659 79.3443 127.653 79.3443 128.876C79.3443 130.537 78.9897 131.825 78.2803 132.74C77.5803 133.655 76.5723 134.112 75.2563 134.112C74.659 134.112 74.1223 134.023 73.6463 133.846ZM87.5877 132.894C88.1384 132.894 88.591 132.679 88.9457 132.25C89.3004 131.811 89.4777 131.2 89.4777 130.416C89.4777 129.679 89.305 129.095 88.9597 128.666C88.6144 128.227 88.1757 128.008 87.6437 128.008C87.1117 128.008 86.6497 128.204 86.2577 128.596C85.875 128.979 85.6837 129.59 85.6837 130.43C85.6837 131.251 85.875 131.867 86.2577 132.278C86.6497 132.689 87.093 132.894 87.5877 132.894ZM85.6837 126.902V127.994C86.169 127.201 86.897 126.804 87.8677 126.804C88.801 126.804 89.5384 127.145 90.0797 127.826C90.621 128.498 90.8917 129.357 90.8917 130.402C90.8917 131.475 90.6117 132.362 90.0517 133.062C89.501 133.753 88.7637 134.098 87.8397 134.098C86.897 134.098 86.1784 133.706 85.6837 132.922V136.716H84.3117V126.902H85.6837ZM95.4008 134.126C94.3555 134.126 93.5341 133.785 92.9368 133.104C92.3395 132.423 92.0408 131.559 92.0408 130.514C92.0408 129.45 92.3488 128.568 92.9648 127.868C93.5808 127.159 94.3928 126.804 95.4008 126.804C96.4835 126.804 97.3188 127.149 97.9068 127.84C98.4948 128.521 98.7888 129.394 98.7888 130.458C98.7888 131.522 98.4855 132.399 97.8788 133.09C97.2815 133.781 96.4555 134.126 95.4008 134.126ZM95.3868 127.966C94.7801 127.966 94.3088 128.209 93.9728 128.694C93.6368 129.17 93.4688 129.763 93.4688 130.472C93.4688 131.172 93.6415 131.765 93.9868 132.25C94.3321 132.726 94.8035 132.964 95.4008 132.964C96.0355 132.964 96.5161 132.731 96.8428 132.264C97.1788 131.797 97.3468 131.205 97.3468 130.486C97.3468 129.749 97.1881 129.147 96.8708 128.68C96.5535 128.204 96.0588 127.966 95.3868 127.966ZM101.707 126.902V128.148C102.052 127.271 102.673 126.832 103.569 126.832C103.7 126.832 103.844 126.846 104.003 126.874V128.218C103.807 128.134 103.588 128.092 103.345 128.092C102.869 128.092 102.477 128.302 102.169 128.722C101.861 129.142 101.707 129.641 101.707 130.22V134H100.335V126.902H101.707ZM109.897 126.902V128.12C110.317 127.243 111.054 126.804 112.109 126.804C112.809 126.804 113.364 127.019 113.775 127.448C114.185 127.877 114.391 128.461 114.391 129.198V134H113.019V129.52C113.019 129.025 112.893 128.647 112.641 128.386C112.398 128.125 112.071 127.994 111.661 127.994C111.175 127.994 110.76 128.185 110.415 128.568C110.069 128.941 109.897 129.469 109.897 130.15V134H108.525V126.902H109.897ZM121.486 123.92L119.806 126.188H118.63L119.96 123.92H121.486ZM120.646 126.902H122.018V134H120.646V132.782C120.272 133.65 119.535 134.084 118.434 134.084C117.734 134.084 117.178 133.879 116.768 133.468C116.357 133.048 116.152 132.474 116.152 131.746V126.902H117.538V131.41C117.538 131.895 117.654 132.269 117.888 132.53C118.13 132.782 118.462 132.908 118.882 132.908C119.414 132.908 119.838 132.721 120.156 132.348C120.482 131.975 120.646 131.447 120.646 130.766V126.902ZM125.318 126.902V128.036C125.72 127.215 126.387 126.804 127.32 126.804C128.384 126.804 129.066 127.261 129.364 128.176C129.56 127.737 129.845 127.401 130.218 127.168C130.592 126.925 131.012 126.804 131.478 126.804C132.206 126.804 132.757 127.019 133.13 127.448C133.513 127.877 133.704 128.47 133.704 129.226V134H132.332V129.52C132.332 128.503 131.922 127.994 131.1 127.994C130.69 127.994 130.321 128.176 129.994 128.54C129.677 128.904 129.518 129.441 129.518 130.15V134H128.146V129.52C128.146 128.503 127.731 127.994 126.9 127.994C126.499 127.994 126.135 128.176 125.808 128.54C125.482 128.904 125.318 129.441 125.318 130.15V134H123.946V126.902H125.318ZM139.978 129.94V129.688C139.959 129.156 139.814 128.736 139.544 128.428C139.273 128.111 138.886 127.952 138.382 127.952C137.915 127.952 137.514 128.125 137.178 128.47C136.842 128.806 136.632 129.296 136.548 129.94H139.978ZM140.86 132.39V133.622C140.337 133.921 139.646 134.07 138.788 134.07C137.686 134.07 136.809 133.739 136.156 133.076C135.502 132.413 135.176 131.545 135.176 130.472C135.176 129.333 135.474 128.442 136.072 127.798C136.669 127.145 137.43 126.818 138.354 126.818C139.259 126.818 139.978 127.103 140.51 127.672C141.042 128.232 141.308 129.044 141.308 130.108C141.308 130.397 141.28 130.701 141.224 131.018H136.562C136.655 131.634 136.916 132.105 137.346 132.432C137.775 132.759 138.316 132.922 138.97 132.922C139.726 132.922 140.356 132.745 140.86 132.39ZM144.295 126.902V128.148C144.64 127.271 145.261 126.832 146.157 126.832C146.288 126.832 146.432 126.846 146.591 126.874V128.218C146.395 128.134 146.176 128.092 145.933 128.092C145.457 128.092 145.065 128.302 144.757 128.722C144.449 129.142 144.295 129.641 144.295 130.22V134H142.923V126.902H144.295ZM150.635 134.126C149.59 134.126 148.769 133.785 148.171 133.104C147.574 132.423 147.275 131.559 147.275 130.514C147.275 129.45 147.583 128.568 148.199 127.868C148.815 127.159 149.627 126.804 150.635 126.804C151.718 126.804 152.553 127.149 153.141 127.84C153.729 128.521 154.023 129.394 154.023 130.458C154.023 131.522 153.72 132.399 153.113 133.09C152.516 133.781 151.69 134.126 150.635 134.126ZM150.621 127.966C150.015 127.966 149.543 128.209 149.207 128.694C148.871 129.17 148.703 129.763 148.703 130.472C148.703 131.172 148.876 131.765 149.221 132.25C149.567 132.726 150.038 132.964 150.635 132.964C151.27 132.964 151.751 132.731 152.077 132.264C152.413 131.797 152.581 131.205 152.581 130.486C152.581 129.749 152.423 129.147 152.105 128.68C151.788 128.204 151.293 127.966 150.621 127.966Z" fill="white"/>
<path d="M20 16H236H20ZM236 160C236 164.418 232.418 168 228 168H28C23.5817 168 20 164.418 20 160C20 160 21.7909 160 24 160H232C234.209 160 236 160 236 160ZM20 164V16V164ZM236 16V164V16Z" fill="#0F8427" mask="url(#path-1-inside-1_375_1826)"/>
</g>
<defs>
<filter id="filter0_d_375_1826" x="-5" y="0" width="266" height="198" filterUnits="userSpaceOnUse" color-interpolation-filters="sRGB">
<feFlood flood-opacity="0" result="BackgroundImageFix"/>
<feColorMatrix in="SourceAlpha" type="matrix" values="0 0 0 0 0 0 0 0 0 0 0 0 0 0 0 0 0 0 127 0" result="hardAlpha"/>
<feOffset dy="9"/>
<feGaussianBlur stdDeviation="12.5"/>
<feComposite in2="hardAlpha" operator="out"/>
<feColorMatrix type="matrix" values="0 0 0 0 0 0 0 0 0 0 0 0 0 0 0 0 0 0 0.15 0"/>
<feBlend mode="normal" in2="BackgroundImageFix" result="effect1_dropShadow_375_1826"/>
<feBlend mode="normal" in="SourceGraphic" in2="effect1_dropShadow_375_1826" result="shape"/>
</filter>
<clipPath id="clip0_375_1826">
<rect width="24" height="24" fill="white" transform="translate(36 32)"/>
</clipPath>
</defs>
</svg>
