<svg width="256" height="198" viewBox="0 0 256 198" fill="none" xmlns="http://www.w3.org/2000/svg">
<g filter="url(#filter0_d_375_1811)">
<mask id="path-1-inside-1_375_1811" fill="white">
<path d="M20 20C20 17.7909 21.7909 16 24 16H232C234.209 16 236 17.7909 236 20V160C236 162.209 234.209 164 232 164H24C21.7909 164 20 162.209 20 160V20Z"/>
</mask>
<path d="M20 20C20 17.7909 21.7909 16 24 16H232C234.209 16 236 17.7909 236 20V160C236 162.209 234.209 164 232 164H24C21.7909 164 20 162.209 20 160V20Z" fill="#32BB4E" shape-rendering="crispEdges"/>
<g clip-path="url(#clip0_375_1811)">
<path d="M46.2793 49.8371C46.2793 49.8371 45.1938 55.1962 38.599 55.9264L38.097 53.3602C44.3384 54.9085 46.2793 49.8371 46.2793 49.8371Z" fill="white"/>
<path d="M47.2603 43.1946C47.2603 43.1946 38.3107 42.2465 39.3445 36.8139C39.6738 35.0851 41.9385 34.2011 43.2361 34.5266C43.2361 34.5266 43.908 32.1716 47.0312 32.627C47.0312 32.627 49.0022 32.821 49.4395 34.9967C49.5736 35.7005 49.5145 36.4265 49.2684 37.1006C48.8032 38.4176 47.7892 41.5134 47.8938 43.2275C47.8938 43.2275 46.0564 41.2518 45.2159 39.246C45.216 39.2459 46.1705 42.2118 47.2603 43.1946Z" fill="white"/>
<path d="M48.5398 42.6145C48.5398 42.6145 49.8136 33.8805 55.3195 35.0795C57.0709 35.4606 57.895 37.7105 57.5194 38.97C57.5194 38.97 59.898 39.711 59.3254 42.7532C59.3254 42.7532 59.06 44.6774 56.8269 45.0308C56.1051 45.1382 55.3671 45.056 54.6883 44.7926C53.3589 44.2902 50.237 43.1901 48.4854 43.2339C48.4854 43.2339 50.5631 41.5022 52.6371 40.7476C52.6357 40.7467 49.5791 41.5807 48.5398 42.6145Z" fill="white"/>
<path d="M48.7371 43.9189C48.7371 43.9189 57.6866 44.8669 56.653 50.3013C56.3237 52.0301 54.0589 52.9141 52.7613 52.5886C52.7613 52.5886 52.0894 54.9435 48.9663 54.4881C48.9663 54.4881 46.9953 54.2942 46.5579 52.1185C46.4241 51.4148 46.4832 50.6889 46.7292 50.0149C47.1958 48.6959 48.2101 45.5998 48.1053 43.8857C48.1053 43.8857 49.9427 45.8613 50.7856 47.8667C50.7816 47.8687 49.8276 44.9028 48.7371 43.9189Z" fill="white"/>
<path d="M47.4588 44.4999C47.4588 44.4999 46.1845 53.234 40.6802 52.0349C38.9292 51.6537 38.1047 49.4039 38.4803 48.1443C38.4803 48.1443 36.1021 47.4033 36.6743 44.3611C36.6743 44.3611 36.9397 42.437 39.1734 42.0834C39.8951 41.9761 40.6329 42.0583 41.3116 42.3216C42.6409 42.8239 45.7629 43.924 47.5141 43.8803C47.5141 43.8803 45.4364 45.612 43.3624 46.3666C43.3623 46.3666 46.419 45.5336 47.4588 44.4999Z" fill="white"/>
</g>
<path d="M68.16 41.632V39.248L71.104 37.536H73.12V48H70.8V40.048L68.16 41.632ZM74.6381 42.72C74.6381 41.056 74.9581 39.7387 75.5981 38.768C76.2381 37.7973 77.1875 37.312 78.4461 37.312C79.7048 37.312 80.6541 37.7973 81.2941 38.768C81.9448 39.7387 82.2701 41.056 82.2701 42.72C82.2701 44.3627 81.9448 45.6747 81.2941 46.656C80.6541 47.6373 79.7048 48.128 78.4461 48.128C77.1875 48.128 76.2381 47.6427 75.5981 46.672C74.9581 45.6907 74.6381 44.3733 74.6381 42.72ZM78.4461 39.392C77.4968 39.392 77.0221 40.5013 77.0221 42.72C77.0221 44.9387 77.4968 46.048 78.4461 46.048C79.4061 46.048 79.8861 44.9387 79.8861 42.72C79.8861 40.5013 79.4061 39.392 78.4461 39.392ZM87.8681 48V37.216H90.5721L93.0841 41.68C93.4361 42.3093 93.7401 42.9013 93.9961 43.456C94.2628 44 94.4335 44.384 94.5081 44.608L94.6361 44.96C94.5295 44.1707 94.4761 43.0773 94.4761 41.68V37.216H96.9401V48H94.2361L91.6601 43.536C91.3188 42.96 91.0148 42.3947 90.7481 41.84C90.4921 41.2747 90.3161 40.8587 90.2201 40.592L90.0921 40.192C90.2521 41.152 90.3321 42.2667 90.3321 43.536V48H87.8681ZM105.504 36.32L103.728 39.152H101.792L103.168 36.32H105.504ZM103.968 39.888H106.304V48H103.968V46.704C103.542 47.6107 102.72 48.064 101.504 48.064C100.672 48.064 100.022 47.8347 99.5524 47.376C99.0937 46.9067 98.8644 46.2187 98.8644 45.312V39.888H101.2V44.784C101.2 45.7333 101.616 46.208 102.448 46.208C103.462 46.208 103.968 45.5307 103.968 44.176V39.888ZM110.562 39.888V41.152C111.01 40.256 111.772 39.808 112.85 39.808C113.991 39.808 114.748 40.32 115.122 41.344C115.303 40.864 115.607 40.4907 116.034 40.224C116.46 39.9467 116.962 39.808 117.538 39.808C118.338 39.808 118.967 40.064 119.426 40.576C119.895 41.0773 120.13 41.8187 120.13 42.8V48H117.794V43.184C117.794 42.7253 117.703 42.3627 117.522 42.096C117.34 41.8293 117.079 41.696 116.738 41.696C116.375 41.696 116.05 41.8453 115.762 42.144C115.484 42.432 115.346 42.9547 115.346 43.712V48H113.01V43.184C113.01 42.7253 112.919 42.3627 112.738 42.096C112.556 41.8293 112.295 41.696 111.954 41.696C111.591 41.696 111.266 41.8453 110.978 42.144C110.7 42.432 110.562 42.9547 110.562 43.712V48H108.226V39.888H110.562ZM126.664 43.2V43.008C126.589 42.0587 126.173 41.584 125.416 41.584C125.042 41.584 124.712 41.7227 124.424 42C124.136 42.2667 123.944 42.6667 123.848 43.2H126.664ZM128.344 45.584V47.536C127.789 47.8987 126.941 48.08 125.8 48.08C124.466 48.08 123.426 47.696 122.68 46.928C121.944 46.1493 121.576 45.152 121.576 43.936C121.576 42.6453 121.933 41.6373 122.648 40.912C123.373 40.176 124.264 39.808 125.32 39.808C126.408 39.808 127.266 40.128 127.896 40.768C128.525 41.3973 128.84 42.3413 128.84 43.6C128.84 43.8453 128.797 44.2667 128.712 44.864H123.944C124.104 45.312 124.381 45.6587 124.776 45.904C125.17 46.1493 125.645 46.272 126.2 46.272C127.021 46.272 127.736 46.0427 128.344 45.584ZM132.827 39.888V41.392C132.976 40.9227 133.222 40.5493 133.563 40.272C133.915 39.984 134.32 39.84 134.779 39.84C135.035 39.84 135.238 39.8613 135.387 39.904V42.112C135.131 41.9947 134.838 41.936 134.507 41.936C134.006 41.936 133.6 42.1227 133.291 42.496C132.982 42.8587 132.827 43.344 132.827 43.952V48H130.491L130.507 39.888H132.827ZM140.013 48.128C138.743 48.128 137.762 47.7493 137.069 46.992C136.375 46.224 136.029 45.2427 136.029 44.048C136.029 42.8 136.391 41.776 137.117 40.976C137.842 40.1653 138.807 39.76 140.013 39.76C141.271 39.76 142.247 40.1493 142.941 40.928C143.634 41.7067 143.981 42.6987 143.981 43.904C143.981 45.1307 143.629 46.144 142.925 46.944C142.231 47.7333 141.261 48.128 140.013 48.128ZM139.997 41.6C139.485 41.6 139.101 41.8187 138.845 42.256C138.589 42.6933 138.461 43.2587 138.461 43.952C138.461 44.6453 138.589 45.216 138.845 45.664C139.111 46.1013 139.506 46.32 140.029 46.32C140.541 46.32 140.919 46.1067 141.165 45.68C141.421 45.2427 141.549 44.6773 141.549 43.984C141.549 42.3947 141.031 41.6 139.997 41.6ZM150.627 40.128V42.128C150.062 41.7973 149.4 41.632 148.643 41.632C148.366 41.632 148.152 41.6907 148.003 41.808C147.854 41.9147 147.779 42.0533 147.779 42.224C147.779 42.32 147.806 42.4107 147.859 42.496C147.912 42.5813 147.998 42.6613 148.115 42.736C148.243 42.8107 148.36 42.88 148.467 42.944C148.584 42.9973 148.739 43.0667 148.931 43.152C149.134 43.2373 149.294 43.312 149.411 43.376C149.902 43.632 150.296 43.9307 150.595 44.272C150.894 44.6027 151.043 45.0293 151.043 45.552C151.043 46.352 150.755 46.9707 150.179 47.408C149.603 47.8453 148.84 48.064 147.891 48.064C146.91 48.064 146.088 47.8987 145.427 47.568V45.488C146.163 46 146.942 46.256 147.763 46.256C148.35 46.256 148.643 46.0693 148.643 45.696C148.643 45.6 148.616 45.5093 148.563 45.424C148.51 45.3387 148.419 45.2587 148.291 45.184C148.163 45.1093 148.046 45.0507 147.939 45.008C147.832 44.9547 147.678 44.8853 147.475 44.8C147.272 44.7147 147.118 44.6453 147.011 44.592C145.934 44.08 145.395 43.312 145.395 42.288C145.395 41.4987 145.694 40.8853 146.291 40.448C146.899 40.0107 147.651 39.792 148.547 39.792C149.379 39.792 150.072 39.904 150.627 40.128Z" fill="white"/>
<path d="M43.884 85.236V92.076H46.512C48.912 92.076 50.112 90.9 50.112 88.548C50.112 87.516 49.8 86.712 49.176 86.136C48.552 85.536 47.7 85.236 46.62 85.236H43.884ZM50.832 105L45.576 96.576H43.884V105H38.34V80.736H46.728C49.44 80.736 51.612 81.456 53.244 82.896C54.9 84.336 55.728 86.208 55.728 88.512C55.728 91.968 54.252 94.356 51.3 95.676L57.456 105H50.832ZM74.2773 81.816V87C72.3333 85.872 70.3173 85.308 68.2293 85.308C67.2933 85.308 66.5733 85.5 66.0693 85.884C65.5893 86.268 65.3493 86.76 65.3493 87.36C65.3493 87.96 65.6493 88.5 66.2493 88.98C66.8493 89.436 67.7493 89.928 68.9493 90.456C69.6933 90.792 70.3053 91.092 70.7853 91.356C71.2893 91.596 71.8533 91.944 72.4773 92.4C73.1253 92.832 73.6293 93.3 73.9893 93.804C74.3733 94.284 74.6973 94.884 74.9613 95.604C75.2253 96.324 75.3573 97.104 75.3573 97.944C75.3573 99.768 74.7693 101.316 73.5933 102.588C72.4413 103.86 70.8693 104.688 68.8773 105.072V109.248H64.5213V105.18C62.5293 104.988 60.8733 104.52 59.5533 103.776V98.196C61.7373 99.78 64.0653 100.572 66.5373 100.572C67.3773 100.572 68.0733 100.356 68.6253 99.924C69.1773 99.468 69.4533 98.88 69.4533 98.16C69.4533 97.92 69.4173 97.692 69.3453 97.476C69.2733 97.26 69.1413 97.056 68.9493 96.864C68.7573 96.672 68.5653 96.516 68.3733 96.396C68.2053 96.252 67.9413 96.096 67.5813 95.928C67.2453 95.736 66.9573 95.58 66.7173 95.46C66.4773 95.34 66.1173 95.172 65.6373 94.956C65.1813 94.74 64.8093 94.572 64.5213 94.452C62.9613 93.732 61.7013 92.844 60.7413 91.788C59.8053 90.732 59.3373 89.328 59.3373 87.576C59.3373 85.728 59.9493 84.192 61.1733 82.968C62.3973 81.72 64.1013 80.964 66.2853 80.7V76.56H70.6773V80.772C71.9493 80.964 73.1493 81.312 74.2773 81.816ZM94.0295 100.536H102.381V105H86.6855V100.932C89.2775 99.156 91.5575 97.188 93.5255 95.028C95.5175 92.868 96.5135 90.96 96.5135 89.304C96.5135 88.296 96.2135 87.504 95.6135 86.928C95.0135 86.328 94.1015 86.028 92.8775 86.028C90.8375 86.028 88.9055 86.784 87.0815 88.296V83.22C87.8735 82.644 88.9055 82.152 90.1775 81.744C91.4495 81.336 92.6975 81.132 93.9215 81.132C96.3695 81.132 98.3135 81.78 99.7535 83.076C101.217 84.348 101.949 86.136 101.949 88.44C101.949 92.592 99.3095 96.624 94.0295 100.536ZM109.869 95.532H115.053V84.876L109.869 95.532ZM123.153 95.532V99.996H120.273V105H115.053V99.996H104.721V95.532L111.921 81.384H120.273V95.532H123.153ZM123.603 109.572L127.239 100.176H133.035L128.139 109.572H123.603ZM143.582 92.544C145.022 92.544 146.186 92.004 147.074 90.924C146.786 87.516 145.634 85.812 143.618 85.812C142.682 85.812 141.926 86.112 141.35 86.712C140.798 87.312 140.522 88.152 140.522 89.232C140.522 90.192 140.798 90.984 141.35 91.608C141.902 92.232 142.646 92.544 143.582 92.544ZM136.85 104.604V99.636C138.098 100.236 139.334 100.536 140.558 100.536C142.43 100.536 143.882 100.116 144.914 99.276C145.946 98.412 146.618 97.068 146.93 95.244C145.898 96.276 144.338 96.792 142.25 96.792C140.138 96.792 138.422 96.12 137.102 94.776C135.806 93.408 135.158 91.596 135.158 89.34C135.158 86.988 135.89 85.032 137.354 83.472C138.842 81.912 140.846 81.132 143.366 81.132C146.174 81.132 148.37 82.152 149.954 84.192C151.562 86.208 152.366 88.968 152.366 92.472C152.366 96.768 151.346 99.984 149.306 102.12C147.266 104.232 144.542 105.288 141.134 105.288C139.502 105.288 138.074 105.06 136.85 104.604ZM154.893 93.12C154.893 89.376 155.613 86.412 157.053 84.228C158.493 82.044 160.629 80.952 163.461 80.952C166.293 80.952 168.429 82.044 169.869 84.228C171.333 86.412 172.065 89.376 172.065 93.12C172.065 96.816 171.333 99.768 169.869 101.976C168.429 104.184 166.293 105.288 163.461 105.288C160.629 105.288 158.493 104.196 157.053 102.012C155.613 99.804 154.893 96.84 154.893 93.12ZM163.461 85.632C161.325 85.632 160.257 88.128 160.257 93.12C160.257 98.112 161.325 100.608 163.461 100.608C165.621 100.608 166.701 98.112 166.701 93.12C166.701 88.128 165.621 85.632 163.461 85.632Z" fill="white"/>
<path opacity="0.7" d="M38.464 125.768V129.212H39.766C40.3633 129.212 40.816 129.058 41.124 128.75C41.432 128.433 41.586 128.013 41.586 127.49C41.586 126.342 40.956 125.768 39.696 125.768H38.464ZM41.922 134L39.71 130.416H38.464V134H37.022V124.564H39.654C40.7367 124.564 41.572 124.83 42.16 125.362C42.748 125.885 43.042 126.599 43.042 127.504C43.0327 128.167 42.8647 128.731 42.538 129.198C42.2113 129.655 41.7587 129.987 41.18 130.192L43.644 134H41.922ZM49.921 124.942V126.37C49.305 125.978 48.5957 125.782 47.793 125.782C47.2797 125.782 46.8784 125.899 46.589 126.132C46.2997 126.356 46.155 126.655 46.155 127.028C46.155 127.233 46.197 127.42 46.281 127.588C46.3744 127.747 46.5284 127.901 46.743 128.05C46.967 128.19 47.1537 128.297 47.303 128.372C47.4617 128.447 47.709 128.559 48.045 128.708C48.3997 128.867 48.689 129.011 48.913 129.142C49.137 129.263 49.3797 129.431 49.641 129.646C49.9024 129.861 50.0937 130.117 50.215 130.416C50.3457 130.705 50.411 131.041 50.411 131.424C50.411 132.18 50.173 132.791 49.697 133.258C49.221 133.715 48.5864 133.986 47.793 134.07V135.568H46.617V134.07C45.8517 133.995 45.203 133.804 44.671 133.496V131.998C45.4084 132.549 46.2624 132.824 47.233 132.824C47.7464 132.824 48.1524 132.707 48.451 132.474C48.759 132.231 48.913 131.9 48.913 131.48C48.913 131.377 48.9037 131.284 48.885 131.2C48.8664 131.107 48.829 131.018 48.773 130.934C48.717 130.85 48.6657 130.78 48.619 130.724C48.5724 130.659 48.493 130.593 48.381 130.528C48.2784 130.453 48.1944 130.397 48.129 130.36C48.073 130.313 47.9704 130.257 47.821 130.192C47.681 130.117 47.5784 130.066 47.513 130.038C47.4477 130.001 47.3264 129.945 47.149 129.87C46.9717 129.795 46.8504 129.744 46.785 129.716C46.1037 129.408 45.5717 129.063 45.189 128.68C44.8064 128.297 44.615 127.77 44.615 127.098C44.615 126.361 44.8624 125.763 45.357 125.306C45.8517 124.849 46.505 124.583 47.317 124.508V123.01H48.507V124.536C49.067 124.62 49.5384 124.755 49.921 124.942ZM58.236 132.95C58.8054 132.95 59.2394 132.81 59.538 132.53C59.846 132.25 60 131.905 60 131.494C60 131.083 59.8507 130.738 59.552 130.458C59.2534 130.178 58.8147 130.038 58.236 130.038C57.676 130.047 57.2514 130.201 56.962 130.5C56.682 130.789 56.542 131.149 56.542 131.578C56.542 131.97 56.6867 132.297 56.976 132.558C57.2654 132.819 57.6854 132.95 58.236 132.95ZM58.222 125.894C57.746 125.894 57.3727 126.034 57.102 126.314C56.8314 126.594 56.696 126.935 56.696 127.336C56.696 127.812 56.8407 128.176 57.13 128.428C57.4287 128.671 57.8114 128.792 58.278 128.792C58.7167 128.792 59.076 128.666 59.356 128.414C59.6454 128.153 59.79 127.789 59.79 127.322C59.79 126.911 59.6594 126.571 59.398 126.3C59.146 126.029 58.754 125.894 58.222 125.894ZM59.818 129.394C60.8634 129.749 61.386 130.472 61.386 131.564C61.386 132.339 61.0874 132.959 60.49 133.426C59.8927 133.893 59.1367 134.126 58.222 134.126C57.326 134.126 56.5887 133.902 56.01 133.454C55.4314 132.997 55.142 132.39 55.142 131.634C55.142 130.551 55.66 129.809 56.696 129.408C56.2574 129.221 55.912 128.951 55.66 128.596C55.4174 128.241 55.296 127.826 55.296 127.35C55.296 126.529 55.5807 125.885 56.15 125.418C56.7194 124.951 57.41 124.718 58.222 124.718C59.062 124.718 59.7667 124.947 60.336 125.404C60.9054 125.852 61.19 126.505 61.19 127.364C61.19 128.288 60.7327 128.965 59.818 129.394ZM61.9192 135.736L63.2633 132.46H64.9573L63.1233 135.736H61.9192ZM66.2609 126.58V125.25C66.8396 124.914 67.4836 124.746 68.1929 124.746C69.1262 124.746 69.8542 124.979 70.3769 125.446C70.9089 125.903 71.1749 126.482 71.1749 127.182C71.1749 127.686 71.0489 128.129 70.7969 128.512C70.5542 128.885 70.1902 129.17 69.7049 129.366C70.2369 129.497 70.6522 129.744 70.9509 130.108C71.2496 130.472 71.3989 130.929 71.3989 131.48C71.3989 132.236 71.1282 132.861 70.5869 133.356C70.0456 133.841 69.2849 134.084 68.3049 134.084C67.3809 134.084 66.6016 133.925 65.9669 133.608V132.264C66.6576 132.637 67.4136 132.824 68.2349 132.824C68.7856 132.824 69.2149 132.689 69.5229 132.418C69.8402 132.138 69.9989 131.783 69.9989 131.354C69.9989 130.906 69.8262 130.561 69.4809 130.318C69.1356 130.075 68.6176 129.954 67.9269 129.954H67.3669V128.778H67.9269C68.4402 128.778 68.8696 128.652 69.2149 128.4C69.5696 128.139 69.7469 127.784 69.7469 127.336C69.7469 126.888 69.6022 126.552 69.3129 126.328C69.0329 126.104 68.6456 125.992 68.1509 125.992C67.5162 125.992 66.8862 126.188 66.2609 126.58ZM72.6267 129.394C72.6267 127.957 72.9114 126.818 73.4807 125.978C74.0594 125.129 74.8481 124.704 75.8467 124.704C76.8641 124.704 77.6621 125.124 78.2407 125.964C78.8194 126.804 79.1087 127.947 79.1087 129.394C79.1087 130.822 78.8241 131.965 78.2547 132.824C77.6947 133.683 76.8921 134.112 75.8467 134.112C74.8481 134.112 74.0594 133.683 73.4807 132.824C72.9114 131.965 72.6267 130.822 72.6267 129.394ZM74.5447 126.874C74.1994 127.462 74.0267 128.302 74.0267 129.394C74.0267 130.486 74.1947 131.335 74.5307 131.942C74.8761 132.539 75.3147 132.838 75.8467 132.838C76.4254 132.838 76.8781 132.539 77.2047 131.942C77.5314 131.345 77.6947 130.495 77.6947 129.394C77.6947 128.283 77.5221 127.439 77.1767 126.86C76.8407 126.272 76.3974 125.978 75.8467 125.978C75.3241 125.978 74.8901 126.277 74.5447 126.874ZM87.369 132.894C87.9196 132.894 88.3723 132.679 88.727 132.25C89.0816 131.811 89.259 131.2 89.259 130.416C89.259 129.679 89.0863 129.095 88.741 128.666C88.3956 128.227 87.957 128.008 87.425 128.008C86.893 128.008 86.431 128.204 86.039 128.596C85.6563 128.979 85.465 129.59 85.465 130.43C85.465 131.251 85.6563 131.867 86.039 132.278C86.431 132.689 86.8743 132.894 87.369 132.894ZM85.465 126.902V127.994C85.9503 127.201 86.6783 126.804 87.649 126.804C88.5823 126.804 89.3196 127.145 89.861 127.826C90.4023 128.498 90.673 129.357 90.673 130.402C90.673 131.475 90.393 132.362 89.833 133.062C89.2823 133.753 88.545 134.098 87.621 134.098C86.6783 134.098 85.9596 133.706 85.465 132.922V136.716H84.093V126.902H85.465ZM95.182 134.126C94.1367 134.126 93.3154 133.785 92.718 133.104C92.1207 132.423 91.822 131.559 91.822 130.514C91.822 129.45 92.13 128.568 92.746 127.868C93.362 127.159 94.174 126.804 95.182 126.804C96.2647 126.804 97.1 127.149 97.688 127.84C98.276 128.521 98.57 129.394 98.57 130.458C98.57 131.522 98.2667 132.399 97.66 133.09C97.0627 133.781 96.2367 134.126 95.182 134.126ZM95.168 127.966C94.5614 127.966 94.09 128.209 93.754 128.694C93.418 129.17 93.25 129.763 93.25 130.472C93.25 131.172 93.4227 131.765 93.768 132.25C94.1134 132.726 94.5847 132.964 95.182 132.964C95.8167 132.964 96.2974 132.731 96.624 132.264C96.96 131.797 97.128 131.205 97.128 130.486C97.128 129.749 96.9694 129.147 96.652 128.68C96.3347 128.204 95.84 127.966 95.168 127.966ZM101.488 126.902V128.148C101.834 127.271 102.454 126.832 103.35 126.832C103.481 126.832 103.626 126.846 103.784 126.874V128.218C103.588 128.134 103.369 128.092 103.126 128.092C102.65 128.092 102.258 128.302 101.95 128.722C101.642 129.142 101.488 129.641 101.488 130.22V134H100.116V126.902H101.488ZM109.678 126.902V128.12C110.098 127.243 110.835 126.804 111.89 126.804C112.59 126.804 113.145 127.019 113.556 127.448C113.967 127.877 114.172 128.461 114.172 129.198V134H112.8V129.52C112.8 129.025 112.674 128.647 112.422 128.386C112.179 128.125 111.853 127.994 111.442 127.994C110.957 127.994 110.541 128.185 110.196 128.568C109.851 128.941 109.678 129.469 109.678 130.15V134H108.306V126.902H109.678ZM121.267 123.92L119.587 126.188H118.411L119.741 123.92H121.267ZM120.427 126.902H121.799V134H120.427V132.782C120.053 133.65 119.316 134.084 118.215 134.084C117.515 134.084 116.959 133.879 116.549 133.468C116.138 133.048 115.933 132.474 115.933 131.746V126.902H117.319V131.41C117.319 131.895 117.435 132.269 117.669 132.53C117.911 132.782 118.243 132.908 118.663 132.908C119.195 132.908 119.619 132.721 119.937 132.348C120.263 131.975 120.427 131.447 120.427 130.766V126.902ZM125.1 126.902V128.036C125.501 127.215 126.168 126.804 127.102 126.804C128.166 126.804 128.847 127.261 129.146 128.176C129.342 127.737 129.626 127.401 130 127.168C130.373 126.925 130.793 126.804 131.26 126.804C131.988 126.804 132.538 127.019 132.912 127.448C133.294 127.877 133.486 128.47 133.486 129.226V134H132.114V129.52C132.114 128.503 131.703 127.994 130.882 127.994C130.471 127.994 130.102 128.176 129.776 128.54C129.458 128.904 129.3 129.441 129.3 130.15V134H127.928V129.52C127.928 128.503 127.512 127.994 126.682 127.994C126.28 127.994 125.916 128.176 125.59 128.54C125.263 128.904 125.1 129.441 125.1 130.15V134H123.728V126.902H125.1ZM139.759 129.94V129.688C139.74 129.156 139.595 128.736 139.325 128.428C139.054 128.111 138.667 127.952 138.163 127.952C137.696 127.952 137.295 128.125 136.959 128.47C136.623 128.806 136.413 129.296 136.329 129.94H139.759ZM140.641 132.39V133.622C140.118 133.921 139.427 134.07 138.569 134.07C137.467 134.07 136.59 133.739 135.937 133.076C135.283 132.413 134.957 131.545 134.957 130.472C134.957 129.333 135.255 128.442 135.853 127.798C136.45 127.145 137.211 126.818 138.135 126.818C139.04 126.818 139.759 127.103 140.291 127.672C140.823 128.232 141.089 129.044 141.089 130.108C141.089 130.397 141.061 130.701 141.005 131.018H136.343C136.436 131.634 136.697 132.105 137.127 132.432C137.556 132.759 138.097 132.922 138.751 132.922C139.507 132.922 140.137 132.745 140.641 132.39ZM144.076 126.902V128.148C144.422 127.271 145.042 126.832 145.938 126.832C146.069 126.832 146.214 126.846 146.372 126.874V128.218C146.176 128.134 145.957 128.092 145.714 128.092C145.238 128.092 144.846 128.302 144.538 128.722C144.23 129.142 144.076 129.641 144.076 130.22V134H142.704V126.902H144.076ZM150.416 134.126C149.371 134.126 148.55 133.785 147.952 133.104C147.355 132.423 147.056 131.559 147.056 130.514C147.056 129.45 147.364 128.568 147.98 127.868C148.596 127.159 149.408 126.804 150.416 126.804C151.499 126.804 152.334 127.149 152.922 127.84C153.51 128.521 153.804 129.394 153.804 130.458C153.804 131.522 153.501 132.399 152.894 133.09C152.297 133.781 151.471 134.126 150.416 134.126ZM150.402 127.966C149.796 127.966 149.324 128.209 148.988 128.694C148.652 129.17 148.484 129.763 148.484 130.472C148.484 131.172 148.657 131.765 149.002 132.25C149.348 132.726 149.819 132.964 150.416 132.964C151.051 132.964 151.532 132.731 151.858 132.264C152.194 131.797 152.362 131.205 152.362 130.486C152.362 129.749 152.204 129.147 151.886 128.68C151.569 128.204 151.074 127.966 150.402 127.966Z" fill="white"/>
<path d="M20 16H236H20ZM236 160C236 164.418 232.418 168 228 168H28C23.5817 168 20 164.418 20 160C20 160 21.7909 160 24 160H232C234.209 160 236 160 236 160ZM20 164V16V164ZM236 16V164V16Z" fill="#0F8427" mask="url(#path-1-inside-1_375_1811)"/>
</g>
<defs>
<filter id="filter0_d_375_1811" x="-5" y="0" width="266" height="198" filterUnits="userSpaceOnUse" color-interpolation-filters="sRGB">
<feFlood flood-opacity="0" result="BackgroundImageFix"/>
<feColorMatrix in="SourceAlpha" type="matrix" values="0 0 0 0 0 0 0 0 0 0 0 0 0 0 0 0 0 0 127 0" result="hardAlpha"/>
<feOffset dy="9"/>
<feGaussianBlur stdDeviation="12.5"/>
<feComposite in2="hardAlpha" operator="out"/>
<feColorMatrix type="matrix" values="0 0 0 0 0 0 0 0 0 0 0 0 0 0 0 0 0 0 0.15 0"/>
<feBlend mode="normal" in2="BackgroundImageFix" result="effect1_dropShadow_375_1811"/>
<feBlend mode="normal" in="SourceGraphic" in2="effect1_dropShadow_375_1811" result="shape"/>
</filter>
<clipPath id="clip0_375_1811">
<rect width="24" height="24" fill="white" transform="translate(36 32)"/>
</clipPath>
</defs>
</svg>
