<svg width="20" height="21" viewBox="0 0 20 21" fill="none" xmlns="http://www.w3.org/2000/svg">
<path d="M9.9425 2.21572C10.0457 2.08658 10.1735 1.9792 10.3185 1.89979C10.4634 1.82038 10.6227 1.77051 10.7871 1.75307C10.9515 1.73563 11.1177 1.75097 11.2761 1.7982C11.4345 1.84543 11.582 1.92361 11.71 2.02822L15.7875 5.35822C16.0117 5.54131 16.1655 5.79655 16.2225 6.08037C16.2795 6.3642 16.2362 6.65901 16.1 6.91447C15.7435 6.80551 15.3728 6.75032 15 6.75072H14.625L14.9975 6.32572L12.85 4.57197L11.0787 6.75197H9.4675L11.8813 3.78197L10.9187 2.99572L7.92125 6.75072H6.32125L9.9425 2.21572ZM13.125 13.0007C12.9592 13.0007 12.8003 13.0666 12.6831 13.1838C12.5658 13.301 12.5 13.46 12.5 13.6257C12.5 13.7915 12.5658 13.9504 12.6831 14.0677C12.8003 14.1849 12.9592 14.2507 13.125 14.2507H14.375C14.5408 14.2507 14.6997 14.1849 14.8169 14.0677C14.9342 13.9504 15 13.7915 15 13.6257C15 13.46 14.9342 13.301 14.8169 13.1838C14.6997 13.0666 14.5408 13.0007 14.375 13.0007H13.125ZM3.75 7.37572C3.75 7.20996 3.81585 7.05099 3.93306 6.93377C4.05027 6.81657 4.20924 6.75072 4.375 6.75072H5.0725L6.06625 5.50072H4.375C3.87772 5.50072 3.40081 5.69826 3.04917 6.04989C2.69754 6.40152 2.5 6.87844 2.5 7.37572V14.8757C2.5 15.7045 2.82924 16.4994 3.41529 17.0854C4.00134 17.6715 4.7962 18.0007 5.625 18.0007H15C15.663 18.0007 16.2989 17.7373 16.7678 17.2685C17.2366 16.7996 17.5 16.1638 17.5 15.5007V10.5007C17.5 9.83768 17.2366 9.20179 16.7678 8.73295C16.2989 8.26411 15.663 8.00072 15 8.00072H4.375C4.20924 8.00072 4.05027 7.93487 3.93306 7.81766C3.81585 7.70045 3.75 7.54148 3.75 7.37572ZM3.75 14.8757V9.14447C3.945 9.21322 4.15625 9.25072 4.375 9.25072H15C15.3315 9.25072 15.6495 9.38241 15.8839 9.61683C16.1183 9.85125 16.25 10.1692 16.25 10.5007V15.5007C16.25 15.8322 16.1183 16.1502 15.8839 16.3846C15.6495 16.619 15.3315 16.7507 15 16.7507H5.625C5.12772 16.7507 4.65081 16.5532 4.29917 16.2015C3.94754 15.8499 3.75 15.373 3.75 14.8757Z" fill="#2E3D45"/>
</svg>
